<svg width="24" height="24" viewBox="0 -960 960 960" xmlns="http://www.w3.org/2000/svg" xmlns:xlink="http://www.w3.org/1999/xlink" fill="#1F1F1F" overflow="hidden"><style>
.MsftOfcThm_Background1_Fill_v2 {
 fill:#FFFFFF; 
}
</style>
<path d="M480-80C387.333-103.333 310.833-156.5 250.5-239.5 190.167-322.5 160-414.667 160-516L160-760 480-880 800-760 800-516C800-414.667 769.833-322.5 709.5-239.5 649.167-156.5 572.667-103.333 480-80ZM480-164C544.667-184 598.667-223.5 642-282.5 685.333-341.5 710.667-407.333 718-480L480-480 480-795 240-705 240-498C240-493.333 240.667-487.333 242-480L480-480 480-164Z" class="MsftOfcThm_Background1_Fill_v2" stroke="none" stroke-width="1" stroke-linecap="butt" stroke-linejoin="miter" stroke-miterlimit="4" fill="#FFFFFF" fill-opacity="1"/></svg>