<svg width="24" height="24" viewBox="0 -960 960 960" xmlns="http://www.w3.org/2000/svg" xmlns:xlink="http://www.w3.org/1999/xlink" fill="#1F1F1F" overflow="hidden"><path d="M160-40 160-280 260-280 260-360 160-360 160-600 260-600 260-680 160-680 160-920 440-920 440-680 340-680 340-600 440-600 440-520 560-520 560-600 840-600 840-360 560-360 560-440 440-440 440-360 340-360 340-280 440-280 440-40 160-40ZM240-120 360-120 360-200 240-200 240-120ZM240-440 360-440 360-520 240-520 240-440ZM640-440 760-440 760-520 640-520 640-440ZM240-760 360-760 360-840 240-840 240-760Z" stroke="none" stroke-width="1" stroke-linecap="butt" stroke-linejoin="miter" stroke-miterlimit="4" fill="#3997CA" fill-opacity="1"/></svg>