<svg viewBox="0 0 436.95 98.73" xmlns="http://www.w3.org/2000/svg" xmlns:xlink="http://www.w3.org/1999/xlink" id="Layer_2" overflow="hidden"><defs></defs><g id="Layer_1-2"><path d="M33.4 68.54 33.4 59.84 20.77 59.84C19.78 59.84 18.8 59.8 17.83 59.72 16.86 59.62 15.92 59.43 15.01 59.13 14.12 58.82 13.35 58.38 12.72 57.8 11.61 56.77 10.96 55.59 10.77 54.24 10.6 52.9 10.5 51.53 10.46 50.12 10.4 49.62 10.35 49.15 10.34 48.67 10.32 48.17 10.31 47.7 10.31 47.22L10.31 19.8 0 19.8 0 47.22C0 48.52 0.02 49.88 0.06 51.31 0.12 52.72 0.25 54.09 0.46 55.43 0.68 56.78 1.03 58.09 1.51 59.39 2.01 60.67 2.69 61.85 3.58 62.92 4.51 64.1 5.55 65.06 6.71 65.8 7.89 66.53 9.12 67.09 10.42 67.5 11.74 67.92 13.09 68.2 14.47 68.34 15.87 68.49 17.3 68.56 18.77 68.56L33.38 68.56Z" fill="#FFFFFF"/><path d="M74.61 51.2C74.61 45.22 72.94 40.6 69.6 37.33 66.27 34.07 61.65 32.44 55.7 32.44 52.95 32.44 50.42 32.86 48.12 33.68 45.81 34.51 43.83 35.69 42.18 37.24 40.52 38.77 39.24 40.66 38.31 42.9 37.38 45.13 36.92 47.63 36.92 50.39 36.92 56.36 38.54 60.96 41.81 64.19 45.07 67.43 49.67 69.05 55.61 69.05 58.4 69.05 60.94 68.66 63.26 67.87 65.57 67.09 67.56 65.94 69.23 64.43 70.92 62.93 72.24 61.07 73.19 58.86 74.13 56.63 74.61 54.08 74.61 51.18ZM64.61 50.71C64.61 52.18 64.47 53.58 64.21 54.92 63.94 56.27 63.47 57.42 62.79 58.39 62.11 59.36 61.2 60.15 60.07 60.74 58.96 61.32 57.57 61.61 55.92 61.61 54.27 61.61 52.84 61.35 51.71 60.81 50.57 60.28 49.64 59.53 48.92 58.58 48.22 57.64 47.7 56.52 47.37 55.24 47.06 53.94 46.91 52.53 46.91 51 46.91 49.47 47.04 48.01 47.31 46.67 47.57 45.33 48.04 44.16 48.7 43.17 49.36 42.16 50.26 41.37 51.39 40.79 52.54 40.19 54 39.89 55.75 39.89 57.4 39.89 58.79 40.18 59.93 40.76 61.08 41.32 62 42.08 62.68 43.05 63.36 44.02 63.84 45.17 64.13 46.49 64.44 47.81 64.59 49.23 64.59 50.73Z" fill="#FFFFFF"/><path d="M115.96 68.26 115.96 32.94 97.7 32.94C95.51 32.94 93.49 33.14 91.63 33.53 89.77 33.92 87.95 34.75 86.15 36.01 83.71 37.73 82.02 39.9 81.07 42.54 80.12 45.16 79.65 47.89 79.65 50.71 79.65 53.29 80.05 55.8 80.86 58.23 81.66 60.67 83.03 62.8 84.98 64.61 86.79 66.27 88.68 67.33 90.64 67.83 92.62 68.31 94.8 68.54 97.2 68.54L106.18 68.54C106.18 69.61 106.1 70.47 105.96 71.14 105.81 71.8 105.54 72.3 105.16 72.66 104.77 73.03 104.23 73.28 103.55 73.4 102.87 73.52 101.99 73.59 100.92 73.59L82.81 73.59 82.81 81.17 102.25 81.17C104.29 81.17 106.1 81.02 107.67 80.74 109.26 80.45 110.59 79.91 111.69 79.13 112.78 78.36 113.67 77.29 114.35 75.91 115.05 74.55 115.51 72.77 115.74 70.59 115.8 70.2 115.85 69.8 115.89 69.41 115.93 69.02 115.95 68.64 115.95 68.26ZM106.18 60.92 98.57 60.92C95.41 60.92 93.12 60.01 91.7 58.17 90.29 56.31 89.6 53.88 89.6 50.87 89.6 49.41 89.73 48.05 90 46.78 90.26 45.5 90.73 44.42 91.39 43.53 92.05 42.62 92.92 41.91 94.02 41.36 95.11 40.83 96.47 40.56 98.07 40.56L106.18 40.56 106.18 60.93Z" fill="#FFFFFF"/><path d="M135.41 29.29 135.41 19.79 125.63 19.79 125.63 29.29 135.41 29.29ZM135.41 68.54 135.41 32.95 125.63 32.95 125.63 68.54 135.41 68.54Z" fill="#FFFFFF"/><path d="M177.5 57.27C177.5 55.44 177.17 53.88 176.51 52.6 175.84 51.3 174.96 50.25 173.85 49.44 172.74 48.63 171.44 48.05 169.95 47.68 168.46 47.31 166.89 47.12 165.21 47.12L159.45 47.12C158.81 47.12 158.1 47.12 157.35 47.09 156.61 47.07 155.91 46.97 155.28 46.78 154.66 46.58 154.14 46.25 153.73 45.79 153.31 45.32 153.11 44.61 153.11 43.69 153.11 42.29 153.5 41.43 154.29 41.12 155.09 40.8 156.06 40.62 157.2 40.62 157.45 40.62 157.67 40.62 157.88 40.59 158.1 40.57 158.34 40.56 158.59 40.56L175.89 40.56 175.89 32.95 155 32.95C153 32.95 151.22 33.13 149.68 33.48 148.15 33.81 146.74 34.78 145.44 36.39 143.83 38.39 143.03 40.71 143.03 43.32 143.03 45.61 143.59 47.7 144.7 49.57 145.81 51.45 147.47 52.8 149.68 53.62 150.5 53.93 151.45 54.15 152.53 54.27 153.6 54.38 154.7 54.45 155.84 54.49 156.99 54.51 158.1 54.51 159.15 54.49 160.22 54.45 161.18 54.43 162.03 54.43 162.71 54.43 163.4 54.45 164.1 54.49 164.8 54.51 165.44 54.63 166.02 54.83 166.62 55.02 167.09 55.36 167.44 55.85 167.81 56.33 168 57.03 168 57.95 168 59.21 167.61 59.99 166.85 60.27 166.11 60.56 165.19 60.76 164.13 60.86 163.59 60.91 163.05 60.92 162.52 60.92L143.61 60.92 143.61 68.53 163.76 68.53C164.79 68.53 165.85 68.53 166.95 68.5 168.04 68.48 169.1 68.35 170.14 68.1 171.35 67.85 172.41 67.37 173.3 66.65 174.21 65.91 174.97 65.04 175.59 64.05 176.22 63.04 176.7 61.96 177.01 60.8 177.33 59.62 177.51 58.45 177.51 57.27Z" fill="#FFFFFF"/><path d="M234.15 72.76 234.15 64.06 225.82 64.06C226.5 63.24 227.1 62.44 227.65 61.65 228.18 60.87 228.67 59.99 229.1 59.02 229.84 57.41 230.38 55.61 230.74 53.6 231.11 51.6 231.3 49.72 231.3 47.97 231.3 45.64 231 43.13 230.4 40.42 229.82 37.72 228.98 35.34 227.86 33.3 226.89 31.49 225.62 29.96 224.05 28.72 222.5 27.48 220.8 26.51 218.94 25.78 217.08 25.04 215.14 24.51 213.12 24.2 211.09 23.88 209.11 23.7 207.18 23.7 198.84 23.7 192.74 25.8 188.89 29.98 185.05 34.17 183.13 40.36 183.13 48.55 183.13 50.37 183.24 52.19 183.47 54.03 183.72 55.85 184.14 57.62 184.74 59.35 185.36 61.07 186.16 62.69 187.15 64.21 188.16 65.72 189.42 67.06 190.93 68.23 193.32 70.07 195.99 71.29 198.95 71.88 201.9 72.46 204.84 72.75 207.77 72.75L234.14 72.75ZM219.82 47.9C219.82 50.09 219.67 52.19 219.36 54.21 219.05 56.24 218.43 58.02 217.5 59.56 216.57 61.09 215.3 62.31 213.69 63.21 212.08 64.1 209.98 64.54 207.41 64.54 204.84 64.54 202.71 64.11 201.03 63.24 199.37 62.36 198.07 61.17 197.13 59.68 196.18 58.19 195.52 56.46 195.15 54.48 194.78 52.48 194.59 50.33 194.59 48.04 194.59 45.75 194.78 43.7 195.15 41.76 195.52 39.8 196.18 38.09 197.13 36.62 198.07 35.16 199.37 34 201 33.15 202.62 32.31 204.71 31.88 207.25 31.88 209.64 31.88 211.65 32.33 213.29 33.21 214.91 34.08 216.21 35.25 217.16 36.71 218.1 38.16 218.78 39.86 219.2 41.82 219.61 43.76 219.82 45.78 219.82 47.89Z" fill="#FFFFFF"/><line x1="264.69" y1="0" x2="264.69" y2="98.73" stroke="#FFFFFF" stroke-width="2.5" stroke-miterlimit="10" fill="none"/><g><path d="M342.16 57.82 349.57 24.57 361.66 24.57 348.42 72.5 336.4 72.5 326.68 36.51 316.96 72.5 304.94 72.5 291.7 24.57 303.79 24.57 311.2 57.82 320.12 24.57 333.22 24.57 342.15 57.82Z" fill="#4CB7E8"/><path d="M367.28 24.56 397.15 24.56 397.15 33.92 379.08 33.92 379.08 43.56 396.28 43.56 396.28 52.92 379.08 52.92 379.08 63.14 397.36 63.14 397.36 72.5 367.27 72.5 367.27 24.56Z" fill="#4CB7E8"/><path d="M418.6 73.36C413.35 73.36 407.81 72.14 403.34 69.98L405.72 60.98C409.03 62.64 413.35 64 418.24 64 422.2 64 425.15 62.63 425.15 59.25 425.15 56.8 423.28 55.08 417.3 52.84 407.94 49.31 403.77 45.07 403.77 38.01 403.77 28.8 410.25 23.69 420.97 23.69 426.44 23.69 431.69 25.06 435.15 26.93L433.13 35.78C429.82 34.2 425.65 33.04 421.47 33.04 417.94 33.04 415.57 34.12 415.57 37 415.57 39.59 416.87 40.67 422.48 42.9 430.61 46.14 436.95 49.95 436.95 58.16 436.95 66.37 430.04 73.35 418.6 73.35Z" fill="#4CB7E8"/></g></g></svg>