<svg width="24" height="24" viewBox="0 -960 960 960" xmlns="http://www.w3.org/2000/svg" xmlns:xlink="http://www.w3.org/1999/xlink" fill="#1F1F1F" overflow="hidden"><path d="M160-360C126.667-360 98.3333-371.667 75-395 51.6667-418.333 40-446.667 40-480 40-513.333 51.6667-541.667 75-565 98.3333-588.333 126.667-600 160-600L160-680C160-702 167.833-720.833 183.5-736.5 199.167-752.167 218-760 240-760L360-760C360-793.333 371.667-821.667 395-845 418.333-868.333 446.667-880 480-880 513.333-880 541.667-868.333 565-845 588.333-821.667 600-793.333 600-760L720-760C742-760 760.833-752.167 776.5-736.5 792.167-720.833 800-702 800-680L800-600C833.333-600 861.667-588.333 885-565 908.333-541.667 920-513.333 920-480 920-446.667 908.333-418.333 885-395 861.667-371.667 833.333-360 800-360L800-200C800-178 792.167-159.167 776.5-143.5 760.833-127.833 742-120 720-120L240-120C218-120 199.167-127.833 183.5-143.5 167.833-159.167 160-178 160-200L160-360ZM360-440C376.667-440 390.833-445.833 402.5-457.5 414.167-469.167 420-483.333 420-500 420-516.667 414.167-530.833 402.5-542.5 390.833-554.167 376.667-560 360-560 343.333-560 329.167-554.167 317.5-542.5 305.833-530.833 300-516.667 300-500 300-483.333 305.833-469.167 317.5-457.5 329.167-445.833 343.333-440 360-440ZM600-440C616.667-440 630.833-445.833 642.5-457.5 654.167-469.167 660-483.333 660-500 660-516.667 654.167-530.833 642.5-542.5 630.833-554.167 616.667-560 600-560 583.333-560 569.167-554.167 557.5-542.5 545.833-530.833 540-516.667 540-500 540-483.333 545.833-469.167 557.5-457.5 569.167-445.833 583.333-440 600-440ZM320-280 640-280 640-360 320-360 320-280ZM240-200 720-200 720-680 240-680 240-200Z"/></svg>