<svg viewBox="0 0 295.97 149.82" xmlns="http://www.w3.org/2000/svg" xmlns:xlink="http://www.w3.org/1999/xlink" id="Layer_2" overflow="hidden"><defs/><g id="Layer_1-2"><g><path d="M123.53 132.65C122.73 132.65 121.94 132.62 121.16 132.55 120.37 132.47 119.62 132.31 118.89 132.08 118.17 131.83 117.56 131.48 117.05 131.01 116.15 130.18 115.63 129.23 115.48 128.14 115.34 127.06 115.26 125.96 115.23 124.83 115.18 124.43 115.14 124.04 115.13 123.66 115.11 123.26 115.11 122.87 115.11 122.49L115.11 100.41 106.81 100.41 106.81 122.49C106.81 123.54 106.82 124.63 106.86 125.78 106.91 126.91 107.02 128.02 107.18 129.1 107.36 130.18 107.64 131.24 108.03 132.29 108.43 133.32 108.98 134.27 109.7 135.13 110.45 136.08 111.28 136.85 112.22 137.45 113.17 138.04 114.16 138.49 115.21 138.82 116.27 139.16 117.36 139.38 118.48 139.49 119.61 139.61 120.76 139.66 121.94 139.66L133.7 139.66 133.7 132.66 123.53 132.66Z" fill="#FFFFFF"/><path d="M151.66 110.59C149.45 110.59 147.41 110.93 145.55 111.59 143.69 112.26 142.09 113.21 140.76 114.46 139.43 115.69 138.39 117.21 137.64 119.02 136.89 120.81 136.52 122.83 136.52 125.05 136.52 129.85 137.83 133.56 140.46 136.17 143.08 138.78 146.79 140.08 151.58 140.08 153.82 140.08 155.87 139.76 157.74 139.13 159.6 138.5 161.2 137.58 162.55 136.36 163.91 135.15 164.97 133.66 165.74 131.87 166.5 130.08 166.89 128.02 166.89 125.69 166.89 120.87 165.54 117.15 162.85 114.52 160.17 111.9 156.44 110.58 151.66 110.58ZM158.51 128.69C158.29 129.77 157.91 130.7 157.36 131.48 156.81 132.27 156.08 132.89 155.17 133.37 154.27 133.84 153.16 134.07 151.83 134.07 150.5 134.07 149.35 133.86 148.44 133.42 147.52 132.99 146.78 132.39 146.2 131.63 145.63 130.87 145.22 129.97 144.95 128.94 144.7 127.89 144.58 126.76 144.58 125.53 144.58 124.3 144.69 123.12 144.9 122.04 145.11 120.96 145.49 120.02 146.02 119.22 146.55 118.41 147.27 117.77 148.19 117.3 149.12 116.82 150.29 116.58 151.7 116.58 153.03 116.58 154.15 116.82 155.06 117.28 155.99 117.73 156.73 118.35 157.28 119.12 157.83 119.91 158.22 120.83 158.45 121.89 158.7 122.96 158.82 124.1 158.82 125.3 158.82 126.5 158.71 127.61 158.5 128.69Z" fill="#FFFFFF"/><path d="M180.6 111.46C179.1 111.78 177.63 112.44 176.19 113.45 174.23 114.83 172.86 116.58 172.1 118.71 171.33 120.82 170.95 123.02 170.95 125.29 170.95 127.37 171.27 129.39 171.92 131.35 172.57 133.31 173.67 135.03 175.23 136.48 176.69 137.81 178.21 138.67 179.79 139.07 181.39 139.46 183.14 139.64 185.07 139.64L192.3 139.64C192.3 140.5 192.24 141.2 192.13 141.73 192.01 142.26 191.79 142.66 191.48 142.95 191.16 143.25 190.73 143.45 190.18 143.55 189.63 143.65 188.92 143.7 188.06 143.7L173.48 143.7 173.48 149.81 189.13 149.81C190.78 149.81 192.23 149.69 193.49 149.46 194.77 149.22 195.85 148.79 196.73 148.16 197.61 147.54 198.33 146.68 198.87 145.57 199.43 144.47 199.8 143.04 199.99 141.28 200.04 140.96 200.08 140.64 200.11 140.33 200.14 140.01 200.16 139.71 200.16 139.41L200.16 110.97 185.45 110.97C183.69 110.97 182.06 111.13 180.56 111.44ZM192.31 117.12 192.31 133.52 186.18 133.52C183.64 133.52 181.79 132.78 180.65 131.3 179.52 129.8 178.96 127.85 178.96 125.42 178.96 124.24 179.07 123.15 179.28 122.13 179.49 121.1 179.87 120.23 180.4 119.51 180.93 118.78 181.63 118.2 182.52 117.77 183.4 117.34 184.49 117.12 185.79 117.12L192.32 117.12Z" fill="#FFFFFF"/><rect x="207.97" y="100.4" width="7.88" height="7.65" fill="#FFFFFF"/><rect x="207.97" y="110.99" width="7.88" height="28.66" fill="#FFFFFF"/><path d="M246.8 124.28C245.9 123.63 244.86 123.16 243.66 122.86 242.46 122.56 241.19 122.41 239.85 122.41L235.21 122.41C234.69 122.41 234.13 122.41 233.52 122.39 232.92 122.38 232.36 122.29 231.85 122.14 231.35 121.98 230.93 121.71 230.6 121.34 230.26 120.96 230.1 120.39 230.1 119.65 230.1 118.52 230.41 117.83 231.05 117.58 231.7 117.32 232.48 117.18 233.39 117.18 233.59 117.18 233.77 117.18 233.94 117.16 234.12 117.15 234.31 117.14 234.51 117.14L248.44 117.14 248.44 111.01 231.62 111.01C230.01 111.01 228.58 111.15 227.33 111.43 226.1 111.7 224.96 112.48 223.91 113.77 222.61 115.38 221.97 117.25 221.97 119.35 221.97 121.19 222.42 122.88 223.32 124.38 224.22 125.89 225.55 126.98 227.33 127.65 227.99 127.9 228.76 128.07 229.62 128.17 230.48 128.26 231.37 128.31 232.29 128.34 233.22 128.36 234.11 128.36 234.96 128.34 235.82 128.31 236.59 128.29 237.28 128.29 237.83 128.29 238.38 128.31 238.95 128.34 239.51 128.36 240.03 128.45 240.5 128.61 240.98 128.76 241.36 129.03 241.65 129.43 241.95 129.82 242.1 130.38 242.1 131.12 242.1 132.14 241.79 132.76 241.18 132.99 240.58 133.23 239.85 133.38 238.99 133.46 238.55 133.5 238.12 133.51 237.69 133.51L222.46 133.51 222.46 139.64 238.69 139.64C239.52 139.64 240.37 139.64 241.26 139.62 242.14 139.61 242.99 139.5 243.83 139.3 244.81 139.1 245.66 138.71 246.37 138.13 247.1 137.53 247.72 136.83 248.21 136.04 248.72 135.23 249.11 134.36 249.36 133.42 249.62 132.47 249.76 131.53 249.76 130.58 249.76 129.1 249.49 127.85 248.96 126.82 248.42 125.77 247.71 124.93 246.82 124.28Z" fill="#FFFFFF"/><path d="M290.13 134.11C290.56 133.48 290.95 132.78 291.3 131.99 291.9 130.69 292.33 129.24 292.62 127.63 292.92 126.02 293.07 124.51 293.07 123.09 293.07 121.21 292.83 119.19 292.35 117.01 291.88 114.84 291.2 112.92 290.31 111.28 289.52 109.82 288.5 108.59 287.24 107.59 285.99 106.59 284.62 105.81 283.13 105.22 281.63 104.62 280.07 104.2 278.44 103.95 276.81 103.69 275.21 103.55 273.65 103.55 266.93 103.55 262.02 105.24 258.92 108.61 255.83 111.99 254.28 116.97 254.28 123.57 254.28 125.03 254.37 126.5 254.55 127.98 254.75 129.44 255.09 130.87 255.57 132.27 256.07 133.65 256.72 134.96 257.51 136.18 258.32 137.4 259.34 138.47 260.55 139.42 262.48 140.9 264.63 141.88 267.01 142.36 269.38 142.83 271.75 143.06 274.11 143.06L295.35 143.06 295.35 136.06 288.64 136.06C289.19 135.4 289.67 134.75 290.11 134.12ZM283.45 128.12C283.2 129.75 282.7 131.19 281.95 132.43 281.2 133.66 280.18 134.64 278.88 135.37 277.58 136.09 275.9 136.44 273.82 136.44 271.74 136.44 270.03 136.09 268.69 135.39 267.36 134.68 266.31 133.72 265.55 132.52 264.78 131.32 264.25 129.93 263.95 128.33 263.65 126.72 263.5 124.99 263.5 123.15 263.5 121.31 263.65 119.65 263.95 118.09 264.25 116.51 264.78 115.14 265.55 113.95 266.31 112.77 267.35 111.84 268.67 111.16 269.98 110.48 271.66 110.14 273.7 110.14 275.63 110.14 277.25 110.5 278.56 111.21 279.87 111.91 280.91 112.85 281.68 114.03 282.44 115.2 282.99 116.57 283.33 118.14 283.66 119.7 283.83 121.33 283.83 123.03 283.83 124.73 283.71 126.49 283.46 128.11Z" fill="#FFFFFF"/><path d="M73.66 65.42C70.85 71.13 63.06 74.96 54.28 74.96 45.49 74.96 37.71 71.12 34.9 65.42L34.73 65.09 0 65.09 0 89.01 70.05 89.01 70.43 88.98C70.8 88.99 71.18 89 71.56 89 87.1 89 99.72 78.77 100.29 65.71L100.32 65.09 73.83 65.09 73.66 65.42Z" fill="#FFFFFF"/><path d="M34.9 23.58C37.65 17.99 45.18 14.19 53.74 14.04L54.27 14.04C63.05 14.04 70.84 17.87 73.65 23.58L73.82 23.91 100.31 23.91 100.28 23.29C99.72 10.24 87.1 0 71.57 0 71.27 0 70.96 0 70.66 0.01L0 0 0 23.92 34.74 23.92 34.91 23.59Z" fill="#FFFFFF"/><path d="M100.33 32.73 73.85 32.73 73.68 33.04C70.87 38.24 63.08 41.74 54.29 41.74 45.5 41.74 37.7 38.24 34.89 33.04L34.72 32.73 0 32.73 0 57.24 34.74 57.24 34.91 56.91C37.72 51.2 45.51 47.37 54.3 47.37 63.09 47.37 70.87 51.2 73.68 56.91L73.85 57.24 100.34 57.24 100.31 56.61C100.11 52.29 98.55 48.1 95.76 44.46 98.54 41.14 100.11 37.31 100.31 33.35L100.34 32.72Z" fill="#FFFFFF"/><path d="M198.49 24.14 198.49 0.24 135.33 0.24 134.97 0.26C134.64 0.26 134.3 0.24 133.96 0.24 119.93 0.24 108.54 10.46 108.03 23.51L108.01 24.13 169.01 24.13C169.01 24.13 198.5 24.13 198.5 24.13Z" fill="#FFFFFF"/><path d="M108.03 89.02 171.2 89.02 171.54 89C171.88 89.01 172.22 89.02 172.56 89.02 186.59 89.02 197.98 78.8 198.49 65.74L198.51 65.12 108.03 65.12 108.03 89.02Z" fill="#FFFFFF"/><path d="M133.68 57.47 134.64 57.47C134.64 57.47 134.7 57.47 134.72 57.47L178.58 57.49 198.5 57.49C198.5 57.49 198.48 56.85 198.48 56.85 197.97 43.59 186.71 33.09 172.83 32.94L171.86 32.94C171.86 32.94 171.81 32.94 171.79 32.94L108 32.94C108 32.94 108.02 33.56 108.02 33.56 108.53 46.82 119.8 57.32 133.68 57.47Z" fill="#FFFFFF"/><path d="M295.95 24.14 295.95 0.24 232.79 0.24 232.43 0.26C232.1 0.26 231.76 0.24 231.42 0.24 217.4 0.24 206 10.46 205.49 23.51L205.47 24.13 266.47 24.13C266.47 24.13 295.96 24.13 295.96 24.13Z" fill="#FFFFFF"/><path d="M205.49 65.12 205.49 89.02 268.66 89.02 269 89C269.34 89.01 269.68 89.02 270.02 89.02 284.05 89.02 295.44 78.8 295.95 65.74L295.97 65.12 205.49 65.12Z" fill="#FFFFFF"/><path d="M231.15 57.47 232.12 57.47C232.12 57.47 232.17 57.47 232.2 57.47L276.06 57.49 295.37 57.49 295.37 56.88 295.96 56.86C295.45 43.6 284.18 33.1 270.31 32.95L269.34 32.95C269.34 32.95 269.29 32.95 269.27 32.95L205.48 32.95C205.48 32.95 205.5 33.57 205.5 33.57 206.02 46.83 217.28 57.33 231.16 57.48Z" fill="#FFFFFF"/></g></g></svg>