<svg viewBox="0 0 1901.13 457.17" xmlns="http://www.w3.org/2000/svg" xmlns:xlink="http://www.w3.org/1999/xlink" id="Layer_2" overflow="hidden"><defs/><g id="Layer_1-2"><path d="M0 203.6 0 336.22 147.03 402.53 294.06 336.22 294.06 203.6 147.03 137.29 0 203.6Z" fill="#FFFFFF"/><path d="M263.29 107 263.29 57.74 328.98 28.11 394.67 57.74 394.67 107 328.98 136.62 263.29 107ZM328.99 0 237.67 41.18 237.67 123.55 328.99 164.73 420.31 123.55 420.31 41.18 328.99 0Z" fill="#FFFFFF"/><path d="M867.41 222.21 859.03 222.21C831.7 222.21 811.42 229.26 799.96 243.37L799.96 377.39 729.42 377.39 729.42 161.38 797.75 161.38 797.75 197.53C805.68 174.17 822.88 159.62 850.21 159.62 858.15 159.62 863.44 160.5 869.17 162.27L867.41 222.22Z" fill="#FFFFFF"/><path d="M1059.17 170.19 1052.12 220.45C1041.1 215.6 1024.35 211.63 1008.48 211.63 971.01 211.63 952.05 233.67 952.05 269.38 952.05 305.09 971.01 327.13 1008.48 327.13 1024.35 327.13 1041.1 323.16 1052.12 318.31L1059.17 368.57C1043.3 376.5 1020.38 381.79 998.34 381.79 925.16 381.79 881.51 336.39 881.51 269.38 881.51 202.37 925.15 156.97 998.34 156.97 1020.38 156.97 1043.3 162.26 1059.17 170.2" fill="#FFFFFF"/><path d="M1196.7 381.79C1122.2 381.79 1081.64 332.86 1081.64 269.38 1081.64 205.9 1122.2 156.97 1196.7 156.97 1271.2 156.97 1311.76 205.9 1311.76 269.38 1311.76 332.86 1271.2 381.79 1196.7 381.79M1196.7 208.98C1162.32 208.98 1152.18 238.96 1152.18 269.38 1152.18 299.8 1162.32 329.77 1196.7 329.77 1231.08 329.77 1241.22 299.79 1241.22 269.38 1241.22 238.97 1231.08 208.98 1196.7 208.98" fill="#FFFFFF"/><path d="M1349.65 377.38 1349.65 161.37 1417.54 161.37 1417.54 189.58C1431.21 166.22 1454.13 156.96 1477.93 156.96 1535.24 156.96 1556.84 208.54 1556.84 265.85L1556.84 377.38 1486.31 377.38 1486.31 264.53C1486.31 228.82 1475.29 212.51 1452.37 212.51 1437.82 212.51 1426.8 220.01 1420.19 229.26L1420.19 377.38 1349.66 377.38Z" fill="#FFFFFF"/><path d="M1753.45 381.79C1751.25 382.23 1749.04 382.67 1745.07 382.67 1649.85 382.67 1595.19 313.9 1595.19 230.58 1595.19 147.26 1649.85 78.49 1745.07 78.49 1840.29 78.49 1894.95 147.26 1894.95 230.58 1894.95 284.36 1872.03 331.97 1830.59 358.86L1901.12 405.59 1867.18 457.17 1753.44 381.79ZM1822.66 230.58C1822.66 175.03 1796.21 135.8 1745.07 135.8 1693.93 135.8 1667.48 175.03 1667.48 230.58 1667.48 286.13 1693.93 325.36 1745.07 325.36 1796.21 325.36 1822.66 286.13 1822.66 230.58" fill="#FFFFFF"/><path d="M604.69 320.51 492.27 320.51 474.2 377.38 399.7 377.38 509.03 83.78 588.38 83.78 697.7 377.38 623.2 377.38 604.68 320.51ZM510.79 263.2 586.18 263.2 548.71 139.32 510.8 263.2Z" fill="#FFFFFF"/></g></svg>