<svg width="24" height="24" viewBox="0 -960 960 960" xmlns="http://www.w3.org/2000/svg" xmlns:xlink="http://www.w3.org/1999/xlink" fill="#1F1F1F" overflow="hidden"><path d="M880-80 720-240 320-240C298-240 279.167-247.833 263.5-263.5 247.833-279.167 240-298 240-320L240-360 680-360C702-360 720.833-367.833 736.5-383.5 752.167-399.167 760-418 760-440L760-720 800-720C822-720 840.833-712.167 856.5-696.5 872.167-680.833 880-662 880-640L880-80ZM160-473 207-520 600-520 600-800 160-800 160-473ZM80-280 80-800C80-822 87.8333-840.833 103.5-856.5 119.167-872.167 138-880 160-880L600-880C622-880 640.833-872.167 656.5-856.5 672.167-840.833 680-822 680-800L680-520C680-498 672.167-479.167 656.5-463.5 640.833-447.833 622-440 600-440L240-440 80-280ZM160-520 160-800 160-520Z"/></svg>