<svg width="24" height="24" viewBox="0 -960 960 960" xmlns="http://www.w3.org/2000/svg" xmlns:xlink="http://www.w3.org/1999/xlink" fill="#1F1F1F" overflow="hidden"><path d="M440-440C451.333-440 460.833-443.833 468.5-451.5 476.167-459.167 480-468.667 480-480 480-491.333 476.167-500.833 468.5-508.5 460.833-516.167 451.333-520 440-520 428.667-520 419.167-516.167 411.5-508.5 403.833-500.833 400-491.333 400-480 400-468.667 403.833-459.167 411.5-451.5 419.167-443.833 428.667-440 440-440ZM280-120 280-200 520-240 520-685C520-695 517-704 511-712 505-720 497.333-724.667 488-726L280-760 280-840 500-804C529.333-798.667 553.333-785 572-763 590.667-741 600-715.333 600-686L600-174 280-120ZM120-120 120-200 200-200 200-760C200-782.667 207.833-801.667 223.5-817 239.167-832.333 258-840 280-840L680-840C702.667-840 721.667-832.333 737-817 752.333-801.667 760-782.667 760-760L760-200 840-200 840-120 120-120ZM280-200 680-200 680-760 280-760 280-200Z" stroke="none" stroke-width="1" stroke-linecap="butt" stroke-linejoin="miter" stroke-miterlimit="4" fill="#3997CA" fill-opacity="1"/></svg>