<svg width="24" height="24" viewBox="0 -960 960 960" xmlns="http://www.w3.org/2000/svg" xmlns:xlink="http://www.w3.org/1999/xlink" fill="#1F1F1F" overflow="hidden"><style>
.MsftOfcThm_Background1_Fill_v2 {
 fill:#FFFFFF; 
}
</style>
<path d="M480-120C379.333-120 294.167-135.5 224.5-166.5 154.833-197.5 120-235.333 120-280L120-680C120-724 155.167-761.667 225.5-793 295.833-824.333 380.667-840 480-840 579.333-840 664.167-824.333 734.5-793 804.833-761.667 840-724 840-680L840-280C840-235.333 805.167-197.5 735.5-166.5 665.833-135.5 580.667-120 480-120ZM480-599C539.333-599 599-607.5 659-624.5 719-641.5 752.667-659.667 760-679 752.667-698.333 719.167-716.667 659.5-734 599.833-751.333 540-760 480-760 419.333-760 359.833-751.5 301.5-734.5 243.167-717.5 209.333-699 200-679 209.333-659 243.167-640.667 301.5-624 359.833-607.333 419.333-599 480-599ZM480-400C508-400 535-401.333 561-404 587-406.667 611.833-410.5 635.5-415.5 659.167-420.5 681.5-426.667 702.5-434 723.5-441.333 742.667-449.667 760-459L760-579C742.667-569.667 723.5-561.333 702.5-554 681.5-546.667 659.167-540.5 635.5-535.5 611.833-530.5 587-526.667 561-524 535-521.333 508-520 480-520 452-520 424.667-521.333 398-524 371.333-526.667 346.167-530.5 322.5-535.5 298.833-540.5 276.667-546.667 256-554 235.333-561.333 216.667-569.667 200-579L200-459C216.667-449.667 235.333-441.333 256-434 276.667-426.667 298.833-420.5 322.5-415.5 346.167-410.5 371.333-406.667 398-404 424.667-401.333 452-400 480-400ZM480-200C510.667-200 541.833-202.333 573.5-207 605.167-211.667 634.333-217.833 661-225.5 687.667-233.167 710-241.833 728-251.5 746-261.167 756.667-271 760-281L760-379C742.667-369.667 723.5-361.333 702.5-354 681.5-346.667 659.167-340.5 635.5-335.5 611.833-330.5 587-326.667 561-324 535-321.333 508-320 480-320 452-320 424.667-321.333 398-324 371.333-326.667 346.167-330.5 322.5-335.5 298.833-340.5 276.667-346.667 256-354 235.333-361.333 216.667-369.667 200-379L200-280C203.333-270 213.833-260.333 231.5-251 249.167-241.667 271.333-233.167 298-225.5 324.667-217.833 354-211.667 386-207 418-202.333 449.333-200 480-200Z" class="MsftOfcThm_Background1_Fill_v2" stroke="none" stroke-width="1" stroke-linecap="butt" stroke-linejoin="miter" stroke-miterlimit="4" fill="#FFFFFF" fill-opacity="1"/></svg>