<svg width="24" height="24" viewBox="0 -960 960 960" xmlns="http://www.w3.org/2000/svg" xmlns:xlink="http://www.w3.org/1999/xlink" fill="#1F1F1F" overflow="hidden"><style>
.MsftOfcThm_Background1_Fill_v2 {
 fill:#FFFFFF; 
}
</style>
<path d="M440-183 440-457 200-596 200-322 440-183ZM520-183 760-322 760-596 520-457 520-183ZM480-526 717-663 480-800 243-663 480-526ZM160-252C147.333-259.333 137.5-269 130.5-281 123.5-293 120-306.333 120-321L120-639C120-653.667 123.5-667 130.5-679 137.5-691 147.333-700.667 160-708L440-869C452.667-876.333 466-880 480-880 494-880 507.333-876.333 520-869L800-708C812.667-700.667 822.5-691 829.5-679 836.5-667 840-653.667 840-639L840-321C840-306.333 836.5-293 829.5-281 822.5-269 812.667-259.333 800-252L520-91C507.333-83.6667 494-80 480-80 466-80 452.667-83.6667 440-91L160-252Z" class="MsftOfcThm_Background1_Fill_v2" stroke="none" stroke-width="1" stroke-linecap="butt" stroke-linejoin="miter" stroke-miterlimit="4" fill="#FFFFFF" fill-opacity="1"/></svg>