<svg width="24" height="24" viewBox="0 -960 960 960" xmlns="http://www.w3.org/2000/svg" xmlns:xlink="http://www.w3.org/1999/xlink" fill="#1F1F1F" overflow="hidden"><path d="M720-80 840-200 812-228 740-156 740-320 700-320 700-156 628-228 600-200 720-80ZM480-800 243-663 480-526 717-663 480-800ZM120-321 120-639C120-653.667 123.5-667 130.5-679 137.5-691 147.333-700.667 160-708L440-869C446.667-872.333 453.167-875 459.5-877 465.833-879 472.667-880 480-880 487.333-880 494.333-879 501-877 507.667-875 514-872.333 520-869L800-708C812.667-700.667 822.5-691 829.5-679 836.5-667 840-653.667 840-639L840-480 760-480 760-596 479-434 200-596 200-322 440-183 440-91 160-252C147.333-259.333 137.5-269 130.5-281 123.5-293 120-306.333 120-321ZM720 0C664.667 0 617.5-19.5 578.5-58.5 539.5-97.5 520-144.667 520-200 520-255.333 539.5-302.5 578.5-341.5 617.5-380.5 664.667-400 720-400 775.333-400 822.5-380.5 861.5-341.5 900.5-302.5 920-255.333 920-200 920-144.667 900.5-97.5 861.5-58.5 822.5-19.5 775.333 0 720 0Z"/></svg>