<svg width="24" height="24" viewBox="0 -960 960 960" xmlns="http://www.w3.org/2000/svg" xmlns:xlink="http://www.w3.org/1999/xlink" fill="#1F1F1F" overflow="hidden"><style>
.MsftOfcThm_Background1_Fill_v2 {
 fill:#FFFFFF; 
}
</style>
<path d="M200-120C178-120 159.167-127.833 143.5-143.5 127.833-159.167 120-178 120-200L120-760C120-782 127.833-800.833 143.5-816.5 159.167-832.167 178-840 200-840L760-840C782-840 800.833-832.167 816.5-816.5 832.167-800.833 840-782 840-760L840-200C840-178 832.167-159.167 816.5-143.5 800.833-127.833 782-120 760-120L200-120ZM400-200 400-440 200-440 200-200 400-200ZM480-200 760-200 760-440 480-440 480-200ZM200-520 760-520 760-760 200-760 200-520Z" class="MsftOfcThm_Background1_Fill_v2" fill="#FFFFFF"/></svg>