<svg width="24" height="24" viewBox="0 -960 960 960" xmlns="http://www.w3.org/2000/svg" xmlns:xlink="http://www.w3.org/1999/xlink" fill="#1F1F1F" overflow="hidden"><style>
.MsftOfcThm_Background1_Fill_v2 {
 fill:#FFFFFF; 
}
</style>
<path d="M120-120 120-360 200-360 200-256 324-380 380-324 256-200 360-200 360-120 120-120ZM600-120 600-200 704-200 580-324 636-380 760-256 760-360 840-360 840-120 600-120ZM324-580 200-704 200-600 120-600 120-840 360-840 360-760 256-760 380-636 324-580ZM636-580 580-636 704-760 600-760 600-840 840-840 840-600 760-600 760-704 636-580ZM480-400C458-400 439.167-407.833 423.5-423.5 407.833-439.167 400-458 400-480 400-502 407.833-520.833 423.5-536.5 439.167-552.167 458-560 480-560 502-560 520.833-552.167 536.5-536.5 552.167-520.833 560-502 560-480 560-458 552.167-439.167 536.5-423.5 520.833-407.833 502-400 480-400Z" class="MsftOfcThm_Background1_Fill_v2" stroke="none" stroke-width="1" stroke-linecap="butt" stroke-linejoin="miter" stroke-miterlimit="4" fill="#FFFFFF" fill-opacity="1"/></svg>