<svg viewBox="0 0 1920 539.53" xmlns="http://www.w3.org/2000/svg" xmlns:xlink="http://www.w3.org/1999/xlink" id="Layer_2" overflow="hidden"><defs></defs><g id="Layer_1-2"><g><path d="M104.95 154.97C137.24 120.95 166.07 104.8 208.17 104.8 246.81 104.8 272.18 119.22 283.14 147.47 312.55 118.64 340.8 104.8 379.44 104.8 434.22 104.8 462.48 132.48 462.48 185.54L462.48 401.2 341.96 401.2 341.96 224.17C341.96 211.48 337.34 206.87 322.93 206.87 314.28 206.87 305.63 207.45 289.49 213.8L289.49 401.21 173.01 401.21 173.01 224.18C173.01 211.49 167.24 206.88 153.4 206.88 144.75 206.88 136.68 207.46 120.53 213.23L120.53 401.22 0 401.22 0 112.87 94.57 112.87 104.95 154.97ZM513.31 119.22C557.13 111.15 633.83 104.8 677.65 104.8 758.96 104.8 803.94 132.48 803.94 222.44L803.94 401.2 707.64 401.2 696.68 360.84C677.07 385.63 645.93 409.28 596.92 409.28 543.29 409.28 497.73 381.6 497.73 327.4L497.73 298.57C497.73 252.44 534.06 224.18 592.88 224.18L682.84 224.18 682.84 221.88C682.26 201.7 674.19 193.05 648.82 193.05 618.84 193.05 573.28 193.63 524.27 195.93L513.32 119.24ZM615.37 309.51C615.37 319.89 623.44 327.39 639.59 327.39 652.85 327.39 668.42 321.62 682.84 312.97L682.84 282.41 637.28 282.41C622.86 282.41 615.37 289.91 615.37 300.29L615.37 309.51ZM1118.48 383.9C1084.46 401.78 1037.17 408.12 992.77 408.12 879.75 408.12 839.38 367.76 839.38 256.46 839.38 145.16 880.32 104.8 993.92 104.8 1029.09 104.8 1079.84 109.42 1114.44 126.14L1102.33 201.1 1014.68 201.1C977.78 201.1 966.24 212.06 966.24 256.46 966.24 300.86 977.77 312.4 1014.68 312.4 1034.29 312.4 1071.2 312.4 1107.52 308.36L1118.47 383.9ZM1376.51 215.51 1345.95 215.51C1327.5 215.51 1306.74 216.66 1273.29 221.28L1273.29 401.19 1152.19 401.19 1152.19 112.87 1246.76 112.87 1257.72 154.97C1294.05 120.95 1333.26 104.8 1370.17 104.8L1386.89 104.8 1376.51 215.52ZM1413.23 112.87 1533.75 112.87 1533.75 401.19 1413.23 401.19 1413.23 112.87ZM1734.92 292.79 1678.41 401.2 1558.47 401.2 1642.08 254.16 1564.81 112.88 1684.18 112.88 1734.92 213.8 1785.67 112.88 1905.04 112.88 1827.77 254.16 1911.39 401.2 1791.44 401.2 1734.93 292.79Z" fill="#D8021B"/><path d="M549.66 462.99 549.66 537.82 529.43 537.82 529.43 462.99 502.2 462.99 502.2 446.59 576.89 446.59 576.89 462.99 549.66 462.99Z" fill="#000508"/><path d="M659.48 536.89C647.05 538.21 631.32 538.21 617.17 538.21 605 538.21 597.21 531.07 597.07 519.84L597.07 464.58C597.2 453.34 605 446.2 617.17 446.2 631.32 446.2 647.05 446.2 659.48 447.52L658.56 462.46 623.52 462.46C619.16 462.46 617.31 464.44 617.31 469.2L617.31 483.09 653.67 483.09 653.67 497.63 617.31 497.63 617.31 515.21C617.31 520.1 619.16 522.08 623.52 522.08L658.56 522.08 659.48 536.89Z" fill="#000508"/><path d="M745.26 535.7C736.8 538.35 729.13 539.4 716.04 539.4 687.88 539.4 677.7 526.97 677.7 492.2 677.7 457.43 687.88 445 716.04 445 728.86 445 735.08 445.92 743.41 448.04L741.69 463.11C733.09 462.58 727.54 462.45 716.04 462.45 702.82 462.45 698.85 469.19 698.85 492.2 698.85 515.21 702.81 521.94 716.04 521.94 728.2 521.94 735.47 521.81 743.54 520.75L745.26 535.69Z" fill="#000508"/><path d="M838.81 537.82 818.72 537.82 818.72 497.09 786.46 497.09 786.46 537.82 766.36 537.82 766.36 446.59 786.46 446.59 786.46 481.5 818.72 481.5 818.72 446.59 838.81 446.59 838.81 537.82Z" fill="#000508"/><path d="M942.07 530.54C942.07 535.3 939.69 537.81 934.93 537.81L922.37 537.81C918.14 537.81 916.29 535.82 914.31 531.86L890.38 483.21C888.53 479.24 885.89 473.56 884.83 469.06L883.37 469.06C884.03 473.82 884.29 478.84 884.29 483.61L884.29 537.81 865.12 537.81 865.12 453.86C865.12 449.1 867.63 446.59 872.39 446.59L884.69 446.59C888.92 446.59 890.77 448.58 892.75 452.54L915.88 499.74C917.87 503.7 920.38 509.26 922.49 514.41L923.81 514.41C923.41 509.25 923.02 504.23 923.02 499.07L923.02 446.58 942.06 446.58 942.06 530.53Z" fill="#000508"/><path d="M1043.92 492.2C1043.92 528.82 1033.61 539.53 1004.78 539.53 975.95 539.53 965.78 528.82 965.78 492.2 965.78 455.58 975.96 444.87 1004.78 444.87 1033.6 444.87 1043.92 455.58 1043.92 492.2M986.94 492.2C986.94 516.39 991.04 523.27 1004.78 523.27 1018.52 523.27 1022.63 516.4 1022.63 492.2 1022.63 468 1018.53 461.13 1004.78 461.13 991.03 461.13 986.94 468 986.94 492.2" fill="#000508"/><path d="M1087.33 514.68C1087.33 519.44 1089.31 521.42 1094.47 521.42L1125.8 521.42 1126.73 536.76C1114.56 538.08 1101.08 538.21 1088.12 538.21 1073.45 538.21 1067.23 530.02 1067.23 518.78L1067.23 446.59 1087.32 446.59 1087.32 514.68Z" fill="#000508"/><path d="M1221.42 492.2C1221.42 528.82 1211.11 539.53 1182.29 539.53 1153.47 539.53 1143.29 528.82 1143.29 492.2 1143.29 455.58 1153.47 444.87 1182.29 444.87 1211.11 444.87 1221.42 455.58 1221.42 492.2M1164.44 492.2C1164.44 516.39 1168.54 523.27 1182.29 523.27 1196.04 523.27 1200.14 516.4 1200.14 492.2 1200.14 468 1196.04 461.13 1182.29 461.13 1168.54 461.13 1164.44 468 1164.44 492.2" fill="#000508"/><path d="M1314.34 537.82 1299.53 537.82 1297.68 528.69C1292.92 533.58 1283.93 539.53 1271.37 539.53 1250.88 539.53 1242.28 525.39 1242.28 491.94 1242.28 455.85 1253.12 444.87 1283.13 444.87 1293.84 444.87 1302.56 445.67 1311.16 448.04L1309.57 462.85C1300.58 462.46 1291.72 462.19 1283.79 462.19 1268.59 462.19 1263.56 466.16 1263.56 492.6 1263.56 515.34 1267.13 522.35 1278.5 522.35 1284.98 522.35 1290.26 520.24 1294.89 517.72L1294.89 485.2 1314.32 485.2 1314.32 537.82Z" fill="#000508"/><path d="M1381.27 537.82 1361.04 537.82 1361.04 507.68 1330.9 446.6 1351.92 446.6 1367.12 480.05C1368.7 483.62 1369.63 487.85 1370.55 491.55L1371.88 491.55C1372.67 487.85 1373.73 483.62 1375.18 480.05L1390.38 446.6 1411.14 446.6 1381.26 507.68 1381.26 537.82Z" fill="#000508"/><path d="M1538.08 537.82 1523.27 537.82 1521.42 528.69C1516.66 533.58 1507.67 539.53 1495.11 539.53 1474.62 539.53 1466.03 525.39 1466.03 491.94 1466.03 455.85 1476.87 444.87 1506.88 444.87 1517.59 444.87 1526.32 445.67 1534.91 448.04L1533.32 462.85C1524.33 462.46 1515.47 462.19 1507.54 462.19 1492.34 462.19 1487.31 466.16 1487.31 492.6 1487.31 515.34 1490.88 522.35 1502.25 522.35 1508.73 522.35 1514.02 520.24 1518.64 517.72L1518.64 485.2 1538.07 485.2 1538.07 537.82Z" fill="#000508"/><path d="M1613.53 537.82 1606.66 509.92C1604.94 504.1 1602.29 502.25 1596.88 502.25L1582.73 502.12 1582.73 537.82 1562.9 537.82 1562.9 446.59C1573.87 445.54 1581.28 445.4 1597.67 445.4 1621.47 445.4 1631.38 451.48 1631.38 472.37 1631.38 485.19 1626.89 493.39 1613.93 494.98L1613.93 495.64C1618.56 496.69 1624.77 500 1626.89 509.39L1634.82 537.82 1613.54 537.82ZM1597.26 486.65C1607.84 486.65 1611.01 483.74 1611.01 473.69 1611.01 463.64 1607.83 460.87 1597.26 460.87L1582.72 461 1582.72 486.65 1597.26 486.65Z" fill="#000508"/><path d="M1730.58 492.2C1730.58 528.82 1720.27 539.53 1691.45 539.53 1662.63 539.53 1652.45 528.82 1652.45 492.2 1652.45 455.58 1662.63 444.87 1691.45 444.87 1720.27 444.87 1730.58 455.58 1730.58 492.2M1673.6 492.2C1673.6 516.39 1677.7 523.27 1691.45 523.27 1705.2 523.27 1709.3 516.4 1709.3 492.2 1709.3 468 1705.2 461.13 1691.45 461.13 1677.7 461.13 1673.6 468 1673.6 492.2" fill="#000508"/><path d="M1826.28 501.46C1826.28 529.36 1816.76 539.54 1790.72 539.54 1763.22 539.54 1753.31 529.36 1753.31 501.46L1753.31 446.59 1773.4 446.59 1773.4 501.46C1773.4 518.25 1777.37 523.27 1789.8 523.27 1802.23 523.27 1806.06 518.25 1806.06 501.46L1806.06 446.59 1826.29 446.59 1826.29 501.46Z" fill="#000508"/><path d="M1852.05 446.59C1863.02 445.54 1870.29 445.4 1886.69 445.4 1911.94 445.4 1920.01 451.88 1920.01 475.15 1920.01 498.42 1911.95 505.03 1889.34 505.03 1883.39 505.03 1877.44 504.64 1872.15 503.97L1872.15 537.82 1852.06 537.82 1852.06 446.59ZM1886.29 489.56C1896.61 489.43 1899.77 486.52 1899.77 475.15 1899.77 463.78 1896.6 460.87 1886.29 460.87L1872.15 461 1872.15 489.56 1886.29 489.56Z" fill="#000508"/><rect x="1412.65" y="0" width="121.67" height="86.36" fill="#000508"/><rect x="342.03" y="445.86" width="119.26" height="91.95" fill="#000508"/></g></g></svg>