<svg width="24" height="24" viewBox="0 -960 960 960" xmlns="http://www.w3.org/2000/svg" xmlns:xlink="http://www.w3.org/1999/xlink" fill="#1F1F1F" overflow="hidden"><path d="M600-120 600-240 440-240 440-640 360-640 360-520 80-520 80-840 360-840 360-720 600-720 600-840 880-840 880-520 600-520 600-640 520-640 520-320 600-320 600-440 880-440 880-120 600-120ZM160-760 160-600 160-760ZM680-360 680-200 680-360ZM680-760 680-600 680-760ZM680-600 800-600 800-760 680-760 680-600ZM680-200 800-200 800-360 680-360 680-200ZM160-600 280-600 280-760 160-760 160-600Z"/></svg>