<svg width="24" height="24" viewBox="0 -960 960 960" xmlns="http://www.w3.org/2000/svg" xmlns:xlink="http://www.w3.org/1999/xlink" fill="#1F1F1F" overflow="hidden"><style>
.MsftOfcThm_Background1_Fill_v2 {
 fill:#FFFFFF; 
}
</style>
<path d="M120-120 120-200 200-280 200-120 120-120ZM280-120 280-360 360-440 360-120 280-120ZM440-120 440-440 520-359 520-120 440-120ZM600-120 600-359 680-439 680-120 600-120ZM760-120 760-520 840-600 840-120 760-120ZM120-327 120-440 400-720 560-560 840-840 840-727 560-447 400-607 120-327Z" class="MsftOfcThm_Background1_Fill_v2" fill="#FFFFFF"/></svg>