<svg width="24" height="24" viewBox="0 -960 960 960" xmlns="http://www.w3.org/2000/svg" xmlns:xlink="http://www.w3.org/1999/xlink" fill="#1F1F1F" overflow="hidden"><style>
.MsftOfcThm_Background1_Fill_v2 {
 fill:#FFFFFF; 
}
</style>
<path d="M240-40 120-40C98-40 79.1667-47.8333 63.5-63.5 47.8333-79.1667 40-98 40-120L40-240 120-240 120-120 240-120 240-40ZM720-40 720-120 840-120 840-240 920-240 920-120C920-98 912.167-79.1667 896.5-63.5 880.833-47.8333 862-40 840-40L720-40ZM480-220C400-220 327.5-243.667 262.5-291 197.5-338.333 150-401.333 120-480 150-558.667 197.5-621.667 262.5-669 327.5-716.333 400-740 480-740 560-740 632.5-716.333 697.5-669 762.5-621.667 810-558.667 840-480 810-401.333 762.5-338.333 697.5-291 632.5-243.667 560-220 480-220ZM480-300C538.667-300 592.333-316 641-348 689.667-380 727-424 753-480 727-536 689.667-580 641-612 592.333-644 538.667-660 480-660 421.333-660 367.667-644 319-612 270.333-580 233-536 207-480 233-424 270.333-380 319-348 367.667-316 421.333-300 480-300ZM480-340C518.667-340 551.667-353.667 579-381 606.333-408.333 620-441.333 620-480 620-518.667 606.333-551.667 579-579 551.667-606.333 518.667-620 480-620 441.333-620 408.333-606.333 381-579 353.667-551.667 340-518.667 340-480 340-441.333 353.667-408.333 381-381 408.333-353.667 441.333-340 480-340ZM480-420C463.333-420 449.167-425.833 437.5-437.5 425.833-449.167 420-463.333 420-480 420-496.667 425.833-510.833 437.5-522.5 449.167-534.167 463.333-540 480-540 496.667-540 510.833-534.167 522.5-522.5 534.167-510.833 540-496.667 540-480 540-463.333 534.167-449.167 522.5-437.5 510.833-425.833 496.667-420 480-420ZM40-720 40-840C40-862 47.8333-880.833 63.5-896.5 79.1667-912.167 98-920 120-920L240-920 240-840 120-840 120-720 40-720ZM840-720 840-840 720-840 720-920 840-920C862-920 880.833-912.167 896.5-896.5 912.167-880.833 920-862 920-840L920-720 840-720Z" class="MsftOfcThm_Background1_Fill_v2" fill="#FFFFFF"/></svg>