<svg width="24" height="24" viewBox="0 -960 960 960" xmlns="http://www.w3.org/2000/svg" xmlns:xlink="http://www.w3.org/1999/xlink" fill="#1F1F1F" overflow="hidden"><path d="M120-120C114.667-120 109.5-121.167 104.5-123.5 99.5-125.833 95.3333-128.667 92-132 84-139.333 80-148.5 80-159.5 80-170.5 83.6667-180 91-188 103.667-201.333 118.833-209.333 136.5-212 154.167-214.667 172-214.333 190-211 195.333-209.667 200.333-208.333 205-207 209.667-205.667 213.667-206.667 217-210 221-214 222.5-219 221.5-225 220.5-231 219.333-236.667 218-242 215.333-260 215-277.833 217-295.5 219-313.167 226.333-328.667 239-342 251.667-355.333 266.833-363.333 284.5-366 302.167-368.667 320-368.333 338-365 343.333-363.667 348.5-362.333 353.5-361 358.5-359.667 362.667-360.667 366-364 370-368 371.333-373 370-379 368.667-385 367.333-390.667 366-396 363.333-414 363-431.833 365-449.5 367-467.167 374.333-482.667 387-496 399.667-509.333 414.833-517.333 432.5-520 450.167-522.667 468-522.333 486-519 491.333-517.667 496.5-516.333 501.5-515 506.5-513.667 510.667-514.667 514-518 518-522 519.333-527 518-533 516.667-539 515.333-544.667 514-550 511.333-568 511.167-585.833 513.5-603.5 515.833-621.167 523.333-636.667 536-650 548.667-663.333 563.833-671.333 581.5-674 599.167-676.667 617-676.333 635-673 640.333-671.667 645.5-670.333 650.5-669 655.5-667.667 659.667-668.667 663-672 667-676 668.333-681 667-687 665.667-693 664.333-698.667 663-704 660.333-722 660.167-739.833 662.5-757.5 664.833-775.167 672.333-790.667 685-804 697.667-817.333 712.833-825.333 730.5-828 748.167-830.667 766-830.333 784-827 789.333-825.667 794.5-824.5 799.5-823.5 804.5-822.5 808.667-823.667 812-827 819.333-835 828.5-839 839.5-839 850.5-839 860-835.333 868-828 876-820.667 880-811.5 880-800.5 880-789.5 876.333-780 869-772 856.333-758.667 841.167-750.5 823.5-747.5 805.833-744.5 788-744.667 770-748 764.667-749.333 759.5-750.667 754.5-752 749.5-753.333 745.333-752.333 742-749 738-745 736.667-740 738-734 739.333-728 740.667-722.333 742-717 744.667-699 744.833-681.167 742.5-663.5 740.167-645.833 732.667-630.333 720-617 707.333-603.667 692.167-595.667 674.5-593 656.833-590.333 639-590.667 621-594 615.667-595.333 610.667-596.667 606-598 601.333-599.333 597.333-598.333 594-595 590-591 588.5-586 589.5-580 590.5-574 591.667-568.333 593-563 595.667-545 596-527.167 594-509.5 592-491.833 584.667-476.333 572-463 559.333-450.333 544.167-442.5 526.5-439.5 508.833-436.5 491-436.667 473-440 467.667-441.333 462.667-442.5 458-443.5 453.333-444.5 449.333-443.333 446-440 442-436 440.5-431.167 441.5-425.5 442.5-419.833 443.667-414.333 445-409 447.667-391 448-373.167 446-355.5 444-337.833 436.667-322.333 424-309 411.333-295.667 396-287.667 378-285 360-282.333 342-282.667 324-286 318.667-287.333 313.667-288.5 309-289.5 304.333-290.5 300.333-289.333 297-286 293-282 291.667-277.167 293-271.5 294.333-265.833 295.667-260.333 297-255 299.667-237 299.833-219.167 297.5-201.5 295.167-183.833 287.667-168.333 275-155 262.333-141.667 247.167-133.667 229.5-131 211.833-128.333 194-128.667 176-132 170.667-133.333 165.667-134.5 161-135.5 156.333-136.5 152.333-135.333 149-132 145-128 140.5-125 135.5-123 130.5-121 125.333-120 120-120ZM240-520C184.667-520 137.5-539.5 98.5-578.5 59.5-617.5 40-664.667 40-720 40-776 59.5-823.333 98.5-862 137.5-900.667 184.667-920 240-920 296-920 343.333-900.667 382-862 420.667-823.333 440-776 440-720 440-664.667 420.667-617.5 382-578.5 343.333-539.5 296-520 240-520ZM240-600C274-600 302.5-611.667 325.5-635 348.5-658.333 360-686.667 360-720 360-754 348.5-782.5 325.5-805.5 302.5-828.5 274-840 240-840 206.667-840 178.333-828.5 155-805.5 131.667-782.5 120-754 120-720 120-686.667 131.667-658.333 155-635 178.333-611.667 206.667-600 240-600ZM640-40C618-40 599.167-47.8333 583.5-63.5 567.833-79.1667 560-98 560-120L560-320C560-342 567.833-360.833 583.5-376.5 599.167-392.167 618-400 640-400L840-400C862-400 880.833-392.167 896.5-376.5 912.167-360.833 920-342 920-320L920-120C920-98 912.167-79.1667 896.5-63.5 880.833-47.8333 862-40 840-40L640-40ZM640-120 840-120 840-320 640-320 640-120Z"/></svg>