<svg width="24" height="24" viewBox="0 -960 960 960" xmlns="http://www.w3.org/2000/svg" xmlns:xlink="http://www.w3.org/1999/xlink" fill="#1F1F1F" overflow="hidden"><path d="M320-120 320-160 400-240 160-240C138-240 119.167-247.833 103.5-263.5 87.8333-279.167 80-298 80-320L80-760C80-782 87.8333-800.833 103.5-816.5 119.167-832.167 138-840 160-840L800-840C822-840 840.833-832.167 856.5-816.5 872.167-800.833 880-782 880-760L880-320C880-298 872.167-279.167 856.5-263.5 840.833-247.833 822-240 800-240L560-240 640-160 640-120 320-120ZM160-440 800-440 800-760 160-760 160-440ZM160-440 160-760 160-440Z"/></svg>