<svg viewBox="0 0 295.97 149.82" xmlns="http://www.w3.org/2000/svg" xmlns:xlink="http://www.w3.org/1999/xlink" id="Layer_2" overflow="hidden"><defs/><g id="Layer_1-2"><g><path d="M133.7 139.65 133.7 132.65 123.53 132.65C122.73 132.65 121.94 132.62 121.16 132.55 120.37 132.47 119.62 132.31 118.89 132.08 118.17 131.83 117.56 131.48 117.05 131.01 116.15 130.18 115.63 129.23 115.48 128.14 115.34 127.06 115.26 125.96 115.23 124.82 115.18 124.42 115.14 124.03 115.13 123.65 115.11 123.25 115.11 122.86 115.11 122.48L115.11 100.4 106.81 100.4 106.81 122.48C106.81 123.53 106.82 124.62 106.86 125.77 106.91 126.9 107.02 128.01 107.18 129.09 107.36 130.17 107.64 131.23 108.03 132.28 108.43 133.31 108.98 134.26 109.7 135.12 110.45 136.07 111.28 136.84 112.22 137.44 113.17 138.03 114.16 138.48 115.21 138.81 116.27 139.15 117.36 139.37 118.48 139.48 119.61 139.6 120.76 139.65 121.94 139.65L133.7 139.65Z"/><path d="M166.88 125.7C166.88 120.88 165.53 117.16 162.84 114.53 160.16 111.91 156.43 110.59 151.65 110.59 149.44 110.59 147.4 110.93 145.54 111.59 143.68 112.26 142.08 113.21 140.75 114.46 139.42 115.69 138.38 117.21 137.63 119.02 136.88 120.81 136.51 122.83 136.51 125.05 136.51 129.85 137.82 133.56 140.45 136.17 143.07 138.78 146.78 140.08 151.57 140.08 153.81 140.08 155.86 139.76 157.73 139.13 159.59 138.5 161.19 137.58 162.54 136.36 163.9 135.15 164.96 133.66 165.73 131.87 166.49 130.08 166.88 128.02 166.88 125.69ZM158.83 125.3C158.83 126.48 158.72 127.61 158.51 128.69 158.29 129.77 157.91 130.7 157.36 131.48 156.81 132.27 156.08 132.89 155.17 133.37 154.27 133.84 153.16 134.07 151.83 134.07 150.5 134.07 149.35 133.86 148.44 133.42 147.52 132.99 146.78 132.39 146.2 131.63 145.63 130.87 145.22 129.97 144.95 128.94 144.7 127.89 144.58 126.76 144.58 125.53 144.58 124.3 144.69 123.12 144.9 122.04 145.11 120.96 145.49 120.02 146.02 119.22 146.55 118.41 147.27 117.77 148.19 117.3 149.12 116.82 150.29 116.58 151.7 116.58 153.03 116.58 154.15 116.82 155.06 117.28 155.99 117.73 156.73 118.35 157.28 119.12 157.83 119.91 158.21 120.83 158.45 121.89 158.7 122.96 158.82 124.1 158.82 125.3Z"/><path d="M200.19 139.43 200.19 110.99 185.48 110.99C183.72 110.99 182.09 111.15 180.59 111.46 179.09 111.78 177.62 112.44 176.18 113.45 174.22 114.83 172.85 116.58 172.09 118.71 171.32 120.82 170.94 123.02 170.94 125.29 170.94 127.37 171.26 129.39 171.91 131.35 172.56 133.31 173.66 135.03 175.23 136.48 176.69 137.81 178.21 138.67 179.79 139.07 181.39 139.46 183.14 139.64 185.07 139.64L192.3 139.64C192.3 140.5 192.24 141.2 192.13 141.73 192.01 142.26 191.79 142.66 191.48 142.95 191.16 143.25 190.73 143.45 190.18 143.55 189.63 143.65 188.92 143.7 188.06 143.7L173.48 143.7 173.48 149.81 189.13 149.81C190.78 149.81 192.23 149.69 193.49 149.46 194.77 149.22 195.85 148.79 196.73 148.16 197.61 147.54 198.33 146.68 198.87 145.57 199.43 144.47 199.8 143.04 199.99 141.28 200.04 140.96 200.08 140.64 200.11 140.33 200.14 140.01 200.16 139.71 200.16 139.41ZM192.31 133.52 186.18 133.52C183.64 133.52 181.79 132.78 180.65 131.3 179.52 129.8 178.96 127.85 178.96 125.42 178.96 124.24 179.07 123.15 179.28 122.13 179.49 121.1 179.87 120.23 180.4 119.51 180.93 118.78 181.63 118.2 182.52 117.77 183.4 117.34 184.49 117.12 185.79 117.12L192.32 117.12 192.32 133.52Z"/><path d="M215.85 108.05 215.85 100.4 207.97 100.4 207.97 108.05 215.85 108.05ZM215.85 139.65 215.85 110.99 207.97 110.99 207.97 139.65 215.85 139.65Z"/><path d="M249.74 130.58C249.74 129.1 249.47 127.85 248.94 126.82 248.4 125.77 247.69 124.93 246.8 124.28 245.91 123.63 244.86 123.16 243.66 122.86 242.46 122.56 241.19 122.41 239.85 122.41L235.21 122.41C234.69 122.41 234.13 122.41 233.52 122.39 232.92 122.38 232.36 122.29 231.85 122.14 231.35 121.98 230.93 121.71 230.6 121.34 230.26 120.96 230.1 120.39 230.1 119.65 230.1 118.52 230.41 117.83 231.05 117.58 231.7 117.32 232.48 117.18 233.39 117.18 233.59 117.18 233.77 117.18 233.94 117.16 234.12 117.15 234.31 117.14 234.51 117.14L248.44 117.14 248.44 111.01 231.62 111.01C230.01 111.01 228.58 111.15 227.33 111.43 226.1 111.7 224.96 112.48 223.92 113.77 222.62 115.38 221.98 117.25 221.98 119.35 221.98 121.19 222.43 122.88 223.33 124.38 224.23 125.89 225.56 126.98 227.34 127.65 228 127.9 228.77 128.07 229.63 128.17 230.49 128.26 231.38 128.31 232.3 128.34 233.23 128.36 234.12 128.36 234.97 128.34 235.83 128.31 236.6 128.29 237.29 128.29 237.84 128.29 238.39 128.31 238.96 128.34 239.52 128.36 240.04 128.45 240.51 128.61 240.99 128.76 241.37 129.03 241.66 129.43 241.96 129.82 242.11 130.38 242.11 131.12 242.11 132.14 241.8 132.76 241.19 132.99 240.59 133.23 239.86 133.38 239 133.46 238.56 133.5 238.13 133.51 237.7 133.51L222.47 133.51 222.47 139.64 238.7 139.64C239.53 139.64 240.38 139.64 241.27 139.62 242.15 139.61 243 139.5 243.84 139.3 244.82 139.1 245.67 138.71 246.38 138.13 247.11 137.53 247.73 136.83 248.22 136.04 248.73 135.23 249.12 134.36 249.37 133.42 249.63 132.47 249.77 131.53 249.77 130.58Z"/><path d="M295.36 143.05 295.36 136.05 288.66 136.05C289.21 135.39 289.69 134.74 290.13 134.11 290.56 133.48 290.95 132.78 291.3 131.99 291.9 130.69 292.33 129.24 292.62 127.63 292.92 126.02 293.07 124.51 293.07 123.09 293.07 121.21 292.83 119.19 292.35 117.01 291.88 114.84 291.2 112.92 290.31 111.28 289.52 109.82 288.5 108.59 287.24 107.59 285.99 106.59 284.62 105.81 283.13 105.22 281.63 104.62 280.07 104.2 278.44 103.95 276.81 103.69 275.21 103.55 273.65 103.55 266.93 103.55 262.02 105.24 258.92 108.61 255.83 111.99 254.28 116.97 254.28 123.57 254.28 125.03 254.37 126.5 254.55 127.98 254.75 129.44 255.09 130.87 255.57 132.27 256.07 133.65 256.72 134.96 257.51 136.18 258.32 137.4 259.34 138.47 260.55 139.42 262.48 140.9 264.63 141.88 267.01 142.36 269.38 142.83 271.75 143.06 274.11 143.06L295.35 143.06ZM283.82 123.04C283.82 124.8 283.7 126.5 283.45 128.12 283.2 129.75 282.7 131.19 281.95 132.43 281.2 133.66 280.18 134.64 278.88 135.37 277.58 136.09 275.9 136.44 273.82 136.44 271.74 136.44 270.03 136.09 268.69 135.39 267.36 134.68 266.31 133.72 265.55 132.52 264.78 131.32 264.25 129.93 263.95 128.33 263.65 126.72 263.5 124.99 263.5 123.15 263.5 121.31 263.65 119.65 263.95 118.09 264.25 116.51 264.78 115.14 265.55 113.95 266.31 112.77 267.35 111.84 268.67 111.16 269.98 110.48 271.66 110.14 273.7 110.14 275.63 110.14 277.25 110.5 278.56 111.21 279.87 111.91 280.91 112.85 281.68 114.03 282.44 115.2 282.99 116.57 283.33 118.14 283.66 119.7 283.83 121.33 283.83 123.03Z" fill="#00629B"/><g><path d="M54.28 75.56C63.53 75.56 71.37 71.42 74.2 65.68L99.69 65.68C99.13 78.31 86.76 88.4 71.56 88.4 71.05 88.4 70.55 88.39 70.05 88.37L70.05 88.41 0.6 88.41 0.6 65.69 34.37 65.69C37.2 71.43 45.04 75.57 54.3 75.57L54.3 75.57Z" stroke="#000000" stroke-width="1.2" stroke-miterlimit="10" fill="#00629B"/><path d="M54.28 13.44C63.53 13.44 71.37 17.58 74.2 23.32L99.69 23.32C99.13 10.7 86.76 0.6 71.56 0.6 71.05 0.6 70.55 0.61 70.05 0.63L70.05 0.6 0.6 0.6 0.6 23.32 34.37 23.32C37.2 17.58 45.04 13.44 54.3 13.44L54.3 13.44Z" stroke="#000000" stroke-width="1.2" stroke-miterlimit="10" fill="#00629B"/><path d="M99.7 33.33 74.21 33.33C71.38 38.57 63.54 42.34 54.29 42.34 45.04 42.34 37.2 38.57 34.36 33.33L0.6 33.33 0.6 56.64 34.37 56.64C37.2 50.89 45.04 46.76 54.3 46.76 63.56 46.76 71.39 50.89 74.22 56.64L99.71 56.64C99.51 52.14 97.79 47.96 94.99 44.45 97.79 41.25 99.51 37.44 99.71 33.33" stroke="#000000" stroke-width="1.2" stroke-miterlimit="10" fill="#00629B"/><path d="M197.89 0.84 135.33 0.84 135.33 0.87C134.88 0.85 134.42 0.84 133.97 0.84 120.28 0.84 109.13 10.93 108.63 23.54L127.94 23.54C127.94 23.54 169.01 23.54 169.01 23.54L169.01 23.54C169.01 23.54 197.9 23.54 197.9 23.54L197.9 0.84Z" stroke="#000000" stroke-width="1.2" stroke-miterlimit="10" fill="#00629B"/><path d="M108.63 88.42 171.2 88.42 171.2 88.38C171.65 88.4 172.1 88.42 172.56 88.42 186.25 88.42 197.4 78.33 197.9 65.72L178.59 65.72 178.59 65.7 137.52 65.7 137.52 65.72 108.63 65.72 108.63 88.42Z" stroke="#000000" stroke-width="1.2" stroke-miterlimit="10" fill="#00629B"/><path d="M197.89 56.87C197.39 43.99 186.39 33.68 172.84 33.54L172.04 33.54C171.75 33.54 171.47 33.54 171.19 33.56L171.19 33.54 169 33.54C169 33.54 127.93 33.53 127.93 33.53L127.93 33.53C127.93 33.53 108.62 33.54 108.62 33.54 109.12 46.42 120.12 56.73 133.68 56.87L134.47 56.87C134.76 56.87 135.04 56.87 135.32 56.85L135.32 56.87 137.51 56.87C137.51 56.87 178.58 56.88 178.58 56.88L178.58 56.88C178.58 56.88 197.88 56.87 197.88 56.87Z" stroke="#000000" stroke-width="1.2" stroke-miterlimit="10" fill="#00629B"/><path d="M295.35 0.84 232.79 0.84 232.79 0.87C232.34 0.85 231.89 0.84 231.43 0.84 217.74 0.84 206.6 10.93 206.09 23.54L225.4 23.54C225.4 23.54 266.47 23.54 266.47 23.54L266.47 23.54C266.47 23.54 295.36 23.54 295.36 23.54L295.36 0.84Z" stroke="#000000" stroke-width="1.2" stroke-miterlimit="10" fill="#00629B"/><path d="M206.09 88.42 268.66 88.42 268.66 88.38C269.11 88.4 269.56 88.42 270.02 88.42 283.71 88.42 294.86 78.33 295.36 65.72L276.05 65.72 276.05 65.7 234.98 65.7 234.98 65.72 206.09 65.72 206.09 88.42Z" stroke="#000000" stroke-width="1.2" stroke-miterlimit="10" fill="#00629B"/><path d="M295.35 56.87C294.85 43.99 283.85 33.68 270.3 33.54L269.51 33.54C269.22 33.54 268.94 33.54 268.66 33.56L268.66 33.54 266.47 33.54C266.47 33.54 225.4 33.53 225.4 33.53L225.4 33.53C225.4 33.53 206.09 33.54 206.09 33.54 206.59 46.42 217.59 56.73 231.15 56.87L231.95 56.87C232.23 56.87 232.52 56.87 232.8 56.85L232.8 56.87 234.99 56.87C234.99 56.87 276.06 56.88 276.06 56.88L276.06 56.88C276.06 56.88 295.37 56.87 295.37 56.87L295.37 56.87Z" stroke="#000000" stroke-width="1.2" stroke-miterlimit="10" fill="#00629B"/></g></g></g></svg>