<svg width="24" height="24" viewBox="0 -960 960 960" xmlns="http://www.w3.org/2000/svg" xmlns:xlink="http://www.w3.org/1999/xlink" fill="#1F1F1F" overflow="hidden"><style>
.MsftOfcThm_Background1_Fill_v2 {
 fill:#FFFFFF; 
}
</style>
<path d="M240-40C206.667-40 178.333-51.6667 155-75 131.667-98.3333 120-126.667 120-160 120-193.333 131.667-221.667 155-245 178.333-268.333 206.667-280 240-280 249.333-280 258-279 266-277 274-275 281.667-272.333 289-269L346-340C327.333-360.667 314.333-384 307-410 299.667-436 298-462 302-488L221-515C209.667-498.333 195.333-485 178-475 160.667-465 141.333-460 120-460 86.6667-460 58.3333-471.667 35-495 11.6667-518.333 0-546.667 0-580 0-613.333 11.6667-641.667 35-665 58.3333-688.333 86.6667-700 120-700 153.333-700 181.667-688.333 205-665 228.333-641.667 240-613.333 240-580L240-572 321-544C334.333-568 352.167-588.333 374.5-605 396.833-621.667 422-632.333 450-637L450-724C424-731.333 402.5-745.5 385.5-766.5 368.5-787.5 360-812 360-840 360-873.333 371.667-901.667 395-925 418.333-948.333 446.667-960 480-960 513.333-960 541.667-948.333 565-925 588.333-901.667 600-873.333 600-840 600-812 591.333-787.5 574-766.5 556.667-745.5 535.333-731.333 510-724L510-637C538-632.333 563.167-621.667 585.5-605 607.833-588.333 625.667-568 639-544L720-572 720-580C720-613.333 731.667-641.667 755-665 778.333-688.333 806.667-700 840-700 873.333-700 901.667-688.333 925-665 948.333-641.667 960-613.333 960-580 960-546.667 948.333-518.333 925-495 901.667-471.667 873.333-460 840-460 818.667-460 799.167-465 781.5-475 763.833-485 749.667-498.333 739-515L658-488C662-462 660.333-436.167 653-410.5 645.667-384.833 632.667-361.333 614-340L671-270C678.333-273.333 686-275.833 694-277.5 702-279.167 710.667-280 720-280 753.333-280 781.667-268.333 805-245 828.333-221.667 840-193.333 840-160 840-126.667 828.333-98.3333 805-75 781.667-51.6667 753.333-40 720-40 686.667-40 658.333-51.6667 635-75 611.667-98.3333 600-126.667 600-160 600-173.333 602.167-186.167 606.5-198.5 610.833-210.833 616.667-222 624-232L567-303C539.667-287.667 510.5-280 479.5-280 448.5-280 419.333-287.667 392-303L336-232C343.333-222 349.167-210.833 353.5-198.5 357.833-186.167 360-173.333 360-160 360-126.667 348.333-98.3333 325-75 301.667-51.6667 273.333-40 240-40ZM120-540C131.333-540 140.833-543.833 148.5-551.5 156.167-559.167 160-568.667 160-580 160-591.333 156.167-600.833 148.5-608.5 140.833-616.167 131.333-620 120-620 108.667-620 99.1667-616.167 91.5-608.5 83.8333-600.833 80-591.333 80-580 80-568.667 83.8333-559.167 91.5-551.5 99.1667-543.833 108.667-540 120-540ZM240-120C251.333-120 260.833-123.833 268.5-131.5 276.167-139.167 280-148.667 280-160 280-171.333 276.167-180.833 268.5-188.5 260.833-196.167 251.333-200 240-200 228.667-200 219.167-196.167 211.5-188.5 203.833-180.833 200-171.333 200-160 200-148.667 203.833-139.167 211.5-131.5 219.167-123.833 228.667-120 240-120ZM480-800C491.333-800 500.833-803.833 508.5-811.5 516.167-819.167 520-828.667 520-840 520-851.333 516.167-860.833 508.5-868.5 500.833-876.167 491.333-880 480-880 468.667-880 459.167-876.167 451.5-868.5 443.833-860.833 440-851.333 440-840 440-828.667 443.833-819.167 451.5-811.5 459.167-803.833 468.667-800 480-800ZM480-360C508-360 531.667-369.667 551-389 570.333-408.333 580-432 580-460 580-488 570.333-511.667 551-531 531.667-550.333 508-560 480-560 452-560 428.333-550.333 409-531 389.667-511.667 380-488 380-460 380-432 389.667-408.333 409-389 428.333-369.667 452-360 480-360ZM720-120C731.333-120 740.833-123.833 748.5-131.5 756.167-139.167 760-148.667 760-160 760-171.333 756.167-180.833 748.5-188.5 740.833-196.167 731.333-200 720-200 708.667-200 699.167-196.167 691.5-188.5 683.833-180.833 680-171.333 680-160 680-148.667 683.833-139.167 691.5-131.5 699.167-123.833 708.667-120 720-120ZM840-540C851.333-540 860.833-543.833 868.5-551.5 876.167-559.167 880-568.667 880-580 880-591.333 876.167-600.833 868.5-608.5 860.833-616.167 851.333-620 840-620 828.667-620 819.167-616.167 811.5-608.5 803.833-600.833 800-591.333 800-580 800-568.667 803.833-559.167 811.5-551.5 819.167-543.833 828.667-540 840-540Z" class="MsftOfcThm_Background1_Fill_v2" fill="#FFFFFF"/></svg>