<svg width="24" height="24" viewBox="0 -960 960 960" xmlns="http://www.w3.org/2000/svg" xmlns:xlink="http://www.w3.org/1999/xlink" fill="#1F1F1F" overflow="hidden"><style>
.MsftOfcThm_Background1_Fill_v2 {
 fill:#FFFFFF; 
}
</style>
<path d="M280-280 364-280 604-518 518-604 280-366 280-280ZM632-546 674-590C678-594 680-598.667 680-604 680-609.333 678-614 674-618L618-674C614-678 609.333-680 604-680 598.667-680 594-678 590-674L546-632 632-546ZM200-120C178-120 159.167-127.833 143.5-143.5 127.833-159.167 120-178 120-200L120-760C120-782 127.833-800.833 143.5-816.5 159.167-832.167 178-840 200-840L368-840C376.667-864 391.167-883.333 411.5-898 431.833-912.667 454.667-920 480-920 505.333-920 528.167-912.667 548.5-898 568.833-883.333 583.333-864 592-840L760-840C782-840 800.833-832.167 816.5-816.5 832.167-800.833 840-782 840-760L840-200C840-178 832.167-159.167 816.5-143.5 800.833-127.833 782-120 760-120L200-120ZM200-200 760-200 760-760 200-760 200-200ZM480-790C488.667-790 495.833-792.833 501.5-798.5 507.167-804.167 510-811.333 510-820 510-828.667 507.167-835.833 501.5-841.5 495.833-847.167 488.667-850 480-850 471.333-850 464.167-847.167 458.5-841.5 452.833-835.833 450-828.667 450-820 450-811.333 452.833-804.167 458.5-798.5 464.167-792.833 471.333-790 480-790ZM200-200 200-760 200-200Z" class="MsftOfcThm_Background1_Fill_v2" stroke="none" stroke-width="1" stroke-linecap="butt" stroke-linejoin="miter" stroke-miterlimit="4" fill="#FFFFFF" fill-opacity="1"/></svg>