<svg width="24" height="24" viewBox="0 -960 960 960" xmlns="http://www.w3.org/2000/svg" xmlns:xlink="http://www.w3.org/1999/xlink" fill="#1F1F1F" overflow="hidden"><path d="M160-120C138-120 119.167-127.833 103.5-143.5 87.8333-159.167 80-178 80-200L80-760C80-782 87.8333-800.833 103.5-816.5 119.167-832.167 138-840 160-840L360-840C382-840 400.833-832.167 416.5-816.5 432.167-800.833 440-782 440-760L440-200C440-178 432.167-159.167 416.5-143.5 400.833-127.833 382-120 360-120L160-120ZM600-120C578-120 559.167-127.833 543.5-143.5 527.833-159.167 520-178 520-200L520-760C520-782 527.833-800.833 543.5-816.5 559.167-832.167 578-840 600-840L800-840C822-840 840.833-832.167 856.5-816.5 872.167-800.833 880-782 880-760L880-200C880-178 872.167-159.167 856.5-143.5 840.833-127.833 822-120 800-120L600-120ZM160-200 360-200 360-760 160-760 160-200ZM600-200 800-200 800-760 600-760 600-200ZM200-360 320-360 320-440 200-440 200-360ZM640-360 760-360 760-440 640-440 640-360ZM200-480 320-480 320-560 200-560 200-480ZM640-480 760-480 760-560 640-560 640-480ZM200-600 320-600 320-680 200-680 200-600ZM640-600 760-600 760-680 640-680 640-600ZM160-200 360-200 160-200ZM600-200 800-200 600-200Z"/></svg>