<svg viewBox="0 0 1515.55 364.45" xmlns="http://www.w3.org/2000/svg" xmlns:xlink="http://www.w3.org/1999/xlink" id="Layer_2" overflow="hidden"><defs/><g id="Layer_1-2"><path d="M0 162.31 0 268.03 117.21 320.89 234.42 268.03 234.42 162.31 117.21 109.44 0 162.31Z" fill="#00BBFF"/><path d="M262.26 0 189.47 32.83 189.47 98.49 262.26 131.32 335.06 98.49 335.06 32.83 262.26 0Z" fill="#262626"/><path d="M691.49 177.14 684.81 177.14C663.02 177.14 646.86 182.76 637.72 194.01L637.72 300.84 581.49 300.84 581.49 128.64 635.96 128.64 635.96 157.46C642.28 138.84 655.99 127.24 677.78 127.24 684.11 127.24 688.32 127.94 692.89 129.35L691.49 177.14Z" fill="#262626"/><path d="M844.35 135.67 838.73 175.73C829.94 171.86 816.59 168.7 803.94 168.7 774.07 168.7 758.96 186.27 758.96 214.74 758.96 243.21 774.07 260.78 803.94 260.78 816.59 260.78 829.95 257.62 838.73 253.75L844.35 293.81C831.7 300.13 813.43 304.35 795.85 304.35 737.51 304.35 702.72 268.15 702.72 214.74 702.72 161.33 737.51 125.13 795.85 125.13 813.42 125.13 831.69 129.35 844.35 135.67" fill="#262626"/><path d="M953.99 304.36C894.6 304.36 862.27 265.35 862.27 214.75 862.27 164.15 894.6 125.14 953.99 125.14 1013.38 125.14 1045.71 164.15 1045.71 214.75 1045.71 265.35 1013.38 304.36 953.99 304.36M953.99 166.6C926.58 166.6 918.5 190.5 918.5 214.75 918.5 239 926.58 262.9 953.99 262.9 981.4 262.9 989.48 239 989.48 214.75 989.48 190.5 981.4 166.6 953.99 166.6" fill="#262626"/><path d="M1075.93 300.84 1075.93 128.64 1130.05 128.64 1130.05 151.13C1140.95 132.5 1159.22 125.12 1178.2 125.12 1223.89 125.12 1241.11 166.24 1241.11 211.92L1241.11 300.83 1184.88 300.83 1184.88 210.86C1184.88 182.39 1176.09 169.39 1157.82 169.39 1146.22 169.39 1137.44 175.36 1132.16 182.74L1132.16 300.82 1075.93 300.82Z" fill="#262626"/><path d="M1397.83 304.36C1396.07 304.71 1394.32 305.06 1391.15 305.06 1315.24 305.06 1271.66 250.24 1271.66 183.82 1271.66 117.4 1315.24 62.58 1391.15 62.58 1467.06 62.58 1510.64 117.4 1510.64 183.82 1510.64 226.69 1492.37 264.65 1459.33 286.08L1515.56 323.33 1488.5 364.45 1397.83 304.36ZM1453 183.82C1453 139.54 1431.91 108.26 1391.15 108.26 1350.39 108.26 1329.3 139.54 1329.3 183.82 1329.3 228.1 1350.38 259.38 1391.15 259.38 1431.92 259.38 1453 228.1 1453 183.82" fill="#00BBFF"/><path d="M482.05 255.51 392.44 255.51 378.03 300.84 318.64 300.84 405.8 66.79 469.06 66.79 556.21 300.84 496.82 300.84 482.06 255.51ZM407.19 209.82 467.29 209.82 437.42 111.07 407.2 209.82Z" fill="#262626"/></g></svg>