<svg width="24" height="24" viewBox="0 -960 960 960" xmlns="http://www.w3.org/2000/svg" xmlns:xlink="http://www.w3.org/1999/xlink" fill="#1F1F1F" overflow="hidden"><path d="M80-80 80-561 360-680 360-600 560-680 560-560 880-560 880-80 80-80ZM160-160 800-160 800-480 480-480 480-562 280-482 280-560 160-507 160-160ZM440-240 520-240 520-400 440-400 440-240ZM280-240 360-240 360-400 280-400 280-240ZM600-240 680-240 680-400 600-400 600-240ZM880-560 680-560 720-880 840-880 880-560ZM160-160 800-160 160-160Z"/></svg>