<svg viewBox="0 0 339.03 572.48" xmlns="http://www.w3.org/2000/svg" xmlns:xlink="http://www.w3.org/1999/xlink" id="Layer_2" overflow="hidden"><defs/><g id="Layer_1-2"><path d="M313.33 504.6 313.33 469.86 157.92 469.86 157.92 338.02 267.44 338.02 267.44 298.02 157.92 298.02 157.92 40 224.61 40 224.61 0 39.02 0 39.02 40 107.92 40 107.92 469.86 34.51 469.86 34.51 503.46 34.51 503.46C15.48 503.46 0 518.94 0 537.97 0 557 15.48 572.48 34.51 572.48 53.54 572.48 69.02 557 69.02 537.97 69.02 535.18 68.68 532.46 68.05 529.86L270.98 529.86C270.35 532.46 270.01 535.18 270.01 537.97 270.01 557 285.49 572.48 304.52 572.48 323.55 572.48 339.03 557 339.03 537.97 339.03 521.98 328.1 508.51 313.33 504.6Z" stroke="none" stroke-width="1" stroke-linecap="butt" stroke-linejoin="miter" stroke-miterlimit="4" fill="#3997CA" fill-opacity="1"/></g></svg>