<svg width="24" height="24" viewBox="0 -960 960 960" xmlns="http://www.w3.org/2000/svg" xmlns:xlink="http://www.w3.org/1999/xlink" fill="#1F1F1F" overflow="hidden"><path d="M240-160C206.667-160 178.333-171.667 155-195 131.667-218.333 120-246.667 120-280L40-280 40-720C40-742 47.8333-760.833 63.5-776.5 79.1667-792.167 98-800 120-800L680-800 680-640 800-640 920-480 920-280 840-280C840-246.667 828.333-218.333 805-195 781.667-171.667 753.333-160 720-160 686.667-160 658.333-171.667 635-195 611.667-218.333 600-246.667 600-280L360-280C360-246.667 348.333-218.333 325-195 301.667-171.667 273.333-160 240-160ZM240-240C251.333-240 260.833-243.833 268.5-251.5 276.167-259.167 280-268.667 280-280 280-291.333 276.167-300.833 268.5-308.5 260.833-316.167 251.333-320 240-320 228.667-320 219.167-316.167 211.5-308.5 203.833-300.833 200-291.333 200-280 200-268.667 203.833-259.167 211.5-251.5 219.167-243.833 228.667-240 240-240ZM120-360 152-360C163.333-372 176.333-381.667 191-389 205.667-396.333 222-400 240-400 258-400 274.333-396.333 289-389 303.667-381.667 316.667-372 328-360L600-360 600-720 120-720 120-360ZM720-240C731.333-240 740.833-243.833 748.5-251.5 756.167-259.167 760-268.667 760-280 760-291.333 756.167-300.833 748.5-308.5 740.833-316.167 731.333-320 720-320 708.667-320 699.167-316.167 691.5-308.5 683.833-300.833 680-291.333 680-280 680-268.667 683.833-259.167 691.5-251.5 699.167-243.833 708.667-240 720-240ZM680-440 850-440 760-560 680-560 680-440Z" stroke="none" stroke-width="1" stroke-linecap="butt" stroke-linejoin="miter" stroke-miterlimit="4" fill="#3997CA" fill-opacity="1"/></svg>