<svg width="24" height="24" viewBox="0 -960 960 960" xmlns="http://www.w3.org/2000/svg" xmlns:xlink="http://www.w3.org/1999/xlink" fill="#1F1F1F" overflow="hidden"><path d="M40-80 40-440 280-440 280-80 40-80ZM360-80 360-440 600-440 600-80 360-80ZM680-80 680-440 920-440 920-80 680-80ZM440-160 520-160 520-360 440-360 440-160ZM40-520 40-880 280-880 280-520 40-520ZM360-520 360-880 600-880 600-520 360-520ZM680-520 680-880 920-880 920-520 680-520ZM120-600 200-600 200-800 120-800 120-600ZM760-600 840-600 840-800 760-800 760-600Z" stroke="none" stroke-width="1" stroke-linecap="butt" stroke-linejoin="miter" stroke-miterlimit="4" fill="#3997CA" fill-opacity="1"/></svg>