<svg width="24" height="24" viewBox="0 -960 960 960" xmlns="http://www.w3.org/2000/svg" xmlns:xlink="http://www.w3.org/1999/xlink" fill="#1F1F1F" overflow="hidden"><path d="M200-120 200-526 88-440 40-504 480-840 920-504 872-440 760-526 760-120 680-120 680-520 280-520 280-120 200-120ZM320-160 320-240 640-240 640-160 320-160ZM320-280 320-360 640-360 640-280 320-280ZM320-400 320-480 640-480 640-400 320-400ZM297-600 663-600 480-739 297-600Z" stroke="none" stroke-width="1" stroke-linecap="butt" stroke-linejoin="miter" stroke-miterlimit="4" fill="#3997CA" fill-opacity="1"/></svg>