<svg viewBox="0 0 1298.68 316.67" xmlns="http://www.w3.org/2000/svg" xmlns:xlink="http://www.w3.org/1999/xlink" id="Layer_2" overflow="hidden"><defs/><g id="Layer_1-2"><path d="M421.2 71.64 389.87 194.51 358.18 71.64 299.74 71.64 362.06 248.37 339.52 316.67 396.2 316.67 477.88 71.64 421.2 71.64Z" fill="#262626"/><path d="M616.76 120.22 610.07 120.22C588.24 120.22 572.05 125.85 562.9 137.12L562.9 244.14 506.57 244.14 506.57 71.64 561.14 71.64 561.14 100.51C567.48 81.85 581.21 70.23 603.03 70.23 609.37 70.23 613.59 70.93 618.17 72.34L616.76 120.22Z" fill="#262626"/><path d="M728.02 247.67C668.52 247.67 636.14 208.59 636.14 157.9 636.14 107.21 668.53 68.13 728.02 68.13 787.51 68.13 819.9 107.21 819.9 157.9 819.9 208.59 787.51 247.67 728.02 247.67M728.02 109.66C700.56 109.66 692.46 133.6 692.46 157.89 692.46 182.18 700.56 206.12 728.02 206.12 755.48 206.12 763.57 182.18 763.57 157.89 763.57 133.6 755.47 109.66 728.02 109.66" fill="#262626"/><path d="M853.69 244.14 853.69 71.64 907.91 71.64 907.91 94.17C918.82 75.51 937.13 68.12 956.14 68.12 1001.91 68.12 1019.16 109.31 1019.16 155.07L1019.16 244.14 962.83 244.14 962.83 154.02C962.83 125.51 954.03 112.48 935.72 112.48 924.1 112.48 915.3 118.47 910.02 125.86L910.02 244.15 853.69 244.15Z" fill="#262626"/><path d="M1180.74 247.67C1178.98 248.02 1177.22 248.38 1174.05 248.38 1098.01 248.38 1054.36 193.46 1054.36 126.92 1054.36 60.38 1098.01 5.46 1174.05 5.46 1250.09 5.46 1293.75 60.38 1293.75 126.92 1293.75 169.87 1275.44 207.89 1242.35 229.36L1298.68 266.68 1271.57 307.87 1180.74 247.67ZM1236.01 126.91C1236.01 82.55 1214.89 51.22 1174.05 51.22 1133.21 51.22 1112.09 82.55 1112.09 126.91 1112.09 171.27 1133.21 202.6 1174.05 202.6 1214.89 202.6 1236.01 171.27 1236.01 126.91" fill="#847BFF"/><path d="M126.71 26.21 107.37 52.42 70.25 0 108.13 0 126.71 26.21Z" fill="#262626"/><path d="M219.51 140.8 200.58 167.79 254.22 243.52 292.39 243.52 219.51 140.8Z" fill="#262626"/><path d="M91.91 73.41 72.71 99.46 5.84 0 39.79 0 91.91 73.41Z" fill="#847BFF"/><path d="M169.09 212.66 190.41 243.52 224.22 243.52 185.6 189.15 169.09 212.66Z" fill="#847BFF"/><path d="M217.35 0 179.45 0 0 243.52 38.16 243.52 217.35 0Z" fill="#847BFF"/><path d="M285.3 0 247.81 0 68.18 243.52 110.95 243.52 285.3 0Z" fill="#262626"/></g></svg>