<svg width="24" height="24" viewBox="0 -960 960 960" xmlns="http://www.w3.org/2000/svg" xmlns:xlink="http://www.w3.org/1999/xlink" fill="#1F1F1F" overflow="hidden"><path d="M480-60C446.667-60 418.333-71.6667 395-95 371.667-118.333 360-146.667 360-180 360-206 367.5-229.333 382.5-250 397.5-270.667 416.667-285 440-293L440-366C432.667-368.667 425.667-371.833 419-375.5 412.333-379.167 406.333-383.667 401-389L338-352C338.667-348.667 339.167-345.167 339.5-341.5 339.833-337.833 340-334 340-330 340-296.667 328.333-268.333 305-245 281.667-221.667 253.333-210 220-210 186.667-210 158.333-221.667 135-245 111.667-268.333 100-296.667 100-330 100-363.333 111.667-391.667 135-415 158.333-438.333 186.667-450 220-450 235.333-450 249.667-447.5 263-442.5 276.333-437.5 288.333-430.333 299-421L361-457C360.333-460.333 359.833-464 359.5-468 359.167-472 359-476 359-480 359-484 359.167-487.833 359.5-491.5 359.833-495.167 360.333-498.667 361-502L299-539C288.333-529.667 276.333-522.5 263-517.5 249.667-512.5 235.333-510 220-510 186.667-510 158.333-521.667 135-545 111.667-568.333 100-596.667 100-630 100-663.333 111.667-691.667 135-715 158.333-738.333 186.667-750 220-750 253.333-750 281.667-738.333 305-715 328.333-691.667 340-663.333 340-630 340-626 339.833-622 339.5-618 339.167-614 338.667-610.333 338-607L401-571C406.333-576.333 412.333-580.667 419-584 425.667-587.333 432.667-590.333 440-593L440-666C416.667-674 397.5-688.5 382.5-709.5 367.5-730.5 360-754 360-780 360-813.333 371.667-841.667 395-865 418.333-888.333 446.667-900 480-900 513.333-900 541.667-888.333 565-865 588.333-841.667 600-813.333 600-780 600-754 592.5-730.5 577.5-709.5 562.5-688.5 543.333-674 520-666L520-593C527.333-590.333 534.167-587.167 540.5-583.5 546.833-579.833 552.667-575.333 558-570L622-608C621.333-611.333 620.833-614.833 620.5-618.5 620.167-622.167 620-626 620-630 620-663.333 631.667-691.667 655-715 678.333-738.333 706.667-750 740-750 773.333-750 801.667-738.333 825-715 848.333-691.667 860-663.333 860-630 860-596.667 848.333-568.333 825-545 801.667-521.667 773.333-510 740-510 724.667-510 710.5-512.5 697.5-517.5 684.5-522.5 672.667-529.667 662-539L597-501C597.667-497.667 598.167-494.167 598.5-490.5 598.833-486.833 599-483.333 599-480 599-476.667 598.833-473 598.5-469 598.167-465 597.667-461.333 597-458L662-421C672.667-430.333 684.5-437.5 697.5-442.5 710.5-447.5 724.667-450 740-450 773.333-450 801.667-438.333 825-415 848.333-391.667 860-363.333 860-330 860-296.667 848.333-268.333 825-245 801.667-221.667 773.333-210 740-210 706.667-210 678.333-221.667 655-245 631.667-268.333 620-296.667 620-330 620-334 620.167-337.833 620.5-341.5 620.833-345.167 621.333-348.667 622-352L558-389C552.667-383.667 546.833-379.333 540.5-376 534.167-372.667 527.333-369.667 520-367L520-293C543.333-285 562.5-270.667 577.5-250 592.5-229.333 600-206 600-180 600-146.667 588.333-118.333 565-95 541.667-71.6667 513.333-60 480-60ZM480-140C491.333-140 500.833-143.833 508.5-151.5 516.167-159.167 520-168.667 520-180 520-191.333 516.167-200.833 508.5-208.5 500.833-216.167 491.333-220 480-220 468.667-220 459.167-216.167 451.5-208.5 443.833-200.833 440-191.333 440-180 440-168.667 443.833-159.167 451.5-151.5 459.167-143.833 468.667-140 480-140ZM220-290C231.333-290 240.833-293.833 248.5-301.5 256.167-309.167 260-318.667 260-330 260-341.333 256.167-350.833 248.5-358.5 240.833-366.167 231.333-370 220-370 208.667-370 199.167-366.167 191.5-358.5 183.833-350.833 180-341.333 180-330 180-318.667 183.833-309.167 191.5-301.5 199.167-293.833 208.667-290 220-290ZM740-290C751.333-290 760.833-293.833 768.5-301.5 776.167-309.167 780-318.667 780-330 780-341.333 776.167-350.833 768.5-358.5 760.833-366.167 751.333-370 740-370 728.667-370 719.167-366.167 711.5-358.5 703.833-350.833 700-341.333 700-330 700-318.667 703.833-309.167 711.5-301.5 719.167-293.833 728.667-290 740-290ZM480-440C491.333-440 500.833-443.833 508.5-451.5 516.167-459.167 520-468.667 520-480 520-491.333 516.167-500.833 508.5-508.5 500.833-516.167 491.333-520 480-520 468.667-520 459.167-516.167 451.5-508.5 443.833-500.833 440-491.333 440-480 440-468.667 443.833-459.167 451.5-451.5 459.167-443.833 468.667-440 480-440ZM220-590C231.333-590 240.833-593.833 248.5-601.5 256.167-609.167 260-618.667 260-630 260-641.333 256.167-650.833 248.5-658.5 240.833-666.167 231.333-670 220-670 208.667-670 199.167-666.167 191.5-658.5 183.833-650.833 180-641.333 180-630 180-618.667 183.833-609.167 191.5-601.5 199.167-593.833 208.667-590 220-590ZM740-590C751.333-590 760.833-593.833 768.5-601.5 776.167-609.167 780-618.667 780-630 780-641.333 776.167-650.833 768.5-658.5 760.833-666.167 751.333-670 740-670 728.667-670 719.167-666.167 711.5-658.5 703.833-650.833 700-641.333 700-630 700-618.667 703.833-609.167 711.5-601.5 719.167-593.833 728.667-590 740-590ZM480-740C491.333-740 500.833-743.833 508.5-751.5 516.167-759.167 520-768.667 520-780 520-791.333 516.167-800.833 508.5-808.5 500.833-816.167 491.333-820 480-820 468.667-820 459.167-816.167 451.5-808.5 443.833-800.833 440-791.333 440-780 440-768.667 443.833-759.167 451.5-751.5 459.167-743.833 468.667-740 480-740Z" stroke="none" stroke-width="1" stroke-linecap="butt" stroke-linejoin="miter" stroke-miterlimit="4" fill="#3997CA" fill-opacity="1"/></svg>