<svg width="24" height="24" viewBox="0 -960 960 960" xmlns="http://www.w3.org/2000/svg" xmlns:xlink="http://www.w3.org/1999/xlink" fill="#1F1F1F" overflow="hidden"><style>
.MsftOfcThm_Background1_Fill_v2 {
 fill:#FFFFFF; 
}
</style>
<path d="M200-80C166.667-80 138.333-91.6667 115-115 91.6667-138.333 80-166.667 80-200 80-226 87.5-249.333 102.5-270 117.5-290.667 136.667-305 160-313L160-400C160-433.333 171.667-461.667 195-485 218.333-508.333 246.667-520 280-520L440-520 440-647C416.667-655 397.5-669.333 382.5-690 367.5-710.667 360-734 360-760 360-793.333 371.667-821.667 395-845 418.333-868.333 446.667-880 480-880 513.333-880 541.667-868.333 565-845 588.333-821.667 600-793.333 600-760 600-734 592.5-710.667 577.5-690 562.5-669.333 543.333-655 520-647L520-520 680-520C713.333-520 741.667-508.333 765-485 788.333-461.667 800-433.333 800-400L800-313C823.333-305 842.5-290.667 857.5-270 872.5-249.333 880-226 880-200 880-166.667 868.333-138.333 845-115 821.667-91.6667 793.333-80 760-80 726.667-80 698.333-91.6667 675-115 651.667-138.333 640-166.667 640-200 640-226 647.5-249.333 662.5-270 677.5-290.667 696.667-305 720-313L720-400C720-411.333 716.167-420.833 708.5-428.5 700.833-436.167 691.333-440 680-440L520-440 520-313C543.333-305 562.5-290.667 577.5-270 592.5-249.333 600-226 600-200 600-166.667 588.333-138.333 565-115 541.667-91.6667 513.333-80 480-80 446.667-80 418.333-91.6667 395-115 371.667-138.333 360-166.667 360-200 360-226 367.5-249.333 382.5-270 397.5-290.667 416.667-305 440-313L440-440 280-440C268.667-440 259.167-436.167 251.5-428.5 243.833-420.833 240-411.333 240-400L240-313C263.333-305 282.5-290.667 297.5-270 312.5-249.333 320-226 320-200 320-166.667 308.333-138.333 285-115 261.667-91.6667 233.333-80 200-80ZM200-160C211.333-160 220.833-163.833 228.5-171.5 236.167-179.167 240-188.667 240-200 240-211.333 236.167-220.833 228.5-228.5 220.833-236.167 211.333-240 200-240 188.667-240 179.167-236.167 171.5-228.5 163.833-220.833 160-211.333 160-200 160-188.667 163.833-179.167 171.5-171.5 179.167-163.833 188.667-160 200-160ZM480-160C491.333-160 500.833-163.833 508.5-171.5 516.167-179.167 520-188.667 520-200 520-211.333 516.167-220.833 508.5-228.5 500.833-236.167 491.333-240 480-240 468.667-240 459.167-236.167 451.5-228.5 443.833-220.833 440-211.333 440-200 440-188.667 443.833-179.167 451.5-171.5 459.167-163.833 468.667-160 480-160ZM760-160C771.333-160 780.833-163.833 788.5-171.5 796.167-179.167 800-188.667 800-200 800-211.333 796.167-220.833 788.5-228.5 780.833-236.167 771.333-240 760-240 748.667-240 739.167-236.167 731.5-228.5 723.833-220.833 720-211.333 720-200 720-188.667 723.833-179.167 731.5-171.5 739.167-163.833 748.667-160 760-160ZM480-720C491.333-720 500.833-723.833 508.5-731.5 516.167-739.167 520-748.667 520-760 520-771.333 516.167-780.833 508.5-788.5 500.833-796.167 491.333-800 480-800 468.667-800 459.167-796.167 451.5-788.5 443.833-780.833 440-771.333 440-760 440-748.667 443.833-739.167 451.5-731.5 459.167-723.833 468.667-720 480-720Z" class="MsftOfcThm_Background1_Fill_v2" stroke="none" stroke-width="1" stroke-linecap="butt" stroke-linejoin="miter" stroke-miterlimit="4" fill="#FFFFFF" fill-opacity="1"/></svg>