<svg width="24" height="24" viewBox="0 -960 960 960" xmlns="http://www.w3.org/2000/svg" xmlns:xlink="http://www.w3.org/1999/xlink" fill="#1F1F1F" overflow="hidden"><path d="M600-160 600-440 880-440 880-160 600-160ZM440-520 440-800 880-800 880-520 440-520ZM80-160 80-440 520-440 520-160 80-160ZM80-520 80-800 360-800 360-520 80-520ZM520-600 800-600 800-720 520-720 520-600ZM160-240 440-240 440-360 160-360 160-240ZM680-240 800-240 800-360 680-360 680-240ZM160-600 280-600 280-720 160-720 160-600Z" stroke="#3997CA" stroke-width="0.999475" stroke-linecap="butt" stroke-linejoin="miter" stroke-miterlimit="4" stroke-opacity="1" fill="#3997CA" fill-opacity="1"/></svg>