<svg viewBox="0 0 436.95 98.73" xmlns="http://www.w3.org/2000/svg" xmlns:xlink="http://www.w3.org/1999/xlink" id="Layer_2" overflow="hidden"><defs/><g id="Layer_1-2"><line x1="264.69" y1="0" x2="264.69" y2="98.73" stroke="#232323" stroke-width="2.5" stroke-miterlimit="10" fill="none"/><g><path d="M342.16 57.82 349.57 24.57 361.66 24.57 348.42 72.5 336.4 72.5 326.68 36.51 316.96 72.5 304.94 72.5 291.7 24.57 303.79 24.57 311.2 57.82 320.12 24.57 333.22 24.57 342.15 57.82Z" fill="#4CB7E8"/><path d="M367.28 24.56 397.15 24.56 397.15 33.92 379.08 33.92 379.08 43.56 396.28 43.56 396.28 52.92 379.08 52.92 379.08 63.14 397.36 63.14 397.36 72.5 367.27 72.5 367.27 24.56Z" fill="#4CB7E8"/><path d="M418.6 73.36C413.35 73.36 407.81 72.14 403.34 69.98L405.72 60.98C409.03 62.64 413.35 64 418.24 64 422.2 64 425.15 62.63 425.15 59.25 425.15 56.8 423.28 55.08 417.3 52.84 407.94 49.31 403.77 45.07 403.77 38.01 403.77 28.8 410.25 23.69 420.97 23.69 426.44 23.69 431.69 25.06 435.15 26.93L433.13 35.78C429.82 34.2 425.65 33.04 421.47 33.04 417.94 33.04 415.57 34.12 415.57 37 415.57 39.59 416.87 40.67 422.48 42.9 430.61 46.14 436.95 49.95 436.95 58.16 436.95 66.37 430.04 73.35 418.6 73.35Z" fill="#4CB7E8"/></g><path d="M33.39 68.8 33.39 60.11 20.76 60.11C19.77 60.11 18.79 60.07 17.82 59.99 16.84 59.89 15.91 59.69 15 59.41 14.11 59.1 13.35 58.66 12.71 58.08 11.59 57.05 10.95 55.87 10.76 54.52 10.59 53.18 10.49 51.81 10.45 50.4 10.39 49.9 10.34 49.42 10.33 48.95 10.31 48.45 10.31 47.97 10.31 47.5L10.31 20.08 0 20.08 0 47.5C0 48.8 0.01 50.16 0.06 51.59 0.12 52.99 0.26 54.37 0.46 55.71 0.68 57.05 1.03 58.37 1.52 59.67 2.02 60.95 2.7 62.13 3.59 63.2 4.52 64.38 5.55 65.34 6.72 66.08 7.9 66.81 9.13 67.37 10.43 67.78 11.75 68.2 13.1 68.48 14.49 68.61 15.89 68.76 17.32 68.82 18.79 68.82L33.39 68.82Z" fill="#232323"/><path d="M74.6 51.48C74.6 45.49 72.92 40.87 69.58 37.61 66.25 34.36 61.62 32.72 55.68 32.72 52.94 32.72 50.4 33.14 48.09 33.96 45.78 34.79 43.79 35.97 42.14 37.52 40.49 39.05 39.2 40.94 38.27 43.18 37.34 45.4 36.88 47.91 36.88 50.67 36.88 56.63 38.51 61.24 41.77 64.48 45.02 67.72 49.63 69.34 55.58 69.34 58.36 69.34 60.91 68.94 63.23 68.16 65.54 67.38 67.53 66.24 69.2 64.72 70.89 63.22 72.21 61.37 73.16 59.14 74.1 56.92 74.59 54.36 74.59 51.47L74.59 51.47ZM64.6 50.98C64.6 52.45 64.46 53.85 64.2 55.19 63.93 56.53 63.45 57.69 62.77 58.65 62.09 59.63 61.18 60.4 60.05 61 58.93 61.58 57.55 61.87 55.9 61.87 54.25 61.87 52.82 61.61 51.69 61.06 50.55 60.53 49.63 59.78 48.91 58.84 48.2 57.9 47.69 56.78 47.36 55.5 47.05 54.2 46.9 52.79 46.9 51.27 46.9 49.75 47.04 48.28 47.3 46.94 47.56 45.6 48.03 44.43 48.69 43.44 49.35 42.43 50.24 41.64 51.38 41.06 52.53 40.46 53.99 40.17 55.74 40.17 57.39 40.17 58.78 40.47 59.91 41.04 61.06 41.6 61.98 42.37 62.67 43.33 63.35 44.31 63.82 45.45 64.12 46.77 64.43 48.1 64.58 49.51 64.58 51L64.59 51Z" fill="#232323"/><path d="M115.96 68.53 115.96 33.21 97.69 33.21C95.5 33.21 93.48 33.41 91.62 33.79 89.76 34.19 87.93 35.01 86.14 36.26 83.71 37.97 82 40.15 81.06 42.79 80.1 45.41 79.63 48.14 79.63 50.96 79.63 53.54 80.03 56.05 80.83 58.49 81.64 60.92 83 63.06 84.95 64.86 86.76 66.51 88.65 67.58 90.61 68.08 92.6 68.56 94.77 68.79 97.17 68.79L106.15 68.79C106.15 69.86 106.08 70.73 105.94 71.39 105.79 72.05 105.52 72.54 105.13 72.91 104.73 73.28 104.2 73.53 103.52 73.66 102.84 73.79 101.96 73.85 100.89 73.85L82.78 73.85 82.78 81.44 102.21 81.44C104.26 81.44 106.06 81.29 107.62 81.01 109.21 80.71 110.55 80.18 111.64 79.4 112.73 78.63 113.63 77.56 114.3 76.18 115 74.81 115.45 73.04 115.69 70.85 115.75 70.45 115.8 70.06 115.84 69.67 115.88 69.27 115.9 68.9 115.9 68.53L115.94 68.55ZM106.18 61.19 98.57 61.19C95.42 61.19 93.12 60.27 91.7 58.43 90.3 56.57 89.6 54.15 89.6 51.13 89.6 49.66 89.74 48.31 90 47.04 90.26 45.76 90.73 44.68 91.39 43.79 92.05 42.88 92.92 42.16 94.02 41.63 95.11 41.1 96.47 40.82 98.08 40.82L106.19 40.82 106.19 61.19 106.18 61.19Z" fill="#232323"/><path d="M135.41 29.56 135.41 20.06 125.62 20.06 125.62 29.56 135.41 29.56ZM135.41 68.8 135.41 33.21 125.62 33.21 125.62 68.8 135.41 68.8Z" fill="#232323"/><path d="M177.5 57.54C177.5 55.7 177.16 54.15 176.51 52.87 175.84 51.57 174.96 50.52 173.85 49.72 172.74 48.92 171.44 48.33 169.95 47.96 168.46 47.59 166.88 47.4 165.22 47.4L159.46 47.4C158.81 47.4 158.12 47.4 157.36 47.38 156.61 47.37 155.92 47.26 155.29 47.07 154.67 46.87 154.15 46.54 153.74 46.08 153.32 45.61 153.12 44.9 153.12 43.98 153.12 42.58 153.5 41.72 154.3 41.41 155.11 41.09 156.08 40.91 157.21 40.91 157.46 40.91 157.68 40.91 157.89 40.89 158.11 40.88 158.35 40.87 158.6 40.87L175.9 40.87 175.9 33.26 155.01 33.26C153.01 33.26 151.23 33.43 149.68 33.78 148.15 34.12 146.74 35.08 145.45 36.69 143.84 38.69 143.04 41.01 143.04 43.62 143.04 45.91 143.6 48 144.72 49.87 145.84 51.75 147.49 53.1 149.7 53.93 150.52 54.24 151.48 54.45 152.54 54.58 153.61 54.69 154.71 54.75 155.86 54.79 157.01 54.81 158.12 54.81 159.18 54.79 160.25 54.75 161.2 54.73 162.06 54.73 162.74 54.73 163.43 54.75 164.13 54.79 164.83 54.81 165.47 54.93 166.05 55.13 166.65 55.32 167.12 55.65 167.48 56.15 167.85 56.63 168.04 57.33 168.04 58.25 168.04 59.52 167.66 60.29 166.9 60.57 166.15 60.87 165.25 61.05 164.18 61.15 163.63 61.2 163.1 61.21 162.57 61.21L143.66 61.21 143.66 68.82 163.82 68.82C164.85 68.82 165.91 68.82 167.01 68.8 168.1 68.79 169.16 68.65 170.2 68.4 171.42 68.15 172.47 67.67 173.35 66.95 174.26 66.2 175.03 65.34 175.64 64.35 176.27 63.34 176.76 62.26 177.07 61.1 177.39 59.92 177.57 58.75 177.57 57.57L177.53 57.57Z" fill="#232323"/><path d="M234.15 73.02 234.15 64.33 225.83 64.33C226.51 63.51 227.11 62.7 227.66 61.92 228.19 61.14 228.68 60.27 229.11 59.29 229.86 57.68 230.39 55.87 230.75 53.88 231.12 51.88 231.31 50.01 231.31 48.24 231.31 45.91 231.01 43.4 230.42 40.69 229.84 38 228.99 35.61 227.89 33.57 226.91 31.76 225.64 30.23 224.08 28.99 222.53 27.75 220.83 26.78 218.98 26.05 217.12 25.3 215.18 24.78 213.16 24.47 211.14 24.15 209.15 23.97 207.21 23.97 198.86 23.97 192.77 26.07 188.92 30.25 185.08 34.45 183.16 40.63 183.16 48.83 183.16 50.64 183.27 52.47 183.5 54.31 183.75 56.12 184.17 57.9 184.77 59.64 185.39 61.35 186.2 62.98 187.18 64.5 188.19 66.02 189.45 67.34 190.96 68.52 193.36 70.36 196.03 71.57 198.98 72.17 201.92 72.75 204.87 73.04 207.8 73.04L234.19 73.04ZM219.82 48.17C219.82 50.36 219.67 52.47 219.36 54.48 219.05 56.5 218.43 58.29 217.5 59.83 216.57 61.36 215.3 62.57 213.69 63.48 212.08 64.37 209.99 64.81 207.41 64.81 204.83 64.81 202.7 64.38 201.04 63.51 199.39 62.63 198.08 61.44 197.14 59.95 196.18 58.46 195.53 56.73 195.15 54.75 194.78 52.75 194.59 50.6 194.59 48.32 194.59 46.04 194.78 43.97 195.15 42.04 195.52 40.08 196.18 38.38 197.14 36.9 198.08 35.43 199.38 34.28 201.01 33.44 202.64 32.6 204.72 32.17 207.26 32.17 209.66 32.17 211.67 32.62 213.3 33.5 214.93 34.37 216.22 35.54 217.17 37 218.11 38.45 218.8 40.15 219.22 42.1 219.63 44.04 219.84 46.06 219.84 48.17L219.83 48.17Z" fill="#00629B"/></g></svg>