<svg viewBox="0 0 567.08 566.91" xmlns="http://www.w3.org/2000/svg" xmlns:xlink="http://www.w3.org/1999/xlink" id="Layer_2" overflow="hidden"><defs/><g id="Layer_1-2"><g><path d="M567.08 373.99C567.08 308.09 513.46 254.47 447.56 254.47L119.52 254.47C53.62 254.47 0 308.09 0 373.99L0 506.84 61.46 506.84C71.46 541.49 103.44 566.91 141.26 566.91 179.08 566.91 211.06 541.49 221.06 506.84L346.01 506.84C356.01 541.49 387.99 566.91 425.81 566.91 463.63 566.91 495.61 541.49 505.61 506.84L567.08 506.84 567.08 373.99ZM141.26 520.91C120.82 520.91 104.19 504.28 104.19 483.84 104.19 463.4 120.82 446.77 141.26 446.77 161.7 446.77 178.33 463.4 178.33 483.84 178.33 504.28 161.7 520.91 141.26 520.91ZM425.82 520.91C405.38 520.91 388.75 504.28 388.75 483.84 388.75 463.4 405.38 446.77 425.82 446.77 446.26 446.77 462.89 463.4 462.89 483.84 462.89 504.28 446.26 520.91 425.82 520.91ZM521.08 460.84 505.61 460.84C495.61 426.2 463.63 400.78 425.81 400.78 387.99 400.78 356.01 426.2 346.01 460.84L221.06 460.84C211.06 426.2 179.08 400.78 141.26 400.78 103.44 400.78 71.46 426.2 61.46 460.84L46 460.84 46 373.99C46 333.45 78.98 300.47 119.52 300.47L447.56 300.47C488.1 300.47 521.08 333.45 521.08 373.99L521.08 460.84Z" stroke="none" stroke-width="1" stroke-linecap="butt" stroke-linejoin="miter" stroke-miterlimit="4" fill="#3997CA" fill-opacity="1"/><path d="M216.5 50.86C237.55 41.84 260.1 37.33 284.16 37.33 308.22 37.33 330.77 41.84 351.82 50.86 372.87 59.88 391.38 72.38 407.34 88.34L433.47 62.21C414.39 42.72 392.1 27.47 366.59 16.48 341.08 5.5 313.6 0 284.16 0 254.72 0 227.24 5.5 201.73 16.49 176.22 27.48 153.93 42.72 134.85 62.22L160.98 88.35C176.95 72.38 195.46 59.89 216.5 50.87Z" stroke="none" stroke-width="1" stroke-linecap="butt" stroke-linejoin="miter" stroke-miterlimit="4" fill="#3997CA" fill-opacity="1"/><path d="M354.46 141.22 380.59 115.09C368.36 102.65 353.99 92.8 337.51 85.54 321.02 78.28 303.24 74.65 284.16 74.65 265.08 74.65 247.3 78.23 230.81 85.38 214.32 92.53 199.96 102.23 187.73 114.46L213.86 141.21C222.98 132.09 233.56 124.93 245.59 119.75 257.62 114.57 270.47 111.97 284.16 111.97 297.85 111.97 310.7 114.56 322.73 119.75 334.76 124.93 345.33 132.09 354.46 141.21Z" stroke="none" stroke-width="1" stroke-linecap="butt" stroke-linejoin="miter" stroke-miterlimit="4" fill="#3997CA" fill-opacity="1"/><path d="M262.07 158.33C256.06 164.34 253.05 171.71 253.05 180.42 253.05 189.13 256.06 196.49 262.07 202.51 268.08 208.52 275.45 211.53 284.15 211.53 292.85 211.53 300.22 208.52 306.24 202.51 312.25 196.5 315.26 189.13 315.26 180.42 315.26 171.71 312.25 164.35 306.24 158.33 300.23 152.31 292.86 149.31 284.15 149.31 275.44 149.31 268.08 152.32 262.07 158.33Z" stroke="none" stroke-width="1" stroke-linecap="butt" stroke-linejoin="miter" stroke-miterlimit="4" fill="#3997CA" fill-opacity="1"/></g></g></svg>