<svg viewBox="0 0 297.5 150.61" xmlns="http://www.w3.org/2000/svg" xmlns:xlink="http://www.w3.org/1999/xlink" id="Layer_2" overflow="hidden"><defs></defs><g id="Layer_1-2"><g><path d="M134.33 140.34 134.33 133.27 124.07 133.27C123.27 133.27 122.47 133.24 121.68 133.17 120.89 133.09 120.13 132.93 119.39 132.69 118.67 132.44 118.04 132.08 117.53 131.61 116.62 130.77 116.1 129.81 115.95 128.72 115.81 127.63 115.73 126.52 115.7 125.37 115.65 124.97 115.61 124.58 115.6 124.19 115.58 123.79 115.57 123.4 115.57 123.01L115.57 100.72 107.19 100.72 107.19 123.01C107.19 124.07 107.2 125.17 107.24 126.33 107.29 127.47 107.4 128.59 107.57 129.68 107.75 130.77 108.04 131.84 108.43 132.9 108.83 133.94 109.39 134.9 110.12 135.77 110.87 136.73 111.72 137.51 112.66 138.11 113.62 138.7 114.62 139.16 115.68 139.49 116.75 139.83 117.85 140.06 118.98 140.17 120.12 140.29 121.28 140.35 122.48 140.35L134.35 140.35Z" stroke="none" stroke-width="1" stroke-linecap="butt" stroke-linejoin="miter" stroke-miterlimit="4" fill="#232323" fill-opacity="0.89"/><path d="M167.83 126.26C167.83 121.4 166.47 117.64 163.75 114.99 161.05 112.34 157.28 111.02 152.45 111.02 150.22 111.02 148.16 111.36 146.29 112.03 144.41 112.7 142.8 113.67 141.46 114.92 140.11 116.17 139.07 117.7 138.32 119.52 137.57 121.33 137.19 123.36 137.19 125.61 137.19 130.46 138.51 134.2 141.16 136.83 143.81 139.47 147.55 140.78 152.38 140.78 154.64 140.78 156.71 140.46 158.59 139.82 160.46 139.18 162.09 138.25 163.45 137.03 164.82 135.81 165.9 134.3 166.67 132.5 167.44 130.69 167.83 128.61 167.83 126.26ZM159.7 125.85C159.7 127.04 159.59 128.18 159.37 129.27 159.15 130.36 158.77 131.3 158.21 132.09 157.66 132.88 156.91 133.52 156 134 155.09 134.47 153.97 134.7 152.63 134.7 151.29 134.7 150.13 134.49 149.21 134.05 148.29 133.62 147.53 133.01 146.95 132.24 146.38 131.47 145.96 130.57 145.69 129.52 145.44 128.46 145.31 127.32 145.31 126.07 145.31 124.82 145.42 123.64 145.64 122.55 145.85 121.46 146.23 120.51 146.77 119.71 147.3 118.89 148.03 118.24 148.96 117.77 149.9 117.29 151.08 117.04 152.51 117.04 153.85 117.04 154.98 117.28 155.91 117.74 156.85 118.19 157.6 118.82 158.15 119.6 158.7 120.39 159.09 121.32 159.33 122.39 159.58 123.47 159.71 124.62 159.71 125.84Z" stroke="none" stroke-width="1" stroke-linecap="butt" stroke-linejoin="miter" stroke-miterlimit="4" fill="#232323" fill-opacity="0.89"/><path d="M201.44 140.12 201.44 111.42 186.6 111.42C184.82 111.42 183.18 111.58 181.67 111.9 180.16 112.22 178.68 112.89 177.22 113.91 175.24 115.31 173.86 117.07 173.09 119.22 172.32 121.35 171.93 123.57 171.93 125.86 171.93 127.96 172.26 130 172.91 131.97 173.56 133.95 174.68 135.68 176.26 137.15 177.73 138.5 179.27 139.36 180.86 139.77 182.47 140.16 184.24 140.35 186.19 140.35L193.49 140.35C193.49 141.22 193.43 141.92 193.31 142.46 193.19 142.99 192.97 143.4 192.66 143.69 192.34 143.99 191.91 144.19 191.35 144.29 190.79 144.39 190.08 144.44 189.21 144.44L174.49 144.44 174.49 150.6 190.29 150.6C191.95 150.6 193.42 150.48 194.69 150.25 195.98 150.01 197.07 149.58 197.96 148.94 198.85 148.32 199.57 147.44 200.12 146.32 200.69 145.21 201.06 143.77 201.25 141.99 201.3 141.67 201.34 141.35 201.38 141.03 201.41 140.71 201.43 140.4 201.43 140.1ZM193.49 134.15 187.3 134.15C184.73 134.15 182.87 133.41 181.72 131.91 180.58 130.4 180.01 128.43 180.01 125.97 180.01 124.78 180.12 123.67 180.34 122.65 180.55 121.61 180.93 120.73 181.47 120.01 182 119.27 182.72 118.69 183.61 118.25 184.5 117.82 185.6 117.6 186.91 117.6L193.5 117.6 193.5 134.15Z" stroke="none" stroke-width="1" stroke-linecap="butt" stroke-linejoin="miter" stroke-miterlimit="4" fill="#232323" fill-opacity="0.89"/><path d="M217.24 108.45 217.24 100.73 209.29 100.73 209.29 108.45 217.24 108.45ZM217.24 140.34 217.24 111.41 209.29 111.41 209.29 140.34 217.24 140.34Z" stroke="none" stroke-width="1" stroke-linecap="butt" stroke-linejoin="miter" stroke-miterlimit="4" fill="#232323" fill-opacity="0.89"/><path d="M251.45 131.19C251.45 129.7 251.18 128.44 250.65 127.39 250.11 126.33 249.39 125.48 248.49 124.82 247.59 124.16 246.53 123.69 245.32 123.39 244.11 123.09 242.83 122.94 241.47 122.94L236.79 122.94C236.27 122.94 235.7 122.94 235.08 122.91 234.48 122.9 233.91 122.81 233.39 122.66 232.89 122.5 232.47 122.23 232.13 121.86 231.79 121.48 231.63 120.9 231.63 120.15 231.63 119.01 231.94 118.31 232.59 118.06 233.24 117.8 234.03 117.66 234.95 117.66 235.15 117.66 235.33 117.66 235.5 117.63 235.68 117.62 235.88 117.6 236.08 117.6L250.14 117.6 250.14 111.41 233.16 111.41C231.53 111.41 230.09 111.55 228.83 111.84 227.58 112.11 226.44 112.9 225.38 114.2 224.07 115.83 223.42 117.71 223.42 119.83 223.42 121.69 223.87 123.39 224.78 124.91 225.69 126.44 227.03 127.54 228.83 128.21 229.5 128.46 230.27 128.64 231.14 128.74 232.01 128.83 232.91 128.88 233.83 128.92 234.77 128.94 235.67 128.94 236.52 128.92 237.39 128.89 238.17 128.87 238.86 128.87 239.41 128.87 239.97 128.89 240.55 128.92 241.12 128.94 241.64 129.03 242.11 129.2 242.59 129.35 242.98 129.63 243.27 130.03 243.57 130.42 243.72 130.99 243.72 131.74 243.72 132.77 243.41 133.39 242.79 133.63 242.19 133.87 241.44 134.03 240.58 134.11 240.14 134.15 239.71 134.16 239.27 134.16L223.9 134.16 223.9 140.35 240.28 140.35C241.12 140.35 241.98 140.35 242.87 140.32 243.76 140.31 244.62 140.19 245.46 139.99 246.45 139.79 247.3 139.4 248.03 138.81 248.77 138.21 249.39 137.5 249.89 136.7 250.41 135.88 250.8 135 251.05 134.06 251.31 133.1 251.45 132.15 251.45 131.19Z" stroke="none" stroke-width="1" stroke-linecap="butt" stroke-linejoin="miter" stroke-miterlimit="4" fill="#232323" fill-opacity="0.89"/><path d="M297.5 143.78 297.5 136.71 290.73 136.71C291.28 136.04 291.77 135.39 292.21 134.75 292.64 134.11 293.04 133.4 293.39 132.61 293.99 131.3 294.43 129.84 294.72 128.21 295.02 126.59 295.17 125.06 295.17 123.63 295.17 121.74 294.92 119.69 294.44 117.49 293.97 115.3 293.28 113.36 292.38 111.7 291.59 110.23 290.56 108.98 289.29 107.98 288.03 106.97 286.65 106.18 285.14 105.59 283.63 104.99 282.05 104.56 280.41 104.31 278.76 104.05 277.15 103.91 275.58 103.91 268.8 103.91 263.84 105.61 260.71 109.02 257.59 112.43 256.03 117.46 256.03 124.11 256.03 125.59 256.12 127.07 256.31 128.56 256.51 130.04 256.85 131.48 257.34 132.89 257.84 134.29 258.5 135.6 259.3 136.84 260.12 138.07 261.14 139.15 262.37 140.11 264.31 141.61 266.48 142.59 268.89 143.08 271.29 143.55 273.68 143.78 276.06 143.78L297.49 143.78ZM285.85 123.58C285.85 125.36 285.72 127.07 285.47 128.71 285.22 130.36 284.72 131.8 283.96 133.06 283.21 134.31 282.17 135.29 280.87 136.03 279.56 136.75 277.86 137.11 275.76 137.11 273.66 137.11 271.94 136.76 270.58 136.05 269.23 135.33 268.18 134.36 267.41 133.16 266.64 131.95 266.1 130.54 265.8 128.93 265.5 127.31 265.35 125.56 265.35 123.7 265.35 121.84 265.5 120.17 265.8 118.59 266.1 117 266.64 115.61 267.41 114.41 268.18 113.22 269.23 112.28 270.55 111.59 271.87 110.9 273.57 110.56 275.63 110.56 277.57 110.56 279.21 110.92 280.54 111.64 281.86 112.34 282.91 113.29 283.68 114.48 284.45 115.66 285 117.04 285.34 118.63 285.67 120.21 285.84 121.85 285.84 123.56Z" stroke="none" stroke-width="1" stroke-linecap="butt" stroke-linejoin="miter" stroke-miterlimit="4" fill="#232323" fill-opacity="0.89"/><path d="M54.18 75.66C63.52 75.66 71.43 71.49 74.28 65.69L100.01 65.69C99.45 78.43 86.96 88.62 71.62 88.62 71.11 88.62 70.6 88.6 70.1 88.58L70.1 88.62 0 88.62 0 65.69 34.08 65.69C36.93 71.49 44.85 75.66 54.19 75.66L54.18 75.66Z" stroke="none" stroke-width="1" stroke-linecap="butt" stroke-linejoin="miter" stroke-miterlimit="4" fill="#232323" fill-opacity="0.89"/><path d="M54.18 12.96C63.52 12.96 71.43 17.13 74.28 22.93L100.01 22.93C99.45 10.2 86.97 0 71.63 0 71.12 0 70.61 0.02 70.11 0.03L70.11-0.01 0-0.01 0 22.92 34.08 22.92C36.93 17.12 44.85 12.95 54.19 12.95L54.18 12.95Z" stroke="none" stroke-width="1" stroke-linecap="butt" stroke-linejoin="miter" stroke-miterlimit="4" fill="#232323" fill-opacity="0.89"/><path d="M100.02 33.04 74.29 33.04C71.44 38.33 63.52 42.13 54.19 42.13 44.86 42.13 36.94 38.32 34.08 33.04L0 33.04 0 56.57 34.08 56.57C36.93 50.77 44.85 46.6 54.19 46.6 63.53 46.6 71.44 50.77 74.29 56.57L100.02 56.57C99.81 52.03 98.08 47.81 95.26 44.26 98.09 41.03 99.82 37.18 100.02 33.04" stroke="none" stroke-width="1" stroke-linecap="butt" stroke-linejoin="miter" stroke-miterlimit="4" fill="#232323" fill-opacity="0.89"/><path d="M199.12 0.25 135.98 0.25 135.98 0.29C135.52 0.27 135.06 0.26 134.6 0.26 120.79 0.26 109.53 10.44 109.03 23.17L128.52 23.17C128.52 23.17 169.97 23.18 169.97 23.18L169.97 23.18C169.97 23.18 199.12 23.17 199.12 23.17L199.12 0.25Z" stroke="none" stroke-width="1" stroke-linecap="butt" stroke-linejoin="miter" stroke-miterlimit="4" fill="#232323" fill-opacity="0.89"/><path d="M109.03 88.63 172.18 88.63 172.18 88.59C172.63 88.62 173.09 88.63 173.55 88.63 187.36 88.63 198.62 78.44 199.12 65.72L179.63 65.72 179.63 65.7 138.18 65.7 138.18 65.72 109.03 65.72 109.03 88.63Z" stroke="none" stroke-width="1" stroke-linecap="butt" stroke-linejoin="miter" stroke-miterlimit="4" fill="#232323" fill-opacity="0.89"/><path d="M199.12 56.8C198.62 43.8 187.52 33.4 173.84 33.25L173.03 33.25C172.74 33.25 172.46 33.25 172.17 33.28L172.17 33.25 169.96 33.25 169.96 33.23 128.51 33.23 128.51 33.25 109.02 33.25C109.52 46.25 120.62 56.65 134.31 56.8L135.11 56.8C135.4 56.8 135.68 56.8 135.97 56.77L135.97 56.8 138.18 56.8 138.18 56.82 179.63 56.82 179.63 56.8 199.11 56.8Z" stroke="none" stroke-width="1" stroke-linecap="butt" stroke-linejoin="miter" stroke-miterlimit="4" fill="#232323" fill-opacity="0.89"/><path d="M297.49 0.25 234.35 0.25 234.35 0.29C233.89 0.27 233.44 0.26 232.97 0.26 219.16 0.26 207.91 10.44 207.4 23.17L226.89 23.17C226.89 23.17 268.34 23.18 268.34 23.18L268.34 23.18C268.34 23.18 297.49 23.17 297.49 23.17L297.49 0.25Z" stroke="none" stroke-width="1" stroke-linecap="butt" stroke-linejoin="miter" stroke-miterlimit="4" fill="#232323" fill-opacity="0.89"/><path d="M207.39 88.63 270.54 88.63 270.54 88.59C270.99 88.62 271.45 88.63 271.91 88.63 285.72 88.63 296.98 78.44 297.48 65.72L277.99 65.72 277.99 65.7 236.54 65.7 236.54 65.72 207.39 65.72 207.39 88.63Z" stroke="none" stroke-width="1" stroke-linecap="butt" stroke-linejoin="miter" stroke-miterlimit="4" fill="#232323" fill-opacity="0.89"/><path d="M297.49 56.8C296.99 43.8 285.89 33.4 272.2 33.25L271.4 33.25C271.11 33.25 270.83 33.25 270.54 33.28L270.54 33.25 268.33 33.25 268.33 33.23 226.88 33.23 226.88 33.25 207.39 33.25C207.9 46.25 218.99 56.65 232.68 56.8L233.49 56.8C233.77 56.8 234.06 56.8 234.35 56.77L234.35 56.8 236.56 56.8 236.56 56.82 278.01 56.82 278.01 56.8 297.5 56.8 297.49 56.8Z" stroke="none" stroke-width="1" stroke-linecap="butt" stroke-linejoin="miter" stroke-miterlimit="4" fill="#232323" fill-opacity="0.89"/></g></g></svg>