<?xml version="1.0" encoding="UTF-8"?>
<svg id="Layer_2" data-name="Layer 2" xmlns="http://www.w3.org/2000/svg" viewBox="0 0 1515.5535888672 364.4506072998">
  <defs>
    <style>
      .cls-1 {
        fill: #08b9ff;
      }

      .cls-2 {
        fill: #262626;
      }
    </style>
  </defs>
  <g id="Layer_1-2" data-name="Layer 1">
    <g>
      <polygon class="cls-1" points="0 162.3050994873 0 268.0290985107 117.2119979858 320.8910980225 234.4230041504 268.0290985107 234.4230041504 162.3050994873 117.2119979858 109.4430999756 0 162.3050994873"/>
      <polygon class="cls-2" points="262.2644958496 0 189.4674987793 32.8309936523 189.4674987793 98.4940185547 262.2644958496 131.3249969482 335.0614929199 98.4940185547 335.0614929199 32.8309936523 262.2644958496 0"/>
      <path class="cls-2" d="M691.4885864258,177.1390075684h-6.6779785156c-21.7880249023,0-37.9530029297,5.6230010986-47.0920410156,16.8690032959v106.8339996338h-56.2290039062v-172.2010040283h54.4730224609v28.8180084229c6.3239746094-18.625,20.0310058594-30.2230072021,41.8190307617-30.2230072021,6.3259887695,0,10.54296875.7019958496,15.1109619141,2.1089935303l-1.4039916992,47.7940063477Z"/>
      <path class="cls-2" d="M844.3541870117,135.6705932617l-5.6229858398,40.06300354c-8.7850341797-3.8660125732-22.1400146484-7.029006958-34.7919921875-7.029006958-29.8699951172,0-44.9830322266,17.5720062256-44.9830322266,46.0379943848,0,28.4660110474,15.1130371094,46.0360107422,44.9830322266,46.0360107422,12.6519775391,0,26.0069580078-3.1630020142,34.7919921875-7.0279998779l5.6229858398,40.0639953613c-12.6519775391,6.324005127-30.924987793,10.5420074463-48.4959716797,10.5420074463-58.339050293,0-93.1310424805-36.1970062256-93.1310424805-89.6140136719,0-53.4179992676,34.7919921875-89.6149902344,93.1310424805-89.6149902344,17.5709838867,0,35.8439941406,4.2169952393,48.4959716797,10.5429992676"/>
      <path class="cls-2" d="M953.9923706055,304.3563995361c-59.3909912109,0-91.7239990234-39.0079956055-91.7239990234-89.6139984131s32.3330078125-89.6139984131,91.7239990234-89.6139984131,91.7239379883,39.0079956055,91.7239379883,89.6139984131-32.3329467773,89.6139984131-91.7239379883,89.6139984131M953.9923706055,166.5964050293c-27.4110107422,0-35.4949951172,23.8970031738-35.4949951172,48.1459960938,0,24.2480010986,8.083984375,48.1450042725,35.4949951172,48.1450042725s35.4949951172-23.8970031738,35.4949951172-48.1450042725c0-24.2489929199-8.083984375-48.1459960938-35.4949951172-48.1459960938"/>
      <path class="cls-2" d="M1075.9265136719,300.8422012329v-172.2009963989h54.1209716797v22.4920043945c10.8950195312-18.6260070801,29.1669921875-26.0050048828,48.1450195312-26.0050048828,45.6870117188,0,62.9069824219,41.1170043945,62.9069824219,86.8029937744v88.9110031128h-56.2290039062v-89.9660110474c0-28.4659881592-8.7869873047-41.4679870605-27.0599365234-41.4679870605-11.5970458984,0-20.3840332031,5.9739990234-25.6550292969,13.3540039062v118.0799942017h-56.2290039062Z"/>
      <path class="cls-1" d="M1397.8255615234,304.3566055298c-1.7559814453.3519973755-3.5139160156.7029953003-6.6760253906.7029953003-75.9099121094,0-119.4859619141-54.8229980469-119.4859619141-121.2429962158,0-66.421005249,43.5760498047-121.2429962158,119.4859619141-121.2429962158,75.9080810547,0,119.4851074219,54.8219909668,119.4851074219,121.2429962158,0,42.8740081787-18.2730712891,80.8290023804-51.3090820312,102.2649993896l56.2280273438,37.2519989014-27.0589599609,41.1170043945-90.6690673828-60.09400177ZM1453.0015869141,183.8166046143c0-44.2809906006-21.0880126953-75.5569915771-61.8520507812-75.5569915771-40.7659912109,0-61.8509521484,31.2760009766-61.8509521484,75.5569915771,0,44.2799987793,21.0849609375,75.5569992065,61.8509521484,75.5569992065,40.7640380859,0,61.8520507812-31.2770004272,61.8520507812-75.5569992065"/>
      <path class="cls-2" d="M482.0471191406,255.5075073242h-89.6140136719l-14.407989502,45.3349990845h-59.3930053711l87.1560058594-234.0530166626h63.2579956055l87.1529846191,234.0530166626h-59.3899841309l-14.7619934082-45.3349990845ZM407.1921081543,209.8215026855h60.0960083008l-29.8720092773-98.7519989014-30.2239990234,98.7519989014Z"/>
    </g>
  </g>
</svg>