<?xml version="1.0" encoding="UTF-8"?>
<svg id="Layer_2" data-name="Layer 2" xmlns="http://www.w3.org/2000/svg" viewBox="0 0 142 135">
  <defs>
    <style>
      .brand-blue {
        fill: #00629b;
      }
    </style>
  </defs>
  <g id="Layer_1-2" data-name="Layer 1">
    <g id="uuid-fb608467-c224-489f-ba02-7e4d6640ed82" data-name="Layer 1-2">
      <g>
        <g>
          <path class="brand-blue" d="M76.3522420964,106.2854201545c13.0113677865,0,24.0393759808-5.8234653724,28.0201537819-13.8975435669h35.8551067116c-.7877118048,17.765788044-18.1877826432,31.9587342694-39.568620551,31.9587342694-.7173865261,0-1.4207037037-.0140693484-2.1240208814-.0421973136v.056266662H.8441116547v-31.9587342694h47.5020406424c3.9807724352,8.0740781945,15.0087913613,13.8975435669,28.0342231303,13.8975435669h0l-.028133331-.0140693484Z"/>
          <path class="brand-blue" d="M98.5349121094,125.2041015625H0v-33.6455078125h48.87109375l.2321777344.470703125c3.8576660156,7.82421875,14.3620605469,13.146484375,26.3256835938,13.416015625l.9233398438-.00390625c12.3474121094,0,23.3037109375-5.396484375,27.2629394531-13.4267578125l.2321777344-.470703125h37.2624511719l-.0390625.880859375c-.8149414062,18.373046875-18.5659179688,32.765625-40.4118652344,32.765625-.5310058594,0-1.0544433594-.0068359375-1.5756835938-.0224609375l-.5483398438.0361328125ZM1.6879882812,123.5166015625h96.0029296875v-.03515625l.8779296875-.0205078125c.6921386719.0283203125,1.3840332031.0419921875,2.0900878906.0419921875,20.5864257812,0,37.3745117188-13.2265625,38.6723632812-30.271484375h-34.4428710938c-4.0456542969,7.625-13.9157714844,12.931640625-25.3217773438,13.779296875l.255859375.1328125h-3.4421386719c-12.7448730469,0-24.1279296875-5.5634765625-28.5502929688-13.8974609375H1.6879882812v30.2705078125Z"/>
        </g>
        <g>
          <path class="brand-blue" d="M76.3522420964,18.9052968474c13.0113677865,0,24.0393759808,5.8234667139,28.0201537819,13.8975475913h35.8551067116c-.7877118048-17.7517254029-18.1877826432-31.9587315865-39.568620551-31.9587315865-.7173865261,0-1.4207037037.0140663301-2.1240208814.0421989904v-.0421989904H.8441116547v31.9587315865h47.5020406424c3.9807724352-8.0740808774,15.0087913613-13.8975475913,28.0342231303-13.8975475913h-.028133331Z"/>
          <path class="brand-blue" d="M141.1098632812,33.646484375h-37.2624511719l-.2321777344-.470703125c-3.9577636719-8.02734375-14.9069824219-13.4228515625-27.2490234375-13.4267578125-12.3503417969.00390625-23.3051757812,5.3994140625-27.2629394531,13.4267578125l-.2321777344.470703125H0V0l99.37890625.015625c.4235839844-.0107421875.8493652344-.015625,1.2800292969-.015625,21.8454589844,0,39.5964355469,14.392578125,40.4118652344,32.765625l.0390625.880859375ZM104.8884277344,31.958984375h34.4428710938c-1.2983398438-17.044921875-18.0864257812-30.271484375-38.6723632812-30.271484375-.7060546875,0-1.3979492188.0146484375-2.0900878906.04296875l-.8779296875.03515625v-.078125H1.6879882812v30.271484375h46.1420898438c4.4184570312-8.3271484375,15.7883300781-13.8896484375,28.5222167969-13.8974609375h.0280761719c12.7253417969.0078125,24.08984375,5.5703125,28.5080566406,13.8974609375Z"/>
        </g>
        <g>
          <path class="brand-blue" d="M140.2415719383,46.8832573401h-35.8551067116c-3.9807778011,7.3707610169-15.0087859954,12.6737785461-28.0201537819,12.6737785461s-24.0393813466-5.3030121634-28.0342231303-12.6737785461H.8441116547v32.7886433878h47.5020406424c3.9807724352-8.088147543,15.0087913613-13.8975489328,28.0342231303-13.8975489328s24.0393813466,5.8094013898,28.0201591478,13.8975489328h35.8551067116c-.2813225784-6.3298545988-2.7007353865-12.2095866332-6.6393158741-17.1468708593,3.9385804875-4.5012310101,6.357982564-9.8605044696,6.6393158741-15.6417725284h-.0140693484Z"/>
          <path class="brand-blue" d="M141.1379394531,80.515625h-37.2626953125l-.2319335938-.470703125c-3.9526367188-8.03125-14.9089355469-13.4267578125-27.2629394531-13.4267578125-12.3625488281,0-23.3244628906,5.3955078125-27.2768554688,13.4267578125l-.2319335938.470703125H0v-34.4765625h48.8344726562l.2395019531.44140625c3.9653320312,7.31640625,14.9331054688,12.232421875,27.2922363281,12.232421875,12.3647460938,0,23.3269042969-4.9150390625,27.2775878906-12.2314453125l.2392578125-.4423828125h37.2585449219l-.04296875.884765625c-.2705078125,5.5595703125-2.4775390625,10.9482421875-6.3923339844,15.6259765625,3.9155273438,5.1181640625,6.1225585938,11.009765625,6.392578125,17.0849609375l.0390625.880859375ZM104.9169921875,78.828125h34.4416503906c-.4353027344-5.623046875-2.638671875-11.0595703125-6.4020996094-15.7763671875l-.4399414062-.5517578125.4643554688-.5302734375c3.7290039062-4.2626953125,5.9204101562-9.1689453125,6.3708496094-14.2431640625h-34.4711914062c-4.4265136719,7.6005859375-15.7927246094,12.673828125-28.5144042969,12.673828125-12.7150878906,0-24.0869140625-5.0732421875-28.52734375-12.673828125H1.6879882812v31.1015625h46.1418457031c4.4150390625-8.333984375,15.7980957031-13.8974609375,28.5505371094-13.8974609375,12.7438964844,0,24.1215820312,5.5634765625,28.5366210938,13.8974609375Z"/>
        </g>
      </g>
    </g>
  </g>
</svg>
