<?xml version="1.0" encoding="UTF-8"?>
<svg id="Layer_2" data-name="Layer 2" xmlns="http://www.w3.org/2000/svg" viewBox="0 0 416.341796875 130">
  <defs>
    <style>
      .cls-1 {
        fill: #000;
      }
    </style>
  </defs>
  <g id="Layer_1-2" data-name="Layer 1">
    <g id="uuid-fb608467-c224-489f-ba02-7e4d6640ed82" data-name="Layer 1-2">
      <g>
        <g>
          <g>
            <path class="cls-1" d="M76.3522420964,106.2854201545c13.0113677865,0,24.0393759808-5.8234653724,28.0201537819-13.8975435669h35.8551067116c-.7877118048,17.765788044-18.1877826432,31.9587342694-39.568620551,31.9587342694-.7173865261,0-1.4207037037-.0140693484-2.1240208814-.0421973136v.056266662H.8441116547v-31.9587342694h47.5020406424c3.9807724352,8.0740781945,15.0087913613,13.8975435669,28.0342231303,13.8975435669h0l-.028133331-.0140693484Z" fill="#000"/>
            <path d="M98.5349121094,125.2041015625H0v-33.6455078125h48.87109375l.2321777344.470703125c3.8576660156,7.82421875,14.3620605469,13.146484375,26.3256835938,13.416015625l.9233398438-.00390625c12.3474121094,0,23.3037109375-5.396484375,27.2629394531-13.4267578125l.2321777344-.470703125h37.2624511719l-.0390625.880859375c-.8149414062,18.373046875-18.5659179688,32.765625-40.4118652344,32.765625-.5310058594,0-1.0544433594-.0068359375-1.5756835938-.0224609375l-.5483398438.0361328125ZM1.6879882812,123.5166015625h96.0029296875v-.03515625l.8779296875-.0205078125c.6921386719.0283203125,1.3840332031.0419921875,2.0900878906.0419921875,20.5864257812,0,37.3745117188-13.2265625,38.6723632812-30.271484375h-34.4428710938c-4.0456542969,7.625-13.9157714844,12.931640625-25.3217773438,13.779296875l.255859375.1328125h-3.4421386719c-12.7448730469,0-24.1279296875-5.5634765625-28.5502929688-13.8974609375H1.6879882812v30.2705078125Z" fill="#000"/>
          </g>
          <g>
            <path class="cls-1" d="M76.3522420964,18.9052968474c13.0113677865,0,24.0393759808,5.8234667139,28.0201537819,13.8975475913h35.8551067116c-.7877118048-17.7517254029-18.1877826432-31.9587315865-39.568620551-31.9587315865-.7173865261,0-1.4207037037.0140663301-2.1240208814.0421989904v-.0421989904H.8441116547v31.9587315865h47.5020406424c3.9807724352-8.0740808774,15.0087913613-13.8975475913,28.0342231303-13.8975475913h-.028133331Z" fill="#000"/>
            <path d="M141.1098632812,33.646484375h-37.2624511719l-.2321777344-.470703125c-3.9577636719-8.02734375-14.9069824219-13.4228515625-27.2490234375-13.4267578125-12.3503417969.00390625-23.3051757812,5.3994140625-27.2629394531,13.4267578125l-.2321777344.470703125H0V0l99.37890625.015625c.4235839844-.0107421875.8493652344-.015625,1.2800292969-.015625,21.8454589844,0,39.5964355469,14.392578125,40.4118652344,32.765625l.0390625.880859375ZM104.8884277344,31.958984375h34.4428710938c-1.2983398438-17.044921875-18.0864257812-30.271484375-38.6723632812-30.271484375-.7060546875,0-1.3979492188.0146484375-2.0900878906.04296875l-.8779296875.03515625v-.078125H1.6879882812v30.271484375h46.1420898438c4.4184570312-8.3271484375,15.7883300781-13.8896484375,28.5222167969-13.8974609375h.0280761719c12.7253417969.0078125,24.08984375,5.5703125,28.5080566406,13.8974609375Z" fill="#000"/>
          </g>
          <g>
            <path class="cls-1" d="M140.2415719383,46.8832573401h-35.8551067116c-3.9807778011,7.3707610169-15.0087859954,12.6737785461-28.0201537819,12.6737785461s-24.0393813466-5.3030121634-28.0342231303-12.6737785461H.8441116547v32.7886433878h47.5020406424c3.9807724352-8.088147543,15.0087913613-13.8975489328,28.0342231303-13.8975489328s24.0393813466,5.8094013898,28.0201591478,13.8975489328h35.8551067116c-.2813225784-6.3298545988-2.7007353865-12.2095866332-6.6393158741-17.1468708593,3.9385804875-4.5012310101,6.357982564-9.8605044696,6.6393158741-15.6417725284h-.0140693484Z" fill="#000"/>
            <path d="M141.1379394531,80.515625h-37.2626953125l-.2319335938-.470703125c-3.9526367188-8.03125-14.9089355469-13.4267578125-27.2629394531-13.4267578125-12.3625488281,0-23.3244628906,5.3955078125-27.2768554688,13.4267578125l-.2319335938.470703125H0v-34.4765625h48.8344726562l.2395019531.44140625c3.9653320312,7.31640625,14.9331054688,12.232421875,27.2922363281,12.232421875,12.3647460938,0,23.3269042969-4.9150390625,27.2775878906-12.2314453125l.2392578125-.4423828125h37.2585449219l-.04296875.884765625c-.2705078125,5.5595703125-2.4775390625,10.9482421875-6.3923339844,15.6259765625,3.9155273438,5.1181640625,6.1225585938,11.009765625,6.392578125,17.0849609375l.0390625.880859375ZM104.9169921875,78.828125h34.4416503906c-.4353027344-5.623046875-2.638671875-11.0595703125-6.4020996094-15.7763671875l-.4399414062-.5517578125.4643554688-.5302734375c3.7290039062-4.2626953125,5.9204101562-9.1689453125,6.3708496094-14.2431640625h-34.4711914062c-4.4265136719,7.6005859375-15.7927246094,12.673828125-28.5144042969,12.673828125-12.7150878906,0-24.0869140625-5.0732421875-28.52734375-12.673828125H1.6879882812v31.1015625h46.1418457031c4.4150390625-8.333984375,15.7980957031-13.8974609375,28.5505371094-13.8974609375,12.7438964844,0,24.1215820312,5.5634765625,28.5366210938,13.8974609375Z" fill="#000"/>
          </g>
          <g>
            <path class="cls-1" d="M278.359002719,1.1817045241h-87.9990418332v.0421989904c-.6329811672-.0281326603-1.2800424146-.0421989904-1.9130235817-.0421989904-19.2568277582,0-34.9407922343,14.1929411111-35.644109412,31.9306011899h125.5702549071V1.1817045241h-.0140800802Z" fill="#000"/>
            <path d="M279.2170410156,33.9560546875h-127.2924804688l.0349121094-.876953125C152.6875,14.7197265625,168.71484375.337890625,188.4470214844.337890625c.4772949219,0,.962890625.0078125,1.4443359375.0234375l.4685058594-.0234375h88.8571777344v33.6181640625ZM153.693359375,32.2685546875h123.8356933594V2.025390625h-86.3251953125v.0390625l-.8818359375.001953125c-.6201171875-.02734375-1.2546386719-.041015625-1.875-.041015625-18.5053710938,0-33.5930175781,13.21484375-34.7536621094,30.2431640625Z" fill="#000"/>
          </g>
          <g>
            <path class="cls-1" d="M152.8028171603,124.3747388222h88.0131111816v-.056266662c.6329811672.0281279651,1.2659623344.056266662,1.9130235817.056266662,19.2568277582,0,34.9407922343-14.1929354937,35.644109412-31.9305955725h-27.1621059666v-.0281279651h-57.7704832745v.0281279651h-40.637665666s0,31.9305955725.0000107318,31.9305955725Z" fill="#000"/>
            <path d="M242.7290039062,125.21875c-.4750976562,0-.9426269531-.0146484375-1.4079589844-.033203125l-.5051269531.033203125h-88.8571777344v-33.6181640625h127.2924804688l-.0349121094.876953125c-.7280273438,18.359375-16.7551269531,32.7412109375-36.4873046875,32.7412109375ZM240.8542480469,123.4755859375c.6203613281.02734375,1.2404785156.0556640625,1.8747558594.0556640625,18.5053710938,0,33.5927734375-13.21484375,34.7534179688-30.2431640625h-123.8356933594v30.2431640625h86.3251953125v-.0390625l.8823242188-.0166015625Z" fill="#000"/>
          </g>
          <g>
            <path class="cls-1" d="M278.359002719,79.9954259857c-.7033171776-18.1174519987-16.1762950859-32.6198487676-35.2361948929-32.8167767188h-1.1253117769c-.4079145191,0-.801791885,0-1.1956477874.028133331v-.028133331h-3.0805326723l-57.7704725427-.0140639826h0l-27.1621059666.0140639826c.7033171776,18.1174519987,16.1762950859,32.6198541335,35.2502642413,32.8167820847h1.1112316967c.4079145191,0,.801791885,0,1.1956477874-.028133331v.028133331h3.0805326723l57.770461811.0140639826h0l27.1480473499-.0140639826.0140800802-.0000053659Z" fill="#000"/>
            <path d="M251.197265625,80.853515625l-61.6953125-.015625c-.1164550781.0009765625-.2333984375.0009765625-.3518066406.0009765625h-1.1110839844c-19.5192871094-.2001953125-35.3696289062-14.9716796875-36.0935058594-33.626953125l-.0341796875-.876953125,89.734375.0009765625c.1162109375-.0009765625.2333984375-.0009765625.3518066406-.0009765625h1.1252441406c19.5112304688.201171875,35.35546875,14.97265625,36.0793457031,33.626953125l.0341796875.876953125-28.0390625.0146484375ZM191.1899414062,79.1513671875h86.2797851562c-1.1423339844-17.3388671875-16.0607910156-30.939453125-34.3557128906-31.12890625h-1.1164550781c-.3864746094.0029296875-.7609863281,0-1.1352539062.0263671875l-.9045410156.0654296875v-.091796875h-86.2797851562c1.142578125,17.33984375,16.0671386719,30.9404296875,34.3698730469,31.12890625h1.1022949219c.3894042969-.00390625.7624511719,0,1.1374511719-.025390625l.90234375-.0625v.087890625Z" fill="#000"/>
          </g>
          <g>
            <path class="cls-1" d="M415.4495964301,1.1817045241h-87.9990418332v.0421989904c-.6329811672-.0281326603-1.2659623344-.0421989904-1.9130235817-.0421989904-19.2568277582,0-34.9267336176,14.1929411111-35.644109412,31.9306011899h125.57021198V1.1817045241h-.0140371531Z" fill="#000"/>
            <path d="M416.3076171875,33.9560546875h-127.2932128906l.0356445312-.8779296875c.7426757812-18.359375,16.7700195312-32.740234375,36.4875488281-32.740234375.4875488281,0,.9675292969.0078125,1.4453125.0234375l.4675292969-.0234375h88.8571777344v33.6181640625ZM290.7846679688,32.2685546875h123.8349609375V2.025390625h-86.3251953125v.0390625l-.8818359375.001953125c-.6201171875-.02734375-1.2407226562-.041015625-1.875-.041015625-18.4916992188,0-33.5791015625,13.2138671875-34.7529296875,30.2431640625Z" fill="#000"/>
          </g>
          <g>
            <path class="cls-1" d="M289.8934001397,124.3747388222h88.0131219134v-.056266662c.6330026307.0281279651,1.2659623344.056266662,1.9130021182.056266662,19.2568277582,0,34.9407922343-14.1929354937,35.644109412-31.9305955725h-27.1621059666v-.0281279651h-57.7704832745v.0281279651h-40.637665666v31.9305955725h.0000214635Z" fill="#000"/>
            <path d="M379.8195800781,125.21875c-.4750976562,0-.9426269531-.0146484375-1.4079589844-.033203125l-.5051269531.033203125h-88.8571777344v-33.6181640625h127.2924804688l-.0349121094.876953125c-.7280273438,18.359375-16.7551269531,32.7412109375-36.4873046875,32.7412109375ZM377.9448242188,123.4755859375c.6203613281.02734375,1.2404785156.0556640625,1.8747558594.0556640625,18.5053710938,0,33.5927734375-13.21484375,34.7534179688-30.2431640625h-123.8356933594v30.2431640625h86.3251953125v-.0390625l.8823242188-.0166015625Z" fill="#000"/>
          </g>
          <g>
            <path class="cls-1" d="M415.4636335832,79.9954286631c-.7033171776-18.1174519987-16.190332239-32.6198514449-35.2502105825-32.8167793961h-1.1112531603c-.4079359826,0-.801791885,0-1.1956477874.028133331v-.028133331h-3.0805326723l-57.7704832745-.0140639826h0l-27.1621059666.0140639826c.7033171776,18.1174519987,16.1762950859,32.6198541335,35.2502535096,32.8167820847h1.1253117769c.3938559024,0,.801791885,0,1.1956477874-.028133331v.028133331h3.0805326723l57.770461811.0140639826h0l27.1480258864-.0140666711Z" fill="#000"/>
            <path d="M388.3161621094,80.853515625l-61.6955566406-.015625c-.1179199219.0009765625-.2353515625.0009765625-.3515625.0009765625h-1.1254882812c-19.5190429688-.2001953125-35.3693847656-14.9716796875-36.0935058594-33.626953125l-.0341796875-.876953125,89.7346191406.0009765625c.1162109375-.0009765625.2333984375-.0009765625.3515625-.0009765625h1.111328125c19.5190429688.2021484375,35.3693847656,14.97265625,36.0935058594,33.626953125l.0341796875.876953125-28.0249023438.0146484375ZM328.30859375,79.1513671875h86.2658691406c-1.1428222656-17.3388671875-16.0673828125-30.939453125-34.3698730469-31.12890625h-1.1025390625c-.3852539062.0029296875-.7612304688,0-1.1350097656.0263671875l-.9045410156.0654296875v-.091796875h-86.2800292969c1.1428222656,17.33984375,16.0673828125,30.9404296875,34.3698730469,31.12890625h1.1166992188c.3671875-.0009765625.7622070312,0,1.1372070312-.025390625l.90234375-.0625v.087890625Z" fill="#000"/>
          </g>
        </g>
      </g>
    </g>
  </g>
</svg>
