<?xml version="1.0" encoding="UTF-8"?>
<svg id="Layer_2" data-name="Layer 2" xmlns="http://www.w3.org/2000/svg" viewBox="0 0 1445.8957833923 309.5806901795">
  <defs>
    <style>
      .cls-1 {
        fill: #17e597;
      }

      .cls-2 {
        fill: #262626;
      }
    </style>
  </defs>
  <g id="Layer_1-2" data-name="Layer 1">
    <g>
      <path class="cls-2" d="M388.608926489,136.9169235926c0-46.221461554-28.3470252712-74.6516992571-72.8230553272-74.6516992571-53.2031875462,0-87.2045990425,34.7503233832-87.2045990425,90.7786744705,0,51.7926353472,32.2559799982,87.8702984975,91.7772236531,87.8702984975,23.7744006606,0,46.5543112816-4.9034447666,64.426717993-13.6326318283l-6.9817259922-36.0796927218c-13.7178738317,5.9040235207-33.6705913402,9.0620367893-50.4612364371,9.0620367893-27.3505056601,0-40.6523173324-13.9675111274-41.315987216-34.9979311073h99.4246491003c2.1614936575-10.1437984038,3.1580132686-18.870955894,3.1580132686-28.3490548427ZM336.0714383979,130.268047328h-49.7123245501c0-19.9527175085,10.1397392607-32.2559799982,27.6813258161-32.2559799982,14.3815437153,0,22.7778810495,11.2235304467,22.7778810495,26.2687440456,0,1.7454314981-.3328497275,4.5726246106-.7468823154,5.9872359526Z"/>
      <path class="cls-2" d="M523.8339683211,65.841329335l-32.9196498817,120.4550690803-32.9196498818-120.4550690803h-56.3632303863l59.5232732264,171.5820049724h59.6044560867l59.5212436549-171.5820049724h-56.4464428182Z"/>
      <path class="cls-2" d="M721.0766267645,65.841329335l-31.1742183837,122.2025301498-31.5070681112-122.2025301498h-58.1086618844l62.0155870399,175.8217798555-22.445031322,67.9175809891h56.3632303863l81.3026050933-243.7393608446h-56.4464428182Z"/>
      <path class="cls-2" d="M877.6134181381,62.2652243355c-59.1904234988,0-91.3611614936,38.9068858344-91.3611614936,89.3660926999,0,50.3780240052,32.1707379948,89.2828802681,91.3611614936,89.2828802681,59.1883939273,0,91.4443739255-38.9048562629,91.4443739255-89.2828802681,0-50.4592068656-32.2559799982-89.3660926999-91.4443739255-89.3660926999ZM877.6134181381,199.5982100876c-27.2672932282,0-35.3307808349-23.8576130925-35.3307808349-47.9668930521,0-24.19046282,8.0634876067-47.9668930521,35.3307808349-47.9668930521,27.3484760886,0,35.4139932667,23.7764302321,35.4139932667,47.9668930521,0,24.1092799597-8.0655171782,47.9668930521-35.4139932667,47.9668930521Z"/>
      <path class="cls-2" d="M1106.8307270182,62.2652243355c-18.9541683259,0-37.1594247648,7.3998177231-47.9668930521,25.9379238896v-22.3618188901h-53.9520994332v171.5820049724h56.0303806588v-117.7131179711c5.2383240656-7.3166052912,13.9654815559-13.3018116723,25.5218617301-13.3018116723,18.2884688708,0,27.0176559325,12.9689619448,27.0176559325,41.315987216v89.6989424275h56.0303806588v-88.617180813c0-45.555762099-17.2087368278-86.5409291589-62.6812864949-86.5409291589Z"/>
      <path class="cls-1" d="M1389.8633731621,222.7089408646c32.9196498817-21.365299279,51.1269358922-59.1883939273,51.1269358922-101.9189924853,0-66.172149491-43.3942684415-120.7899483793-119.0445168812-120.7899483793s-119.1277293131,54.6177988883-119.1277293131,120.7899483793,43.4774808734,120.8731608112,119.1277293131,120.8731608112c3.1580132686,0,4.9054743381-.4160621594,6.6509058361-.7489118869l90.362612311,59.8540933824,26.9364730722-40.8999250565-56.0324102303-37.1594247648ZM1321.945792173,196.1073470915c-40.6523173324,0-61.6827373123-31.1742183837-61.6827373123-75.3173987122s21.0304199799-75.3173987122,61.6827373123-75.3173987122c40.567075329,0,61.601554452,31.1742183837,61.601554452,75.3173987122s-21.034479123,75.3173987122-61.601554452,75.3173987122Z"/>
      <path class="cls-2" d="M70.881536271,4.2397748831v45.4725496671h1.1629444749c46.5543112816,0,78.1445918247,26.6015937731,78.1445918247,71.0776238291s-31.5902805431,71.0776238291-78.1445918247,71.0776238291h-1.1629444749v45.4725496671c81.3858175252-.8321243189,136.7504987289-49.6291121183,136.7504987289-116.5501734963S152.2673537961,5.0718992019,70.881536271,4.2397748831Z"/>
      <rect class="cls-1" y="4.2397748831" width="50.3780240052" height="233.1003469925"/>
    </g>
  </g>
</svg>