<?xml version="1.0" encoding="UTF-8"?>
<svg id="Layer_2" data-name="Layer 2" xmlns="http://www.w3.org/2000/svg" viewBox="0 0 621.0124454579 124.8844857931">
  <defs>
    <style>
      .cls-1 {
        fill: #f44601;
      }

      .cls-2 {
        fill: #fff;
      }
    </style>
  </defs>
  <g id="Layer_1-2" data-name="Layer 1">
    <g id="uuid-bb96bee2-814f-4d96-bea2-e2cdb6e8dd82" data-name="Layer 1-2">
      <g>
        <path class="cls-2" d="M152.3448049942,124.8844857931h-18.6335120605v-28.2991012219c-3.3786443859,3.3786443859-8.2702386945,5.4716850381-14.5650242312,5.4716850381-15.6076241767,0-24.5755351143-12.1113863157-24.5755351143-29.11436694,0-18.4061718523,11.2961205976-30.2823921506,32.8379390284-30.2823921506,9.9007701307,0,17.590912115,1.8578626732,24.9282975971,5.589269542v76.6349057323h.0078347804ZM133.7113048952,84.811079216v-27.0213322686c-1.9832879383-.9328532124-4.0763226097-1.2777689533-6.5221257448-1.2777689533-9.4304201536,0-13.9770927405,6.522119764-13.9770927405,16.3052964197,0,9.2109266873,3.6059845941,15.0275274664,11.2961265784,15.0275274664,3.6138193745,0,6.5221137833-.9328532124,9.2030919069-3.0337226642Z"/>
        <path class="cls-2" d="M219.8158286061,43.8204949681v57.0685584017h-17.9358338367v-7.4549729764c-4.3036628179,6.4123730309-9.9007701307,8.6229892159-15.9525458984,8.6229892159-15.1372741995,0-20.3816250102-13.6243302576-20.3816250102-28.7616104379v-29.4749642033h18.6335120605v29.819885925c0,9.4382609147,2.4457911735,13.7497585131,8.5054136831,13.7497585131,3.8411476212,0,6.7494539915-1.9832879383,8.5054017216-4.4290850926v-39.1405593454h18.633500099-.0078228189Z"/>
        <path class="cls-2" d="M265.039520783,95.2997748567c-3.6059845941,3.6059786134-10.1281103389,6.7494480107-17.347902346,6.7494480107-10.2535146713,0-16.1955556674-7.2197979879-16.1955556674-16.3053024005,0-10.4886956407,6.8748702854-15.7252056902,18.9862685626-16.6658996637,4.5388378065-.3449217217,10.0183516443-.4625032352,13.8594992654-.5800907295v-1.8578656636c0-6.0596165288-3.6059845941-9.3206734205-10.363273366-9.3206734205-5.4716910189,0-10.598436393,1.3953564476-14.7923524778,3.4962318802l-3.3786443859-12.934492795c5.4795138378-3.135634617,13.0442514896-5.2365100495,21.6672466862-5.2365100495,15.9525458984,0,25.5083943074,8.3799854277,25.5083943074,24.920456836v33.3082830248h-17.9358338367v-5.5892665517l-.0078467419.0156815223ZM264.3418305977,87.2647111507v-8.4975729219c-3.7235661076.3527565021-6.5221257448.705518985-9.3206853819,1.0425999455-3.7235661076.4625032352-5.7068540459,2.0930346714-5.7068540459,5.3619323242,0,2.7985536564,1.9754411964,4.6642541004,5.5892725324,4.6642541004s6.8670474665-1.0504347259,9.4304201536-2.571219429l.0078467419.0000059807Z"/>
        <path class="cls-2" d="M350.2190380235,100.8890414083h-17.8182523231v-7.2197979879c-3.613807413,5.1189225553-9.3206853819,8.3799794469-17.1205621378,8.3799794469-12.8090645395,0-22.8274161838-11.2961265784-22.8274161838-28.9967854265,0-20.0288685081,13.5067547248-30.3921388837,29.5847049556-30.3921388837,3.9587291347,0,7.1022104936.5800937199,9.5480016671,1.3953564476v-25.3907903661h18.633500099v82.2241767696h.000023923ZM331.5776911826,83.7684792705v-26.2060665505c-1.6305194747-.5879314907-3.9587291347-.9406879928-6.6397072583-.9406879928-9.3206853819,0-13.8594992654,6.1771980423-13.8594992654,16.0779681731,0,8.8581701852,3.3786443859,15.019692686,10.9512048566,15.019692686,4.0763345712,0,7.2197920071-1.3953564476,9.5480016671-3.9509063158Z"/>
        <path class="cls-2" d="M400.6792342692,59.8906223801h-2.2106281465c-7.2197920071,0-12.5817243313,1.865700444-15.6076241767,5.5971073128v35.4013117155h-18.633500099v-57.0685464402h18.0534153502v9.555848409c2.0930466329-6.1772010327,6.6397072583-10.0261924054,13.8594992654-10.0261924054,2.0930466329,0,3.4962258995.2351719982,5.0091877836.705518985l-.4625032352,15.8349584041-.0078467419-.0000059807Z"/>
        <path class="cls-2" d="M434.826293334,102.0570696093c-19.6839348249,0-30.3921538356-12.9266520338-30.3921538356-29.7022984307s10.7081711647-29.6944606599,30.3921538356-29.6944606599,30.3921538356,12.9266550242,30.3921538356,29.6944606599-10.7160179066,29.7022984307-30.3921538356,29.7022984307ZM434.826293334,56.4022252802c-9.077675613,0-11.7586298136,7.9174762117-11.7586298136,15.9525399176s2.6809542006,15.9603806788,11.7586298136,15.9603806788,11.7586298136-7.9174762117,11.7586298136-15.9603806788-2.6731074587-15.9525399176-11.7586298136-15.9525399176Z"/>
        <path class="cls-2" d="M475.2759607544,100.8890414083v-57.0685464402h17.9358338367v7.4549729764c3.613807413-6.1615225008,9.6734538456-8.6073166647,15.9603687173-8.6073166647,15.1372741995,0,20.8441521685,13.624333248,20.8441521685,28.7616074475v29.4671294229h-18.633524022v-29.819885925c0-9.4382609147-2.9083183318-13.7419177519-8.9679169183-13.7419177519-3.8411715442,0-6.74944203,1.9832879383-8.4975908642,4.4290850926v39.1248838039h-18.633524022l-.0077988959-.0000119615Z"/>
        <path class="cls-1" d="M581.9972964256,102.0570696093c-.5879314907.1175815135-1.1680162395.2351749886-2.2184748884.2351749886-25.1634486627,0-39.595233781-18.1710028445-39.595233781-40.1831533102s14.4317372723-40.1831563006,39.595233781-40.1831563006,39.6030805229,18.1631650737,39.6030805229,40.1831563006c0,14.2044269679-6.0595985866,26.7783224996-17.0029806243,33.8805329932l18.633524022,12.3465613043-8.9679169183,13.6243362384-30.0472321139-19.919121775v.0156695608ZM600.2858987259,62.1090853069c0-14.6826087351-6.9924517989-25.045882101-20.5070293427-25.045882101s-20.4913837049,10.363273366-20.4913837049,25.045882101c0,14.6826117254,6.9924517989,25.0380443303,20.4913837049,25.0380443303s20.5070293427-10.363273366,20.5070293427-25.0380443303Z"/>
        <g>
          <path class="cls-1" d="M76.8622459405,2.8455885046v2.3517259627c0,1.3012882464-1.0504347259,2.3517259627-2.3517259627,2.3517259627h-36.3184893863C17.9044737824,7.54904043,5.651981427,18.2101976791,5.651981427,35.636486704c0,13.3499634248,7.8939591614,21.3771863696,25.6024557803,28.0482506918,11.296123588,4.2252671679,14.4709530396,6.0988083731,14.8315532932,9.657754381.2273342274,2.2811770546-.5408958949,8.5367647662-13.0755965919,8.5367647662H2.3517259627c-1.3012883399,0-2.3517259627-1.0504347259-2.3517259627-2.3517259627V2.8455885046C0,1.2777711027,1.2777711027,0,2.8455885046,0h71.1710651933c1.5756580696,0,2.8455862618,1.2777711027,2.8455922426,2.8455885046Z"/>
          <path class="cls-1" d="M47.0972333821,25.7513980956h35.3699546516c1.3012912368,0,2.3517259627,1.0504377163,2.3517259627,2.3517259627v79.5824039469c0,1.5756520889-1.2777689533,2.8455922426-2.8455862618,2.8455922426H10.8022610461c-1.5756565744,0-2.8455885046-1.2777749341-2.8455885046-2.8455922426v-3.3394465609c0-1.3012912368,1.0504377163-2.3517259627,2.3517259627-2.3517259627h37.5021886433c31.5601640943,0,31.3171543253-22.772548798,31.3171543253-28.7224126129,0-15.5213937462-14.7296443309-22.7333509729-30.1177690605-28.8635164099-10.6219616669-4.2252671679-13.0677558308-6.2634284728-13.0677558308-11.1706983229,0-5.4403249839,4.4917962299-7.4784892791,11.1628575618-7.4784892791l-.0078407612-.0078407612Z"/>
        </g>
      </g>
    </g>
  </g>
</svg>