<?xml version="1.0" encoding="UTF-8"?>
<svg id="Layer_2" data-name="Layer 2" xmlns="http://www.w3.org/2000/svg" viewBox="0 0 1298.6774527049 316.6654209054">
  <defs>
    <style>
      .cls-1 {
        fill: #fff;
      }

      .cls-2 {
        fill: #847bff;
      }
    </style>
  </defs>
  <g id="Layer_1-2" data-name="Layer 1">
    <g>
      <path class="cls-1" d="M339.5245140329,316.6654209054l22.5308822838-68.2958957159-62.3121115173-176.7274491203h58.4403171304l31.6832120048,122.8644184595,31.3332699861-122.8644184595h56.6793909463l-81.6755698878,245.0233448363h-56.6793909463Z"/>
      <path class="cls-1" d="M616.7615919472,120.2245713958h-6.6892762814c-21.8265118101,0-38.0203030494,5.632720571-47.1748759885,16.8981617129v107.021690848h-56.3272057095V71.6420760691h54.5685227435v28.8679733284c6.3370910446-18.6579662879,20.0655856261-30.2755926666,41.8920974363-30.2755926666,6.3370910446,0,10.5610706683.7032488646,15.1394787468,2.1119898118l-1.4087409473,47.878124853Z"/>
      <path class="cls-1" d="M728.0184785093,247.6651547158c-59.4968728408,0-91.8844553193-39.0768587598-91.8844553193-89.7713438984s32.3875824785-89.7713438984,91.8844553193-89.7713438984c59.4946296227,0,91.8822121011,39.0768587598,91.8822121011,89.7713438984s-32.3875824784,89.7713438984-91.8822121011,89.7713438984ZM728.0184785093,109.6635007275c-27.4592323811,0-35.5572496098,23.938501622-35.5572496098,48.2303100899,0,24.2906868588,8.0980172286,48.2291884808,35.5572496098,48.2291884808s35.5550063917-23.938501622,35.5550063917-48.2291884808c0-24.2918084679-8.0957740106-48.2303100899-35.5550063917-48.2303100899Z"/>
      <path class="cls-1" d="M853.6857979458,244.1444239567V71.6420760691h54.2163375067v22.5308822838c10.9132559051-18.6579662879,29.2201585652-26.0504914339,48.2291884809-26.0504914339,45.7661350412,0,63.0164819909,41.1888485717,63.0164819909,86.9549836129v89.0669734247h-56.3272057095v-90.1235291352c0-28.5157880916-8.8001444842-41.5410338085-27.1070471443-41.5410338085-11.6176263787,0-20.4177708629,5.9849058078-25.7005494151,13.3774309538v118.2871319899h-56.3272057095Z"/>
      <path class="cls-2" d="M1180.7425059519,247.6651547158c-1.7609261841.3521852368-3.5196091501.7043704736-6.6892762814.7043704736-76.0406060988,0-119.6936297191-54.9195863713-119.6936297191-121.4556775122,0-66.53721275,43.6530236203-121.4556775122,119.6936297191-121.4556775122,76.0428493168,0,119.6958729372,54.9184647622,119.6958729372,121.4556775122,0,42.9486531467-18.3069026601,80.9700778051-51.3988556122,102.4444043785l56.3272057095,37.3170541848-27.1070471443,41.1888485717-90.8278996088-60.1990000963ZM1236.0131559509,126.9138476772c0-44.358515703-21.1221413365-75.689542471-61.9599262804-75.689542471-40.8355417258,0-61.9599262804,31.331026768-61.9599262804,75.689542471,0,44.3573940939,21.1243845546,75.689542471,61.9599262804,75.689542471,40.8377849439,0,61.9599262804-31.332148377,61.9599262804-75.689542471Z"/>
      <polygon class="cls-1" points="126.7143740732 26.2094795145 107.3733478834 52.4188188279 70.2536968887 0 108.1315555907 0 126.7143740732 26.2094795145"/>
      <polygon class="cls-1" points="219.5067393028 140.7957222941 200.5795868467 167.7861220989 254.2149308735 243.5201083279 292.3922591877 243.5201083279 219.5067393028 140.7957222941"/>
      <polygon class="cls-2" points="91.9142105617 73.4139379413 72.7111422831 99.4624665593 5.844176477 0 39.7941603404 0 91.9142105617 73.4139379413"/>
      <polygon class="cls-2" points="169.0942099829 212.6568995355 190.4107897792 243.5201083279 224.2163756384 243.5201083279 185.6027414098 189.1487083722 169.0942099829 212.6568995355"/>
      <polygon class="cls-2" points="217.3476419115 .0092532745 179.4462294198 .0092532745 0 243.5201083279 38.1548961335 243.5201083279 217.3476419115 .0092532745"/>
      <polygon class="cls-1" points="285.2947172178 .0092532745 247.8060568507 .0092532745 68.1770051583 243.5201083279 110.9484440776 243.5201083279 285.2947172178 .0092532745"/>
    </g>
  </g>
</svg>