<?xml version="1.0" encoding="UTF-8"?>
<svg id="Layer_2" data-name="Layer 2" xmlns="http://www.w3.org/2000/svg" viewBox="0 0 1515.5535888672 364.4518441976">
  <defs>
    <style>
      .cls-1 {
        fill: #08b9ff;
      }

      .cls-2 {
        fill: #fff;
      }
    </style>
  </defs>
  <g id="Layer_1-2" data-name="Layer 1">
    <g>
      <polygon class="cls-1" points="0 162.3066349411 0 268.0295239281 117.2110230963 320.8932733226 234.4243379727 268.0295239281 234.4243379727 162.3066349411 117.2110230963 109.4451860739 0 162.3066349411"/>
      <path class="cls-2" d="M262.2657405663,0l-72.7994289035,32.8317276464v65.6612159962l72.7994289035,32.8317276464,72.7971371233-32.8317276464V32.8317276464L262.2657405663,0Z"/>
      <path class="cls-2" d="M691.4888552894,177.1400857957h-6.677302678c-21.7884962944,0-37.9543986298,5.6225414755-47.0921984725,16.867606932v106.8350059242h-56.2299283372v-172.2004073349h54.4734800327v28.8166337761c6.3241935885-18.624072731,20.0319780119-30.2222647714,41.8181650316-30.2222647714,6.3265028632,0,10.5433783544.7016696075,15.1111236384,2.1095923829l-1.4033392151,47.793833091Z"/>
      <path class="cls-2" d="M844.3543706597,135.6716009306l-5.622523981,40.0639910128c-8.7846207752-3.866058182-22.1392961092-7.0304642509-34.7923018355-7.0304642509-29.8691381874,0-44.9825711005,17.5715683197-44.9825711005,46.037367292,0,28.4657902251,15.1134329131,46.0373585448,44.9825711005,46.0373585448,12.6530057264,0,26.0076810603-3.1621055415,34.7923018355-7.0281724707l5.622523981,40.06399976c-12.6530057264,6.3241935885-30.9239168844,10.5411040688-48.4954677096,10.5411040688-58.3395557091,0-93.1318575447-36.1956410506-93.1318575447-89.6142899028,0-53.416357072,34.7923018355-89.6142899028,93.1318575447-89.6142899028,17.5715508252,0,35.8424619832,4.2168929857,48.4954677096,10.5433958489"/>
      <path class="cls-2" d="M953.9925736075,304.358613063c-59.3897158568,0-91.7238997803-39.009186074-91.7238997803-89.6142811556,0-50.6073868617,32.3341839235-89.6142899028,91.7238997803-89.6142899028s91.7238997803,39.0069030411,91.7238997803,89.6142899028c0,50.6050950815-32.3341839235,89.6142811556-91.7238997803,89.6142811556M953.9925736075,166.5973722325c-27.4110202754,0-35.4939714431,23.8957619082-35.4939714431,48.146959675,0,24.246596712,8.0829511677,48.1446591476,35.4939714431,48.1446591476s35.4939714431-23.8980624356,35.4939714431-48.1446591476c0-24.2511977668-8.0829511677-48.146959675-35.4939714431-48.146959675"/>
      <path class="cls-2" d="M1075.9268244012,300.8433809376v-172.2004073349h54.1226102399v22.4901309129c10.8942481472-18.624072731,29.1651593052-26.003062511,48.1447378728-26.003062511,45.6841707301,0,62.9049217405,41.1164954241,62.9049217405,86.8030104178v88.9103285151h-56.2276190625v-89.9651247066c0-28.4657814779-8.7870000279-41.469622008-27.0602204606-41.469622008-11.5981570514,0-20.3850871013,5.9756680594-25.6568112675,13.3546753339v118.0800713807h-56.2276190625Z"/>
      <path class="cls-1" d="M1397.826626576,304.3581494586c-1.7564483045.3508348038-3.5151359057.7039613877-6.677302678.7039613877-75.9087972596,0-119.4857898484-54.8242885947-119.4857898484-121.2444774496,0-66.4201976022,43.5769925888-121.2444774496,119.4857898484-121.2444774496s119.4856498924,54.8242798474,119.4856498924,121.2444774496c0,42.8729612231-18.2732204327,80.8296516331-51.3090039857,102.2649863545l56.2276190625,37.2527290223-27.0578412079,41.1164954241-90.6691210833-60.093694739ZM1453.0017762162,183.8176333968c0-44.280901493-21.0867567088-75.5579624559-61.8524523182-75.5579624559s-61.8502130215,31.2770609629-61.8502130215,75.5579624559c0,44.2808927457,21.0845174122,75.5579537086,61.8502130215,75.5579537086s61.8524523182-31.2770609628,61.8524523182-75.5579537086"/>
      <path class="cls-2" d="M482.0485598989,255.5090740663h-89.616581683l-14.4071797452,45.3333971571h-59.3920251314l87.1561544963-234.0505503784h63.2581008079l87.1515709359,234.0505503784h-59.3897508458l-14.7602888347-45.3333971571ZM407.1922670506,209.8225503253h60.0959690246l-29.8714124731-98.7520547565-30.2245565515,98.7520547565Z"/>
    </g>
  </g>
</svg>