<?xml version="1.0" encoding="UTF-8"?>
<svg id="Layer_2" data-name="Layer 2" xmlns="http://www.w3.org/2000/svg" viewBox="0 0 416.341796875 210.7280210353">
  <defs>
    <style>
      .cls-1 {
        fill: #3477c9;
      }

      .cls-2 {
        fill: #fff;
      }
    </style>
  </defs>
  <g id="Layer_1-2" data-name="Layer 1">
    <g>
      <path class="cls-2" d="M188.0673590093,196.4366108342v-9.8464404871h-14.3054688177c-1.1253117769,0-2.2365434737-.0421973136-3.3337272855-.1406720209-1.1112424285-.112533324-2.166218195-.3375999721-3.1930552645-.6611198641-1.0127784529-.3516585888-1.8708262682-.8439891986-2.5882020625-1.5051090627-1.2659730661-1.1675090905-1.9974182089-2.5038074353-2.2084155085-4.0370337314-.1969279512-1.5191676793-.3094612752-3.0664633238-.3516585888-4.6700256303-.0703360105-.5626558885-.1265919407-1.1112424285-.1406612892-1.6457596201-.0281279651-.5626558885-.0281279651-1.1112424285-.0281279651-1.6457596201v-31.0584891406h-11.6750694417v31.0584891406c0,1.4769703658.0140693484,3.0101966618.0703360105,4.6278283167.0703360105,1.589492958.2250666481,3.1508686827.4501225644,4.6700363621.2531946132,1.5191676793.6470505156,3.0101966618,1.1956370556,4.4871670276.5626558885,1.4488316689,1.3362983448,2.7851300137,2.3490767977,3.9948364178,1.0549757665,1.3362983448,2.222484857,2.4194128082,3.5447138534,3.2634020068,1.3362983448.8299091184,2.7288740834,1.4628902855,4.2058337174,1.9270821984,1.4910289824.4782505296,3.0242660102.7877118048,4.5996896198.9424424424,1.589492958.1687892543,3.207124613.2391252648,4.8669535815.2391252648h16.5420230232Z"/>
      <path class="cls-2" d="M234.739498079,176.8140658705c0-6.7799771633-1.8989649651-12.012658682-5.6827933514-15.712103173-3.7697697697-3.6853858743-9.0165313687-5.542142794-15.7402418699-5.542142794-3.1086713692,0-5.97819601.4782505296-8.5945367694,1.4066343553-2.6163407594.9424424424-4.8669643133,2.278751519-6.7377691179,4.0370444631-1.8708262682,1.730164979-3.3337165537,3.8682444771-4.3886923202,6.414249226-1.0549757665,2.5178767838-1.5754236096,5.3592734595-1.5754236096,8.4820034454,0,6.7518384664,1.8426875713,11.9704613685,5.542142794,15.6417778943,3.6853751425,3.6713165259,8.9039980446,5.4999454805,15.6417671626,5.4999454805,3.1508686827,0,6.0344519403-.4501332962,8.6648727799-1.3362983448,2.6163407594-.8861865122,4.8669643133-2.1802875434,6.7659078148-3.896383174,1.9130235817-1.7020370139,3.4040525642-3.7979084666,4.4871670276-6.3157959822,1.0690343832-2.517866052,1.6176209232-5.4155508533,1.6176209232-8.693000745l-.0000214635.0140693484ZM223.4160872262,176.2514207138c0,1.6598289685-.1547306376,3.2493219266-.4501332962,4.7684896059-.3094612752,1.5191676793-.8439891986,2.8273273273-1.6176209232,3.9245004073-.7736531881,1.1112316967-1.8004902577,1.9833595922-3.0805326723,2.658538073-1.2659623344.6611198641-2.8273273273.984639756-4.6981535954.984639756s-3.4884471913-.2954026586-4.7684896059-.9143037455c-1.2941010312-.6048424703-2.335018181-1.4488316689-3.1508686827-2.517866052-.801791885-1.0690343832-1.3784956584-2.335018181-1.7582929441-3.7838498499-.3516585888-1.4769703658-.5204478431-3.0664633238-.5204478431-4.7966283028s.1547306376-3.3899939475.4501332962-4.9091508951c.2954026586-1.5191676793.8299091184-2.8413966757,1.5754236096-3.9667084527.7455144912-1.1393703936,1.7582929441-2.0396155225,3.0523939754-2.7007353865,1.3081596479-.6751892125,2.9539407315-1.0127784529,4.9372788602-1.0127784529,1.8708262682,0,3.4462498778.3375892404,4.7262922923.984639756,1.3081596479.6329811672,2.3490767977,1.5050983309,3.1227299858,2.5882020625.7736531881,1.1112424285,1.3081596479,2.4053434597,1.6457596201,3.8963724422.3516585888,1.5050983309.5204478431,3.1086606374.5204478431,4.7966283028l.0140800802.0000107318Z"/>
      <path class="cls-2" d="M281.5944850198,196.1271495589v-40.0046844988h-20.6916008104c-2.4756687384,0-4.7684896059.2250666481-6.8784411389.6611198641-2.1099515329.4501225644-4.1777057523,1.3785063902-6.2032626581,2.7991993621-2.7570127803,1.9411515469-4.6840949788,4.4027616686-5.7531293619,7.3988997138-1.0831144634,2.9679993482-1.6176209232,6.0625906372-1.6176209232,9.2556566335,0,2.9258020346.4501332962,5.7672094421,1.3644370417,8.5242007589.9143037455,2.7570127803,2.4616101218,5.176404125,4.6700363621,7.216041111,2.0536956027,1.8708262682,4.191764369,3.0805326723,6.414249226,3.643177829,2.2506235539.54858654,4.7122336757.801791885,7.4270276789.801791885h10.169960379c0,1.2097064041-.0843946272,2.1943461601-.2391252648,2.9398606513-.1687892543.7455144912-.4782505296,1.3081596479-.9143037455,1.7160956305-.4501332962.4219945993-1.0549757665.7033171776-1.8286289546.8439891986s-1.7723515608.2109865679-2.9820579649.2109865679h-20.5087314758v8.5945367694h22.013819075c2.3209381008,0,4.3605750868-.1687892543,6.1329266476-.4923306098,1.8004902577-.3375999721,3.319657937-.9424424424,4.557503038-1.8286289546,1.237845101-.872106432,2.2506235539-2.081812836,3.0101966618-3.643177829.7877118048-1.5473063762,1.3081596479-3.5587832018,1.5754236096-6.0344519403.0703360105-.4501332962.1265919407-.9002451288.1687892543-1.3362983448.0421973136-.4501332962.0703360105-.872106432.0703360105-1.2941010312l.0421973136.0281172334ZM270.5101994317,187.8139568314h-8.6226754663c-3.5728418185,0-6.1751239612-1.0409171498-7.7786862677-3.1227299858-1.5895036898-2.1099515329-2.3772154946-4.8528842331-2.3772154946-8.2710061457,0-1.6598289685.1547306376-3.1930552645.4501332962-4.6278283167.2954026586-1.4488316689.8299091184-2.6726074214,1.5754236096-3.6853858743.7455144912-1.0268478013,1.7301542472-1.8426875713,2.9820579649-2.4475407733,1.237845101-.6048532021,2.771071397-.9143144773,4.5997003516-.9143144773h9.185320623v23.0688055732h-.0140586167Z"/>
      <path class="cls-2" d="M303.622384175,151.986978085v-10.7607549644h-11.0842855881v10.7607549644h11.0842855881ZM303.622384175,196.4366108342v-40.314145774h-11.0842855881v40.314145774h11.0842855881Z"/>
      <path class="cls-2" d="M351.2932216174,183.6784483927c0-2.081812836-.3797972857-3.8401165119-1.1253117769-5.2889481808-.7595731079-1.4769703658-1.7582929441-2.658538073-3.0101966618-3.5728525503s-2.7288740834-1.5754343414-4.4168310171-1.9974182089c-1.6879569336-.4219838675-3.4743885747-.6329811672-5.3592734595-.6329811672h-6.52678255c-.7314558745,0-1.5191676793,0-2.3772154946-.0281279651-.8439891986-.0140693484-1.6317010034-.1406612892-2.3490767977-.3516585888-.7033171776-.2250666481-1.2941010312-.6048532021-1.7582929441-1.1253117769-.4782505296-.5345171916-.7033171776-1.3362983448-.7033171776-2.3772154946,0-1.589492958.436053216-2.5600740974,1.3362983448-2.9117326862.9143037455-.3657279373,2.0114768256-.5626558885,3.2915192401-.5626558885.2813225784,0,.5345279233,0,.7736531881-.0281279651.2531838815-.0140693484.5204478431-.0281279651.801791885-.0281279651h19.5944062668v-8.6226647345h-23.6596001586c-2.2646821706,0-4.2761589961.1969279512-6.0344519403.5907838536-1.7301542472.3797865539-3.3337165537,1.4769703658-4.7966283028,3.2915192401-1.8286289546,2.2646821706-2.7288740834,4.8950922784-2.7288740834,7.8490222782,0,2.5882020625.6329811672,4.9654175571,1.8989649651,7.0753690901,1.2659623344,2.1240208814,3.1367886025,3.6572471774,5.6405960379,4.5996896198.9283838257.3516585888,2.0114768256.5907945854,3.2211832297.7314451428,1.2097064041.1265919407,2.4616101218.1969279512,3.755711153.2391252648,1.3081596479.0281386969,2.5600848291.0281386969,3.755711153,0,1.2097064041-.0421973136,2.2928208675-.0703360105,3.2634020068-.0703360105.7736531881,0,1.5473063762.0281386969,2.3490767977.0703360105.7877118048.0281386969,1.5191676793.1547306376,2.1802875434.3797972857.6751784808.2109865679,1.2097064041.5907838536,1.6176209232,1.1534504738.4219945993.54858654.6329811672,1.3362983448.6329811672,2.3772154946,0,1.4347730522-.436053216,2.3068794841-1.2941010312,2.6303993761-.8439891986.3375999721-1.8708262682.54858654-3.0805326723.6611198641-.6189225505.0562559303-1.2237650208.0703360105-1.8286289546.0703360105h-21.4230352214v8.6226754663h22.8296695767c1.1675090905,0,2.3631354144,0,3.6150605956-.0281386969,1.237845101-.0140586167,2.4334714249-.1687892543,3.6150605956-.4501332962,1.3784956584-.2813225784,2.5741434458-.8299091184,3.5728418185-1.6457596201,1.0268370696-.8439891986,1.8989649651-1.8286289546,2.5882020625-2.9398606513.7173757943-1.1393703936,1.2659623344-2.3631354144,1.6176209232-3.6853751425.3657172055-1.3362983448.5626451567-2.658538073.5626451567-3.9948364178l-.0421543865-.0000214635Z"/>
      <path class="cls-2" d="M415.4638525742,201.2191805203v-9.8464404871h-9.4244673513c.7736317246-.9283838257,1.4488316689-1.8426875713,2.0677542194-2.7288740834.6048424703-.8861865122,1.1534504738-1.8708262682,1.6457810836-2.9820579649.8439891986-1.8286289546,1.4488316689-3.8682444771,1.8567676515-6.1329266476.4219731358-2.2646821706.6330026307-4.388703052.6330026307-6.3861212609,0-2.6444687245-.3375785086-5.485876132-1.0127784529-8.5523394558-.6611198641-3.0523939754-1.6176209232-5.7531400937-2.8695461044-8.0600195778-1.1112531603-2.0536848709-2.5460047489-3.7838498499-4.3183777733-5.1904842052-1.7582929441-1.4066343553-3.6853751425-2.5038074353-5.7812465953-3.3337272855-2.1099515329-.8439784668-4.304297693-1.4347623204-6.5971185605-1.7864209092-2.2928208675-.3657279373-4.5434444214-.5626558885-6.7377905815-.5626558885-9.4525845847,0-16.3591644204,2.3772154946-20.7197395073,7.1175664036-4.3464950066,4.7544202575-6.52678255,11.7594640688-6.52678255,21.0432486674,0,2.0536848709.1265919407,4.1214390903.3797972857,6.2032626581.2813225784,2.0536956027.7595731079,4.0651724283,1.4347730522,6.0344519403.7033386412,1.9411622786,1.6176423867,3.7838498499,2.7288526199,5.4999454805,1.1393703936,1.7160956305,2.5741219823,3.2211832297,4.2761804597,4.557503038,2.7147940032,2.081812836,5.7390492817,3.460329958,9.0868459156,4.1355084387,3.3337165537.6611198641,6.6674331074.984639756,9.987112508.984639756h29.8768999698l.0140800802-.0140586167ZM399.2313230215,173.072424066c0,2.4756794702-.1687892543,4.8669535815-.5204478431,7.1456943688-.3516585888,2.2928208675-1.0549757665,4.3183777733-2.1099515329,6.0625906372-1.0549757665,1.7301542472-2.4897273551,3.1086713692-4.3183777733,4.1355084387-1.8286074911,1.0127784529-4.1917858325,1.5051090627-7.1175664036,1.5051090627s-5.3311562262-.4923306098-7.216041111-1.4769703658c-1.8708048046-.9987198362-3.3477966339-2.3490767977-4.4168524806-4.0370337314-1.0830929998-1.6879569336-1.8286074911-3.643177829-2.2506235539-5.8938013829-.4219731358-2.2646821706-.6330026307-4.6981535954-.6330026307-7.2863663897s.2109865679-4.9232202435.6330026307-7.1175664036c.4219731358-2.222484857,1.167487627-4.1495670554,2.2506235539-5.8234653724,1.0690558467-1.6598289685,2.5319246687-2.9679993482,4.3886923202-3.9245111391,1.8426875713-.9565117909,4.2058229857-1.4347623204,7.0753690901-1.4347623204,2.7147940032,0,4.9935347905.5063892264,6.8362223617,1.5050983309,1.8426875713.984639756,3.3055993204,2.3068794841,4.3886923202,3.9667084527,1.0690558467,1.6457596201,1.8426875713,3.5728525503,2.3209381008,5.7812680588.4641704493,2.1943461601.7033171776,4.4871670276.7033171776,6.8784411389l-.0139942261.0140586167Z"/>
      <g>
        <g>
          <path class="cls-1" d="M103.615234375,92.0146484375c-3.958984375,8.0302734375-14.9150390625,13.4267578125-27.2626953125,13.4267578125l-.9233398438.00390625c-11.9633789062-.26953125-22.4682617188-5.591796875-26.3256835938-13.416015625l-.232421875-.470703125H0v33.6455078125h98.53515625l.5483398438-.0361328125c.5209960938.015625,1.0444335938.0224609375,1.5756835938.0224609375,21.845703125,0,39.5966796875-14.392578125,40.412109375-32.765625l.0390625-.880859375h-37.2626953125l-.232421875.470703125Z"/>
          <path class="cls-1" d="M49.103515625,33.17578125c3.9580078125-8.02734375,14.9125976562-13.4228515625,27.2626953125-13.4267578125,12.3422851562.00390625,23.2915039062,5.3994140625,27.2490234375,13.4267578125l.232421875.470703125h37.2626953125l-.0390625-.880859375C140.255859375,14.392578125,122.5048828125,0,100.6591796875,0c-.4306640625,0-.8564453125.0048828125-1.2802734375.015625L0,0v33.646484375h48.87109375l.232421875-.470703125Z"/>
          <path class="cls-1" d="M141.1416015625,46.0390625h-37.2583007812l-.2392578125.4423828125c-3.9506835938,7.31640625-14.9125976562,12.2314453125-27.2778320312,12.2314453125-12.3588867188,0-23.3266601562-4.916015625-27.2919921875-12.232421875l-.2392578125-.44140625H0v34.4765625h48.8720703125l.2314453125-.470703125c3.9526367188-8.03125,14.9145507812-13.4267578125,27.27734375-13.4267578125,12.353515625,0,23.3100585938,5.3955078125,27.2626953125,13.4267578125l.2319335938.470703125h37.2626953125l-.0390625-.880859375c-.2700195312-6.0751953125-2.4770507812-11.966796875-6.392578125-17.0849609375,3.9145507812-4.677734375,6.1215820312-10.06640625,6.3920898438-15.6259765625l.04296875-.884765625Z"/>
          <path class="cls-1" d="M279.2172851562.337890625h-88.8569335938l-.46875.0234375c-.4814453125-.015625-.966796875-.0234375-1.4443359375-.0234375-19.732421875,0-35.759765625,14.3818359375-36.4873046875,32.7412109375l-.03515625.876953125h127.2924804688V.337890625Z"/>
          <path class="cls-1" d="M151.958984375,125.21875h88.857421875l.5048828125-.033203125c.4653320312.0185546875.9326171875.033203125,1.408203125.033203125,19.7319335938,0,35.7587890625-14.3818359375,36.4873046875-32.7412109375l.0346679688-.876953125h-127.2924804688v33.6181640625Z"/>
          <path class="cls-1" d="M188.0390625,80.8388671875h1.111328125c.1181640625,0,.2353515625,0,.3515625-.0009765625l61.6953125.015625,28.0390625-.0146484375-.0341796875-.876953125c-.7236328125-18.654296875-16.5678710938-33.42578125-36.0791015625-33.626953125h-1.125c-.1186523438,0-.2358398438,0-.3520507812.0009765625l-89.734375-.0009765625.0341796875.876953125c.7241210938,18.6552734375,16.57421875,33.4267578125,36.0932617188,33.626953125Z"/>
          <path class="cls-1" d="M416.3076171875.337890625h-88.8569335938l-.4672851562.0234375c-.4780273438-.015625-.9580078125-.0234375-1.4453125-.0234375-19.7177734375,0-35.7451171875,14.380859375-36.4877929688,32.740234375l-.0356445312.8779296875h127.29296875V.337890625Z"/>
          <path class="cls-1" d="M289.0498046875,91.6005859375v33.6181640625h88.8569335938l.5053710938-.033203125c.46484375.0185546875.9326171875.033203125,1.4077148438.033203125,19.7319335938,0,35.7592773438-14.3818359375,36.4873046875-32.7412109375l.0346679688-.876953125h-127.2919921875Z"/>
          <path class="cls-1" d="M325.1435546875,80.8388671875h1.1259765625c.1162109375,0,.2333984375,0,.3515625-.0009765625l61.6953125.015625,28.0249023438-.0146484375-.0341796875-.876953125c-.7241210938-18.654296875-16.5747070312-33.4248046875-36.0932617188-33.626953125h-1.111328125c-.1181640625,0-.2353515625,0-.3515625.0009765625l-89.7348632812-.0009765625.0341796875.876953125c.7241210938,18.6552734375,16.5747070312,33.4267578125,36.0932617188,33.626953125Z"/>
        </g>
        <g>
          <path class="cls-2" d="M103.615234375,92.0146484375c-3.958984375,8.0302734375-14.9150390625,13.4267578125-27.2626953125,13.4267578125l-.9233398438.00390625c-11.9633789062-.26953125-22.4682617188-5.591796875-26.3256835938-13.416015625l-.232421875-.470703125H0v33.6455078125h98.53515625l.5483398438-.0361328125c.5209960938.015625,1.0444335938.0224609375,1.5756835938.0224609375,21.845703125,0,39.5966796875-14.392578125,40.412109375-32.765625l.0390625-.880859375h-37.2626953125l-.232421875.470703125Z"/>
          <path class="cls-2" d="M49.103515625,33.17578125c3.9580078125-8.02734375,14.9125976562-13.4228515625,27.2626953125-13.4267578125,12.3422851562.00390625,23.2915039062,5.3994140625,27.2490234375,13.4267578125l.232421875.470703125h37.2626953125l-.0390625-.880859375C140.255859375,14.392578125,122.5048828125,0,100.6591796875,0c-.4306640625,0-.8564453125.0048828125-1.2802734375.015625L0,0v33.646484375h48.87109375l.232421875-.470703125Z"/>
          <path class="cls-2" d="M141.1416015625,46.0390625h-37.2583007812l-.2392578125.4423828125c-3.9506835938,7.31640625-14.9125976562,12.2314453125-27.2778320312,12.2314453125-12.3588867188,0-23.3266601562-4.916015625-27.2919921875-12.232421875l-.2392578125-.44140625H0v34.4765625h48.8720703125l.2314453125-.470703125c3.9526367188-8.03125,14.9145507812-13.4267578125,27.27734375-13.4267578125,12.353515625,0,23.3100585938,5.3955078125,27.2626953125,13.4267578125l.2319335938.470703125h37.2626953125l-.0390625-.880859375c-.2700195312-6.0751953125-2.4770507812-11.966796875-6.392578125-17.0849609375,3.9145507812-4.677734375,6.1215820312-10.06640625,6.3920898438-15.6259765625l.04296875-.884765625Z"/>
          <path class="cls-2" d="M279.2172851562.337890625h-88.8569335938l-.46875.0234375c-.4814453125-.015625-.966796875-.0234375-1.4443359375-.0234375-19.732421875,0-35.759765625,14.3818359375-36.4873046875,32.7412109375l-.03515625.876953125h127.2924804688V.337890625Z"/>
          <path class="cls-2" d="M151.958984375,125.21875h88.857421875l.5048828125-.033203125c.4653320312.0185546875.9326171875.033203125,1.408203125.033203125,19.7319335938,0,35.7587890625-14.3818359375,36.4873046875-32.7412109375l.0346679688-.876953125h-127.2924804688v33.6181640625Z"/>
          <path class="cls-2" d="M188.0390625,80.8388671875h1.111328125c.1181640625,0,.2353515625,0,.3515625-.0009765625l61.6953125.015625,28.0390625-.0146484375-.0341796875-.876953125c-.7236328125-18.654296875-16.5678710938-33.42578125-36.0791015625-33.626953125h-1.125c-.1186523438,0-.2358398438,0-.3520507812.0009765625l-89.734375-.0009765625.0341796875.876953125c.7241210938,18.6552734375,16.57421875,33.4267578125,36.0932617188,33.626953125Z"/>
          <path class="cls-2" d="M416.3076171875.337890625h-88.8569335938l-.4672851562.0234375c-.4780273438-.015625-.9580078125-.0234375-1.4453125-.0234375-19.7177734375,0-35.7451171875,14.380859375-36.4877929688,32.740234375l-.0356445312.8779296875h127.29296875V.337890625Z"/>
          <path class="cls-2" d="M289.0498046875,91.6005859375v33.6181640625h88.8569335938l.5053710938-.033203125c.46484375.0185546875.9326171875.033203125,1.4077148438.033203125,19.7319335938,0,35.7592773438-14.3818359375,36.4873046875-32.7412109375l.0346679688-.876953125h-127.2919921875Z"/>
          <path class="cls-2" d="M325.1435546875,80.8388671875h1.1259765625c.1162109375,0,.2333984375,0,.3515625-.0009765625l61.6953125.015625,28.0249023438-.0146484375-.0341796875-.876953125c-.7241210938-18.654296875-16.5747070312-33.4248046875-36.0932617188-33.626953125h-1.111328125c-.1181640625,0-.2353515625,0-.3515625.0009765625l-89.7348632812-.0009765625.0341796875.876953125c.7241210938,18.6552734375,16.5747070312,33.4267578125,36.0932617188,33.626953125Z"/>
        </g>
      </g>
    </g>
  </g>
</svg>