<?xml version="1.0" encoding="UTF-8"?>
<svg id="Layer_2" data-name="Layer 2" xmlns="http://www.w3.org/2000/svg" viewBox="0 0 1669.2401088084 373.3073867635">
  <defs>
    <style>
      .cls-1 {
        fill: #636363;
      }

      .cls-2 {
        fill: #00629b;
      }

      .cls-3 {
        fill: #494949;
      }
    </style>
  </defs>
  <g id="Layer_1-2" data-name="Layer 1">
    <g>
      <path d="M119.133808088,203.799030955v-31.0129011586h-45.0573068566c-3.5443450815,0-7.0443427528-.1329070253-10.5000944179-.4430684862-3.5000314726-.3544412684-6.8228423111-1.0633238053-10.0570259317-2.0823002003-3.1899038131-1.1076036128-5.8924593325-2.6582757118-8.1519463656-4.7405759121-3.9873797664-3.6772521068-6.2911804084-7.886132315-6.9557493364-12.7152678421-.6202553191-4.7848557197-.9746965875-9.6583048557-1.1076036128-14.708974626-.2215342431-1.7721725408-.3987210759-3.5000314726-.4430346848-5.1835767956-.0885934164-1.7721725408-.0885934164-3.5000314726-.0885934164-5.1835767956V29.905229943H0v97.8235591954c0,4.6519486943.0443136089,9.4810842215.2215342431,14.5760676007.2215342431,5.0063561614.7088825369,9.9241527077,1.4177312723,14.7090084274.7974759533,4.7848557197,2.0379865914,9.4810842215,3.7658455233,14.1330329159,1.7721725408,4.5633214765,4.2088802081,8.7722016847,7.3987840212,12.5823608168,3.3228108384,4.2088802081,7.0000629453,7.6203182643,11.1646295445,10.2785939762,4.2088802081,2.6139283016,8.5950148518,4.6076012841,13.2469297448,6.0696461653,4.6962285019,1.5063246888,9.5253978304,2.4810212762,14.4874403829,2.96836957,5.0063561614.5316281013,10.1013395406.7531623444,15.3292299451.7531623444h52.1016834108Z"/>
      <path d="M266.1349947331,141.994762881c0-21.3545963029-5.9810865503-37.8357434696-17.8988446377-49.4877213079-11.87347828-11.6076980307-28.398972857-17.4558437543-49.5763485257-17.4558437543-9.7912456824,0-18.8292614177,1.5063246888-27.0698350011,4.4304144512-8.2405735834,2.96836957-15.3292637465,7.1772835795-21.2216554762,12.7153016435-5.8924593325,5.4494246476-10.5000606165,12.1836397409-13.8228714549,20.2026790812-3.3228108384,7.9304459239-4.9620425525,16.8798682427-4.9620425525,26.7153937327,0,21.2659690851,5.8038321147,37.7028364443,17.4558437543,49.2662208661,11.6076642293,11.5633844218,28.0445315886,17.322936729,49.2661870647,17.322936729,9.9241527077,0,19.0064482505-1.4177650737,27.2913692442-4.2088802081,8.2405735834-2.7911827372,15.3292637465-6.86715592,21.310282694-12.2722669587,6.0253663578-5.3608312312,10.7215948596-11.9621054978,14.1330329159-19.892585223,3.3670906459-7.9304121225,5.0949495778-17.0571226783,5.0949495778-27.3799626606l-.0000676028.0443136089ZM230.4701448802,140.2226241416c0,5.2278904045-.4873482937,10.2342465659-1.4177650737,15.0191022855-.9746965875,4.7848557197-2.6582757118,8.90510871-5.0949495778,12.3608265737-2.4367414687,3.4999976713-5.6709250894,6.2469006009-9.7026184646,8.3734806087-3.987345965,2.0823002003-8.90510871,3.1012765953-14.7975680424,3.1012765953s-10.9874089103-.93041678-15.0191022855-2.8797423522c-4.0759731828-1.9050457647-7.3545042137-4.5633214765-9.9241527077-7.9304121225-2.5253686865-3.3670906459-4.3417872334-7.3545042137-5.538018064-11.9178256902-1.1076036128-4.6519486943-1.6392317141-9.6583048557-1.6392317141-15.1077295033s.4873482937-10.6773150521,1.4177650737-15.4621369704c.93041678-4.7848557197,2.6139283016-8.9494223189,4.9620425525-12.4937674004,2.3481142509-3.5886248891,5.538018064-6.4240874337,9.6139912468-8.506387634,4.1202529903-2.1266138092,9.3038973887-3.1899038131,15.5507303868-3.1899038131,5.8924593325,0,10.854501885,1.0632900039,14.8861952602,3.1012765953,4.1202529903,1.9936729825,7.3987840212,4.7405421108,9.8355254899,8.1519463656,2.4367414687,3.5000314726,4.1202529903,7.5760046554,5.1835767956,12.2722331573,1.1076036128,4.7405421108,1.6392317141,9.791211881,1.6392317141,15.1077295033l.0443474103.0000338014Z"/>
      <path d="M413.712089287,202.8243343675v-126.0009978093h-65.1714263227c-7.7975050972,0-15.0191022855.7088825369-21.6647239624,2.0823002003-6.6456216768,1.4177312723-13.1583363284,4.3418210348-19.5381439546,8.8165152936-8.6836420696,6.1139597742-14.7532882349,13.8671850638-18.1203788809,23.3039894778-3.4114380562,9.3481771962-5.0949495778,19.0950754683-5.0949495778,29.1521352014,0,9.2152701709,1.4177650737,18.1647262911,4.2975074259,26.848300758,2.8797423522,8.6836420696,7.7532252896,16.3038927312,14.7090084274,22.7280477677,6.468434844,5.8924593325,13.2026161359,9.7026184646,20.2026790812,11.474757204,7.0886901631,1.7278589319,14.8419154527,2.5253686865,23.3925828943,2.5253686865h32.0318775536c0,3.8101591322-.2658140506,6.9114357275-.7531623444,9.2595499784-.5316281013,2.3481142509-1.5063246888,4.1202529903-2.8797423522,5.4051110387-1.4177650737,1.3291378559-3.3228108384,2.2152072256-5.7595523071,2.6582757118s-5.5822978716.6645351266-9.3924570037.6645351266h-64.5954508112v27.0698350011h69.3359591206c7.3101568034,0,13.7343118399-.5316281013,19.3166097115-1.550672099,5.6709250894-1.0633238053,10.455780809-2.96836957,14.354567159-5.7595523071,3.89878635-2.7468353269,7.0886901631-6.556994459,9.4810842215-11.474757204,2.4810212762-4.8734829375,4.1202529903-11.2089431534,4.9620425525-19.0064482505.2215342431-1.4177650737.3987210759-2.8354625447.5316281013-4.2088802081.1329070253-1.4177650737.2215342431-2.7468353269.2215342431-4.0759731828l.1329070253.088559615ZM378.8004017784,176.6406363389h-27.1584622189c-11.2532229609,0-19.4495167368-3.2785310309-24.5001865071-9.8355254899-5.0063899628-6.6456216768-7.487411239-15.2849163362-7.487411239-26.0508248047,0-5.2278904045.4873482937-10.0570259317,1.4177650737-14.5760676007.93041678-4.5633214765,2.6139283016-8.4177942176,4.9620425525-11.6076980307,2.3481142509-3.234217422,5.4493908462-5.8038321147,9.3924570037-7.7089116807,3.89878635-1.9050795661,8.7279218771-2.8797761536,14.4874741843-2.8797761536h28.9306009583v72.6588037604h-.0442798075Z"/>
      <path d="M483.0923958179,63.7979748579V29.9052975458h-34.9116875085v33.8926773122h34.9116875085ZM483.0923958179,203.799030955v-126.9756943968h-34.9116875085v126.9756943968h34.9116875085Z"/>
      <path d="M633.2391388658,163.6152070358c0-6.556994459-1.1962308306-12.0950463245-3.5443450815-16.658367801-2.3923940584-4.6519486943-5.538018064-8.3734806087-9.4810842215-11.2532567623-3.9430661575-2.8797761536-8.5950148518-4.9620763539-13.9114986727-6.2911804084s-10.9431291027-1.9936729825-16.8798682427-1.9936729825h-20.5571203496c-2.3038344434,0-4.7848557197,0-7.487411239-.0885934164-2.6582757118-.0443136089-5.1392969881-.4430346848-7.3987840212-1.1076036128-2.2152072256-.7088825369-4.0759731828-1.9050795661-5.538018064-3.5443450815-1.5063246888-1.683545323-2.2152072256-4.2088802081-2.2152072256-7.487411239,0-5.0063561614,1.3734176634-8.0633529492,4.2088802081-9.170956562,2.8797423522-1.1519172217,6.3354602159-1.7721725408,10.3671535912-1.7721725408.8860693697,0,1.6835791244,0,2.4367414687-.0885934164.7974421519-.0443136089,1.6392317141-.0885934164,2.5253686865-.0885934164h61.7156408563v-27.1584284175h-74.5196035189c-7.1329699706,0-13.4684301865.6202553191-19.0064482505,1.8607659572-5.4493908462,1.1961970292-10.5000606165,4.6519486943-15.1077295033,10.3671535912-5.7595523071,7.1329699706-8.5950148518,15.4178571629-8.5950148518,24.7217207502,0,8.1519463656,1.9936729825,15.6393576046,5.9810865503,22.2849792814,3.987345965,6.6899352857,9.8798052975,11.5190708129,17.7659376124,14.4874403829,2.9240897625,1.1076036128,6.3354602159,1.8607997586,10.1456193481,2.303800642,3.8101591322.3987210759,7.7532252896.6202553191,11.8291984724.7531623444,4.1202529903.0886272178,8.0633867506.0886272178,11.8291984724,0,3.8101591322-.1329070253,7.2215971884-.2215342431,10.2785939762-.2215342431,2.4367414687,0,4.8734829375.0886272178,7.3987840212.2215342431,2.4810212762.0886272178,4.7848557197.4873482937,6.86715592,1.1962308306,2.1265800078.6645351266,3.8101591322,1.8607659572,5.0949495778,3.6329722993,1.3291378559,1.7278589319,1.9936729825,4.2088802081,1.9936729825,7.487411239,0,4.519041669-1.3734176634,7.2658769959-4.0759731828,8.2848533909-2.6582757118,1.0633238053-5.8924593325,1.7278589319-9.7026184646,2.0823002003-1.949393175.1771868328-3.8544389397.2215342431-5.7595523071.2215342431h-67.4751931634v27.1584622189h71.9056076146c3.6772521068,0,7.4430638287,0,11.386197589-.0886272178,3.89878635-.0442798075,7.6645980718-.5316281013,11.386197589-1.4177650737,4.3417872334-.8860693697,8.1076665581-2.6139283016,11.2532229609-5.1835767956,3.2341836206-2.6582757118,5.9810865503-5.7595523071,8.1519463656-9.2595499784,2.2594870331-3.5886248891,3.987345965-7.4430638287,5.0949495778-11.6076642293,1.1518834203-4.2088802081,1.7721387394-8.3734806087,1.7721387394-12.5823608168l-.1327718198-.0000676028Z"/>
      <path class="cls-2" d="M835.3545568951,218.8624806508v-31.0129011586h-29.6838309054c2.436673866-2.9240897625,4.5633214765-5.8038321147,6.5127146515-8.5950148518,1.9050457647-2.7911827372,3.6329722993-5.8924593325,5.1836443984-9.3924570037,2.6582757118-5.7595523071,4.5633214765-12.1836397409,5.8481795249-19.3166097115,1.3290702532-7.1329699706,1.9937405853-13.8229052563,1.9937405853-20.1140856647,0-8.3291669998-1.0632562025-17.2786231201-3.1899038131-26.9369279758-2.0823002003-9.6139912468-5.0949495778-18.1204126822-9.038083338-25.3862896781-3.500065274-6.4684010426-8.0190393403-11.9178256902-13.6014048146-16.3482401415-5.538018064-4.4304144512-11.6076642293-7.886132315-18.2089384959-10.5000944179-6.6456216768-2.6582419105-13.5570574043-4.5190078676-20.7786545927-5.6266114804-7.2215971884-1.1519172217-14.3102873514-1.7721725408-21.2217230789-1.7721725408-29.7723905205,0-51.5257417006,7.487411239-65.2600535405,22.4178863068-13.6899644296,14.9747886766-20.5571203496,37.0382675164-20.5571203496,66.2789961342,0,6.4684010426.3987210759,12.9811156942,1.1962308306,19.5381439546.8860693697,6.468434844,2.3923940585,12.8038950599,4.519041669,19.0064482505,2.2152748284,6.1139935756,5.0950171806,11.9178256902,8.5949472491,17.322936729,3.5886248891,5.4051110387,8.1075989553,10.1456193481,13.4684977893,14.354567159,8.5506674415,6.556994459,18.0760314706,10.8988492952,28.6204394974,13.025429303,10.5000606165,2.0823002003,21.000121233,3.1012765953,31.4559696448,3.1012765953h94.1019596783l.0443474103-.0442798075ZM784.2276714759,130.2098780174c0,7.7975388985-.5316281013,15.3292299451-1.6392317141,22.5064797232-1.1076036128,7.2215971884-3.3228108384,13.6014048146-6.6456216768,19.0950754683-3.3228108384,5.4493908462-7.8417849047,9.7912456824-13.6014048146,13.025429303-5.7594847044,3.1899038131-13.2026837386,4.7405759121-22.4178863068,4.7405759121s-16.7913086277-1.550672099-22.7280477677-4.6519486943c-5.8923917297-3.1456240056-10.5444080268-7.3987840212-13.9115662755-12.7152678421-3.4113704535-5.3164838209-5.7594847044-11.474757204-7.0886901631-18.5634473671-1.3290702532-7.1329699706-1.9937405853-14.7975680424-1.9937405853-22.9495482094s.6645351266-15.5064505793,1.9937405853-22.4178863068c1.3290702532-7.0000629453,3.6771845041-13.0697091106,7.0886901631-18.341913124,3.3671582487-5.2278904045,7.97469193-9.3481771962,13.8228714549-12.3608603751,5.8038321147-3.0126831789,13.2468959434-4.5190078676,22.2849792814-4.5190078676,8.5506674415,0,15.7279172196,1.5949519066,21.5317493343,4.7405421108,5.8038321147,3.1012765953,10.4115010015,7.2658769959,13.8228714549,12.4937674004,3.3671582487,5.1835767956,5.8038321147,11.2532567623,7.3101568034,18.2090060987,1.4619772785,6.9114357275,2.2152072256,14.1330329159,2.2152072256,21.6647239624l-.0440769992.0442798075Z"/>
      <g>
        <path class="cls-2" d="M1108.7446177345,171.6519263631l39.2483554764-141.7466288173h44.8960563188l39.5309071174,141.7466288173,42.3547575385-141.7466288173h41.2252173701l-60.9908375276,188.3369953888h-45.4604932053l-38.9664702308-136.0995943703-39.2483554764,136.0995943703h-45.460826403l-60.9905043299-188.3369953888h41.5074358133l42.3547575385,141.7466288173Z"/>
        <path class="cls-2" d="M1471.5849068263,63.5066185752h-52.2374010184c-28.2365050257.282551641-36.7073898939,2.8238504212-45.460826403,13.8360340696-5.6473676447,7.9061147839-7.0591262564,12.7061607034-8.1886664249,30.4952521649h105.8868938463v33.6009878317h-105.8868938463c3.1060688645,32.7546656996,16.6595512931,43.201746066,55.3434698829,43.201746066h50.5434239634v33.6016542271h-52.2374010184c-38.4017001466,0-57.8847686631-5.0825975604-72.2852396192-19.2008500733-17.2243213773-16.6592180954-26.8247464139-43.7661829526-26.8247464139-75.9557453702,0-32.7543325019,10.1651951209-58.4495387474,30.2130337217-76.5208486522,13.8357008719-12.4239422601,27.1069648572-16.6595512931,53.3666079892-16.6595512931h67.7677453407v33.6013210294Z"/>
        <path class="cls-2" d="M1501.5157221047,184.6406387075h85.8387220479c14.4004709561,0,22.589137381-1.1288737731,27.3891833005-4.2349426376,6.4943561722-3.6711721464,9.8829766776-9.8826434799,9.8829766776-17.5068730183,0-8.4705516705-4.2356090329-16.0947812088-11.5769537326-19.7652869598-4.2356090329-2.5416319779-11.5769537326-3.6711721464-20.895160326-3.6711721464h-34.7305280002c-21.7421488535,0-36.4251714506-3.670505751-46.0255964872-11.5766205349-11.8591721759-9.8826434799-18.9182984323-25.4126546045-18.9182984323-42.3547575385,0-23.4361259085,12.4239422601-44.0487345936,31.0600222492-51.10786085,9.0356549524-3.3882873077,18.9182984323-4.5178274762,42.0722058976-4.5178274762h93.1803999452v33.6013210294h-84.1447449928c-17.5065398206,0-24.0008959928.5647700842-28.518723469,2.8238504212-5.929586088,3.3882873077-9.3178733957,9.6004250366-9.3178733957,18.0713099048,0,7.3413446997,3.1057356668,13.5534824286,8.4708848682,17.2239881796,5.0825975604,3.1060688645,11.2944020917,4.2356090329,25.9774246887,4.2356090329h30.2130337217c27.1069648572,0,41.5074358133,3.953057392,52.5196194617,14.4004709561,9.3182065934,8.7534365091,15.2477926813,25.4126546045,15.2477926813,42.6369759818,0,19.4834017142-8.7534365091,37.2721599781-22.589137381,46.872251817-9.6004250366,6.4946893699-21.4599304102,8.4712180659-50.5434239634,8.4712180659h-94.5918253593v-33.6016542271Z"/>
      </g>
      <g>
        <polygon class="cls-1" points="95.830606408 303.4851211385 77.922403283 361.7096084432 58.0854892205 303.4851211385 48.371622033 303.4851211385 29.2080478143 361.5284560994 10.6265048455 303.4851211385 1.6206454705 303.4851211385 24.287637658 372.2956680135 33.496622033 372.2956680135 53.152872033 313.1447891073 73.2651767205 372.2956680135 82.574747033 372.2956680135 104.5327548455 303.4851211385 95.830606408 303.4851211385"/>
        <path class="cls-1" d="M127.705606408,303.4851211385l-26.61328125,68.810546875h8.904296875l7.3081054688-19.6318359375h31.2719726562l7.462890625,19.6318359375h8.904296875l-26.8154296875-68.810546875h-10.4228515625ZM120.0920810174,345.175550826l12.6848144531-34.0758056641,12.9533691406,34.0758056641h-25.6381835938Z"/>
        <path class="cls-1" d="M214.3257235955,343.355238326c3.4404296875-1.685546875,6.0205078125-4.115234375,7.7412109375-7.287109375,1.7197265625-3.169921875,2.580078125-7.0146484375,2.580078125-11.53515625,0-7.015625-1.9072265625-12.27734375-5.716796875-15.7861328125-3.8125-3.5068359375-9.3955078125-5.26171875-16.748046875-5.26171875h-27.3212890625v68.810546875h8.2978515625v-26.4111328125h18.3676757812l16.2397460938,26.4111328125h9.7138671875l-17.1499023438-27.4587402344c1.4299316406-.3874511719,2.7646484375-.8781738281,3.9956054688-1.4816894531ZM183.158731408,311.073988326h18.3154296875c5.328125,0,9.140625,1.0625,11.4345703125,3.1875,2.29296875,2.125,3.4404296875,5.583984375,3.4404296875,10.373046875,0,4.4521484375-1.1806640625,7.841796875-3.5419921875,10.169921875-2.361328125,2.3271484375-6.10546875,3.490234375-11.2314453125,3.490234375h-18.4169921875v-27.220703125Z"/>
        <polygon class="cls-1" points="239.6245517205 372.2956680135 287.0835360955 372.2956680135 287.0835360955 364.605238326 247.922403283 364.605238326 247.922403283 341.230238326 285.9702548455 341.230238326 285.9702548455 333.741957076 247.922403283 333.741957076 247.922403283 311.175550826 287.387247033 311.175550826 287.387247033 303.4851211385 239.6245517205 303.4851211385 239.6245517205 372.2956680135"/>
        <polygon class="cls-1" points="348.201700158 333.741957076 309.6479892205 333.741957076 309.6479892205 303.4851211385 301.350137658 303.4851211385 301.350137658 372.2956680135 309.6479892205 372.2956680135 309.6479892205 341.431410201 348.201700158 341.431410201 348.201700158 372.2956680135 356.4995517205 372.2956680135 356.4995517205 303.4851211385 348.201700158 303.4851211385 348.201700158 333.741957076"/>
        <path class="cls-1" d="M419.238809533,306.6726211385c-4.92578125-2.798828125-10.693359375-4.2001953125-17.3037109375-4.2001953125-6.6787109375,0-12.498046875,1.41796875-17.4560546875,4.25-4.9580078125,2.833984375-8.7880859375,6.916015625-11.4853515625,12.2451171875-2.69921875,5.3291015625-4.0478515625,11.63671875-4.0478515625,18.9228515625,0,7.28515625,1.3486328125,13.59375,4.0478515625,18.9228515625,2.697265625,5.330078125,6.52734375,9.4111328125,11.4853515625,12.244140625s10.77734375,4.25,17.4560546875,4.25c6.6103515625,0,12.3779296875-1.3994140625,17.3037109375-4.19921875,4.923828125-2.798828125,8.7353515625-6.8642578125,11.4345703125-12.1943359375,2.697265625-5.328125,4.0478515625-11.669921875,4.0478515625-19.0234375,0-7.3525390625-1.3505859375-13.6943359375-4.0478515625-19.0244140625-2.69921875-5.328125-6.5107421875-9.3935546875-11.4345703125-12.193359375ZM423.438028283,352.5632461385c-1.9228515625,4.18359375-4.72265625,7.4375-8.3994140625,9.7646484375-3.677734375,2.328125-8.0791015625,3.4921875-13.205078125,3.4921875-5.1279296875,0-9.529296875-1.1640625-13.2060546875-3.4921875-3.677734375-2.3271484375-6.4755859375-5.5810546875-8.3984375-9.7646484375-1.9228515625-4.1826171875-2.8837890625-9.0732421875-2.8837890625-14.6728515625,0-5.5986328125.9609375-10.4892578125,2.8837890625-14.6728515625,1.9228515625-4.1826171875,4.720703125-7.4384765625,8.3984375-9.7646484375,3.6767578125-2.328125,8.078125-3.4921875,13.2060546875-3.4921875,5.1259765625,0,9.52734375,1.1640625,13.205078125,3.4921875,3.6767578125,2.326171875,6.4765625,5.58203125,8.3994140625,9.7646484375,1.9228515625,4.18359375,2.8837890625,9.07421875,2.8837890625,14.6728515625,0,5.599609375-.9609375,10.490234375-2.8837890625,14.6728515625Z"/>
        <path class="cls-1" d="M494.0190829705,345.277113326c0,7.083984375-1.603515625,12.26171875-4.806640625,15.533203125-3.205078125,3.2734375-8.0791015625,4.908203125-14.6220703125,4.908203125-6.6123046875,0-11.5869140625-1.634765625-14.92578125-4.908203125-3.33984375-3.271484375-5.0087890625-8.44921875-5.0087890625-15.533203125v-41.7919921875h-8.2978515625v41.7919921875c0,6.41015625,1.078125,11.6875,3.23828125,15.8369140625,2.158203125,4.1494140625,5.294921875,7.2197265625,9.41015625,9.2080078125,4.1142578125,1.9892578125,9.275390625,2.9853515625,15.482421875,2.9853515625,6.138671875,0,11.248046875-.99609375,15.3310546875-2.9853515625,4.0810546875-1.98828125,7.1845703125-5.05859375,9.3095703125-9.2080078125s3.1875-9.4267578125,3.1875-15.8369140625v-41.7919921875h-8.2978515625v41.7919921875Z"/>
        <path class="cls-1" d="M549.268106408,335.4616836385l-11.8388671875-2.125c-4.5205078125-.7412109375-7.7763671875-2.0068359375-9.765625-3.794921875-1.990234375-1.7861328125-2.984375-4.265625-2.984375-7.4375,0-2.3603515625.6572265625-4.4677734375,1.97265625-6.3251953125,1.3154296875-1.853515625,3.220703125-3.3037109375,5.7177734375-4.3505859375,2.4951171875-1.044921875,5.4970703125-1.568359375,9.005859375-1.568359375,5.1259765625,0,9.08984375,1.11328125,11.8896484375,3.3388671875,2.798828125,2.2265625,4.6708984375,5.296875,5.6162109375,9.208984375l7.8935546875-1.4169921875c-1.080078125-5.869140625-3.7109375-10.4228515625-7.8935546875-13.6611328125-4.18359375-3.23828125-9.951171875-4.857421875-17.3037109375-4.857421875-4.9248046875,0-9.2763671875.810546875-13.0537109375,2.4296875-3.7783203125,1.619140625-6.7294921875,3.912109375-8.8544921875,6.880859375s-3.1875,6.4765625-3.1875,10.5234375c0,5.330078125,1.5341796875,9.4619140625,4.6044921875,12.396484375,3.0693359375,2.9345703125,7.8759765625,4.9755859375,14.419921875,6.1220703125l11.83984375,2.0244140625c4.25.673828125,7.28515625,1.888671875,9.107421875,3.642578125,1.8212890625,1.7548828125,2.7314453125,4.216796875,2.7314453125,7.38671875,0,2.4287109375-.6923828125,4.5537109375-2.07421875,6.375-1.3837890625,1.822265625-3.3896484375,3.22265625-6.0205078125,4.19921875-2.6318359375.978515625-5.802734375,1.4677734375-9.5126953125,1.4677734375-5.734375,0-10.169921875-1.0791015625-13.306640625-3.23828125-3.13671875-2.158203125-5.279296875-5.4970703125-6.42578125-10.0185546875l-7.994140625,1.5185546875c1.21484375,6.4091796875,4.1318359375,11.19921875,8.7529296875,14.369140625,4.6201171875,3.171875,10.84375,4.755859375,18.669921875,4.755859375,5.0595703125,0,9.5634765625-.7431640625,13.509765625-2.2255859375,3.9462890625-1.4833984375,7.0322265625-3.693359375,9.2587890625-6.62890625,2.2265625-2.93359375,3.33984375-6.5263671875,3.33984375-10.7763671875,0-5.396484375-1.5029296875-9.5126953125-4.50390625-12.345703125-3.001953125-2.8330078125-7.5380859375-4.7890625-13.6103515625-5.869140625Z"/>
        <polygon class="cls-1" points="579.828653283 372.2956680135 627.287637658 372.2956680135 627.287637658 364.605238326 588.1265048455 364.605238326 588.1265048455 341.230238326 626.174356408 341.230238326 626.174356408 333.741957076 588.1265048455 333.741957076 588.1265048455 311.175550826 627.5913485955 311.175550826 627.5913485955 303.4851211385 579.828653283 303.4851211385 579.828653283 372.2956680135"/>
        <polygon class="cls-1" points="683.549356408 372.2956680135 731.008340783 372.2956680135 731.008340783 364.605238326 691.8472079705 364.605238326 691.8472079705 341.230238326 729.895059533 341.230238326 729.895059533 333.741957076 691.8472079705 333.741957076 691.8472079705 311.175550826 731.3120517205 311.175550826 731.3120517205 303.4851211385 683.549356408 303.4851211385 683.549356408 372.2956680135"/>
        <polygon class="cls-1" points="797.490762658 303.4851211385 787.5737704705 303.4851211385 768.5156650018 331.3820937948 749.2222079705 303.4851211385 739.0015048455 303.4851211385 763.004434533 336.6987441854 737.8882235955 372.2956680135 747.805215783 372.2956680135 767.8647860955 342.8557266073 788.2827548455 372.2956680135 798.502481408 372.2956680135 773.4033603143 337.5062393026 797.490762658 303.4851211385"/>
        <polygon class="cls-1" points="806.900918908 372.2956680135 854.359903283 372.2956680135 854.359903283 364.605238326 815.1987704705 364.605238326 815.1987704705 341.230238326 853.246622033 341.230238326 853.246622033 333.741957076 815.1987704705 333.741957076 815.1987704705 311.175550826 854.6636142205 311.175550826 854.6636142205 303.4851211385 806.900918908 303.4851211385 806.900918908 372.2956680135"/>
        <path class="cls-1" d="M911.734903283,361.5691055135c-3.5087890625,2.8330078125-8.2978515625,4.2509765625-14.369140625,4.2509765625-5.0595703125,0-9.3603515625-1.146484375-12.90234375-3.44140625-3.541015625-2.29296875-6.22265625-5.53125-8.044921875-9.71484375-1.8212890625-4.181640625-2.7314453125-9.072265625-2.7314453125-14.671875s.892578125-10.5068359375,2.681640625-14.724609375c1.7861328125-4.21484375,4.4521484375-7.48828125,7.994140625-9.814453125,3.541015625-2.328125,7.875-3.4921875,13.0029296875-3.4921875,6.0712890625,0,10.810546875,1.4169921875,14.2177734375,4.25,3.4052734375,2.833984375,5.6826171875,6.7470703125,6.830078125,11.73828125l7.7919921875-1.314453125c-1.2822265625-7.150390625-4.40234375-12.6318359375-9.3603515625-16.4443359375-4.9580078125-3.810546875-11.4521484375-5.7177734375-19.4794921875-5.7177734375-6.4765625,0-12.1103515625,1.4013671875-16.8994140625,4.2001953125-4.791015625,2.7998046875-8.517578125,6.880859375-11.181640625,12.244140625-2.666015625,5.36328125-3.9970703125,11.72265625-3.9970703125,19.0751953125,0,7.28515625,1.2978515625,13.576171875,3.896484375,18.8720703125,2.595703125,5.2958984375,6.306640625,9.3603515625,11.130859375,12.193359375,4.822265625,2.8330078125,10.5068359375,4.25,17.05078125,4.25,8.02734375,0,14.537109375-1.9052734375,19.5302734375-5.7177734375,4.9912109375-3.810546875,8.1611328125-9.291015625,9.51171875-16.443359375l-7.6904296875-1.3154296875c-1.1474609375,4.9931640625-3.4755859375,8.9052734375-6.982421875,11.73828125Z"/>
        <path class="cls-1" d="M985.301309533,345.277113326c0,7.083984375-1.603515625,12.26171875-4.806640625,15.533203125-3.205078125,3.2734375-8.0791015625,4.908203125-14.6220703125,4.908203125-6.6123046875,0-11.5869140625-1.634765625-14.92578125-4.908203125-3.33984375-3.271484375-5.0087890625-8.44921875-5.0087890625-15.533203125v-41.7919921875h-8.2978515625v41.7919921875c0,6.41015625,1.078125,11.6875,3.23828125,15.8369140625,2.158203125,4.1494140625,5.294921875,7.2197265625,9.41015625,9.2080078125,4.1142578125,1.9892578125,9.275390625,2.9853515625,15.482421875,2.9853515625,6.138671875,0,11.248046875-.99609375,15.3310546875-2.9853515625,4.0810546875-1.98828125,7.1845703125-5.05859375,9.3095703125-9.2080078125s3.1875-9.4267578125,3.1875-15.8369140625v-41.7919921875h-8.2978515625v41.7919921875Z"/>
        <polygon class="cls-1" points="1001.5913485955 311.175550826 1027.2944735955 311.175550826 1027.2944735955 372.2956680135 1035.592325158 372.2956680135 1035.592325158 311.175550826 1061.295450158 311.175550826 1061.295450158 303.4851211385 1001.5913485955 303.4851211385 1001.5913485955 311.175550826"/>
        <rect class="cls-1" x="1070.199747033" y="303.4851211385" width="8.2978515625" height="68.810546875"/>
        <path class="cls-1" d="M1141.1343173455,306.6726211385c-4.92578125-2.798828125-10.693359375-4.2001953125-17.3037109375-4.2001953125-6.6787109375,0-12.498046875,1.41796875-17.4560546875,4.25-4.9580078125,2.833984375-8.7880859375,6.916015625-11.4853515625,12.2451171875-2.69921875,5.3291015625-4.0478515625,11.63671875-4.0478515625,18.9228515625,0,7.28515625,1.3486328125,13.59375,4.0478515625,18.9228515625,2.697265625,5.330078125,6.52734375,9.4111328125,11.4853515625,12.244140625s10.77734375,4.25,17.4560546875,4.25c6.6103515625,0,12.3779296875-1.3994140625,17.3037109375-4.19921875,4.923828125-2.798828125,8.7353515625-6.8642578125,11.4345703125-12.1943359375,2.697265625-5.328125,4.0478515625-11.669921875,4.0478515625-19.0234375,0-7.3525390625-1.3505859375-13.6943359375-4.0478515625-19.0244140625-2.69921875-5.328125-6.5107421875-9.3935546875-11.4345703125-12.193359375ZM1145.3335360955,352.5632461385c-1.9228515625,4.18359375-4.72265625,7.4375-8.3994140625,9.7646484375-3.677734375,2.328125-8.0791015625,3.4921875-13.205078125,3.4921875-5.1279296875,0-9.529296875-1.1640625-13.2060546875-3.4921875-3.677734375-2.3271484375-6.4755859375-5.5810546875-8.3984375-9.7646484375-1.9228515625-4.1826171875-2.8837890625-9.0732421875-2.8837890625-14.6728515625,0-5.5986328125.9609375-10.4892578125,2.8837890625-14.6728515625,1.9228515625-4.1826171875,4.720703125-7.4384765625,8.3984375-9.7646484375,3.6767578125-2.328125,8.078125-3.4921875,13.2060546875-3.4921875,5.1259765625,0,9.52734375,1.1640625,13.205078125,3.4921875,3.6767578125,2.326171875,6.4765625,5.58203125,8.3994140625,9.7646484375,1.9228515625,4.18359375,2.8837890625,9.07421875,2.8837890625,14.6728515625,0,5.599609375-.9609375,10.490234375-2.8837890625,14.6728515625Z"/>
        <polygon class="cls-1" points="1218.141153283 362.9443496541 1179.2827548455 303.4851211385 1169.063028283 303.4851211385 1169.063028283 372.2956680135 1177.057168908 372.2956680135 1177.057168908 314.2998184041 1215.1050204705 372.2956680135 1226.135293908 372.2956680135 1226.135293908 303.4851211385 1218.141153283 303.4851211385 1218.141153283 362.9443496541"/>
        <path class="cls-1" d="M1312.955606408,335.4616836385l-11.8388671875-2.125c-4.5205078125-.7412109375-7.7763671875-2.0068359375-9.765625-3.794921875-1.990234375-1.7861328125-2.984375-4.265625-2.984375-7.4375,0-2.3603515625.6572265625-4.4677734375,1.97265625-6.3251953125,1.3154296875-1.853515625,3.220703125-3.3037109375,5.7177734375-4.3505859375,2.4951171875-1.044921875,5.4970703125-1.568359375,9.005859375-1.568359375,5.1259765625,0,9.08984375,1.11328125,11.8896484375,3.3388671875,2.798828125,2.2265625,4.6708984375,5.296875,5.6162109375,9.208984375l7.8935546875-1.4169921875c-1.080078125-5.869140625-3.7109375-10.4228515625-7.8935546875-13.6611328125-4.18359375-3.23828125-9.951171875-4.857421875-17.3037109375-4.857421875-4.9248046875,0-9.2763671875.810546875-13.0537109375,2.4296875-3.7783203125,1.619140625-6.7294921875,3.912109375-8.8544921875,6.880859375s-3.1875,6.4765625-3.1875,10.5234375c0,5.330078125,1.5341796875,9.4619140625,4.6044921875,12.396484375,3.0693359375,2.9345703125,7.8759765625,4.9755859375,14.419921875,6.1220703125l11.83984375,2.0244140625c4.25.673828125,7.28515625,1.888671875,9.107421875,3.642578125,1.8212890625,1.7548828125,2.7314453125,4.216796875,2.7314453125,7.38671875,0,2.4287109375-.6923828125,4.5537109375-2.07421875,6.375-1.3837890625,1.822265625-3.3896484375,3.22265625-6.0205078125,4.19921875-2.6318359375.978515625-5.802734375,1.4677734375-9.5126953125,1.4677734375-5.734375,0-10.169921875-1.0791015625-13.306640625-3.23828125-3.13671875-2.158203125-5.279296875-5.4970703125-6.42578125-10.0185546875l-7.994140625,1.5185546875c1.21484375,6.4091796875,4.1318359375,11.19921875,8.7529296875,14.369140625,4.6201171875,3.171875,10.84375,4.755859375,18.669921875,4.755859375,5.0595703125,0,9.5634765625-.7431640625,13.509765625-2.2255859375,3.9462890625-1.4833984375,7.0322265625-3.693359375,9.2587890625-6.62890625,2.2265625-2.93359375,3.33984375-6.5263671875,3.33984375-10.7763671875,0-5.396484375-1.5029296875-9.5126953125-4.50390625-12.345703125-3.001953125-2.8330078125-7.5380859375-4.7890625-13.6103515625-5.869140625Z"/>
        <polygon class="cls-1" points="1364.9175204705 337.4898818807 1343.1108798455 303.4851211385 1333.092325158 303.4851211385 1360.6167392205 345.277113326 1360.6167392205 372.2956680135 1368.914590783 372.2956680135 1368.914590783 345.277113326 1396.3374423455 303.4851211385 1386.7241610955 303.4851211385 1364.9175204705 337.4898818807"/>
        <path class="cls-1" d="M1433.3745517205,335.4616836385l-11.8388671875-2.125c-4.5205078125-.7412109375-7.7763671875-2.0068359375-9.765625-3.794921875-1.990234375-1.7861328125-2.984375-4.265625-2.984375-7.4375,0-2.3603515625.6572265625-4.4677734375,1.97265625-6.3251953125,1.3154296875-1.853515625,3.220703125-3.3037109375,5.7177734375-4.3505859375,2.4951171875-1.044921875,5.4970703125-1.568359375,9.005859375-1.568359375,5.1259765625,0,9.08984375,1.11328125,11.8896484375,3.3388671875,2.798828125,2.2265625,4.6708984375,5.296875,5.6162109375,9.208984375l7.8935546875-1.4169921875c-1.080078125-5.869140625-3.7109375-10.4228515625-7.8935546875-13.6611328125-4.18359375-3.23828125-9.951171875-4.857421875-17.3037109375-4.857421875-4.9248046875,0-9.2763671875.810546875-13.0537109375,2.4296875-3.7783203125,1.619140625-6.7294921875,3.912109375-8.8544921875,6.880859375s-3.1875,6.4765625-3.1875,10.5234375c0,5.330078125,1.5341796875,9.4619140625,4.6044921875,12.396484375,3.0693359375,2.9345703125,7.8759765625,4.9755859375,14.419921875,6.1220703125l11.83984375,2.0244140625c4.25.673828125,7.28515625,1.888671875,9.107421875,3.642578125,1.8212890625,1.7548828125,2.7314453125,4.216796875,2.7314453125,7.38671875,0,2.4287109375-.6923828125,4.5537109375-2.07421875,6.375-1.3837890625,1.822265625-3.3896484375,3.22265625-6.0205078125,4.19921875-2.6318359375.978515625-5.802734375,1.4677734375-9.5126953125,1.4677734375-5.734375,0-10.169921875-1.0791015625-13.306640625-3.23828125-3.13671875-2.158203125-5.279296875-5.4970703125-6.42578125-10.0185546875l-7.994140625,1.5185546875c1.21484375,6.4091796875,4.1318359375,11.19921875,8.7529296875,14.369140625,4.6201171875,3.171875,10.84375,4.755859375,18.669921875,4.755859375,5.0595703125,0,9.5634765625-.7431640625,13.509765625-2.2255859375,3.9462890625-1.4833984375,7.0322265625-3.693359375,9.2587890625-6.62890625,2.2265625-2.93359375,3.33984375-6.5263671875,3.33984375-10.7763671875,0-5.396484375-1.5029296875-9.5126953125-4.50390625-12.345703125-3.001953125-2.8330078125-7.5380859375-4.7890625-13.6103515625-5.869140625Z"/>
        <polygon class="cls-1" points="1457.0522860955 311.175550826 1482.7554110955 311.175550826 1482.7554110955 372.2956680135 1491.053262658 372.2956680135 1491.053262658 311.175550826 1516.756387658 311.175550826 1516.756387658 303.4851211385 1457.0522860955 303.4851211385 1457.0522860955 311.175550826"/>
        <polygon class="cls-1" points="1525.660684533 372.2956680135 1573.119668908 372.2956680135 1573.119668908 364.605238326 1533.9585360955 364.605238326 1533.9585360955 341.230238326 1572.006387658 341.230238326 1572.006387658 333.741957076 1533.9585360955 333.741957076 1533.9585360955 311.175550826 1573.4233798455 311.175550826 1573.4233798455 303.4851211385 1525.660684533 303.4851211385 1525.660684533 372.2956680135"/>
        <polygon class="cls-1" points="1646.178262658 303.4851211385 1622.9043368768 356.8062881307 1599.6304110955 303.4851211385 1587.3862704705 303.4851211385 1587.3862704705 372.2956680135 1595.1772860955 372.2956680135 1595.1772860955 312.4563125448 1618.8569735955 365.9206680135 1626.648965783 365.9206680135 1650.3276767205 312.5058730916 1650.3276767205 372.2956680135 1658.523965783 372.2956680135 1658.523965783 303.4851211385 1646.178262658 303.4851211385"/>
      </g>
      <rect class="cls-3" x="932.8226449272" width="14" height="248.8120580041"/>
    </g>
  </g>
</svg>