<?xml version="1.0" encoding="UTF-8"?>
<svg id="Layer_2" data-name="Layer 2" xmlns="http://www.w3.org/2000/svg" viewBox="0 0 1861.4520364229 374.3346564106">
  <defs>
    <style>
      .cls-1 {
        fill: #f44601;
      }

      .cls-2 {
        fill: #262626;
      }
    </style>
  </defs>
  <g id="Layer_1-2" data-name="Layer 1">
    <g id="uuid-2e33d112-ad4a-41b7-95e8-180ee8036484" data-name="Layer 1-2">
      <g>
        <path class="cls-2" d="M456.6455142228,374.3346564106h-55.8529691706v-84.8250626598c-10.1273082666,10.1273082666-24.7896040928,16.4010871785-43.6578915832,16.4010871785-46.7830299052,0-73.6638697328-36.3032414023-73.6638697328-87.2687786308,0-55.1715288926,33.8595254312-90.7698725666,98.4299894848-90.7698725666,29.6770360349,0,52.7278308486,5.5688453296,74.721256661,16.7535405244v229.7090861542h.0234843409ZM400.7925809062,254.2167347411v-80.9950176459c-5.9448009433-2.7961782804-12.2185619282-3.8300450139-19.5497277683-3.8300450139-28.2671867973,0-41.8955979632,19.5497098414-41.8955979632,48.8742656399,0,27.6092667141,10.8087485446,45.044220626,33.8595433582,45.044220626,10.8322328854,0,19.5496919144-2.7961782804,27.5857823733-9.0934236062Z"/>
        <path class="cls-2" d="M658.8863472698,131.3496213999v171.0599924841h-53.761715509v-22.3458881218c-12.9000022062,19.2207497998-29.6770360349,25.8469551671-47.8169145656,25.8469551671-45.3731806676,0-61.0928454951-40.8382110349-61.0928454951-86.2114096296v-88.3496498999h55.8529691706v89.3835345603c0,28.2906890651,7.3311299862,41.2141756122,25.4945287117,41.2141756122,11.5136373094,0,20.2311321923-5.9448009433,25.4944928577-13.2759488565v-117.321761316h55.8529333166-.0234484869Z"/>
        <path class="cls-2" d="M794.4419782608,285.6560464691c-10.8087485446,10.8087306176-30.3584763129,20.2311142654-51.9994218889,20.2311142654-30.7343691822,0-48.5453235253-21.640963503-48.5453235253-48.8742835669,0-31.439311728,20.6070609156-47.1354742877,56.9103381718-49.9551548359,13.604926825-1.0338846604,30.0294804174-1.3863290428,41.5431177268-1.7387913522v-5.5688542931c0-18.1633807985-10.8087485446-27.9382267557-31.0633650778-27.9382267557-16.4011051055,0-31.7682538426,4.1825073233-44.3392960072,10.479770576l-10.1273082666-38.7704596411c16.4245535924-9.3988993069,39.0994555367-15.6961625597,64.9464286308-15.6961625597,47.8169145657,0,76.4600659402,25.1185641344,76.4600659402,74.6977543932v99.8398207954h-53.761715509v-16.7535315609l-.0235201948.0470045356ZM792.3506887452,261.5713669951v-25.4710264438c-11.161192927,1.0573690012-19.5497277683,2.1147559295-27.9382626097,3.125138322-11.161192927,1.3863290428-17.1059938703,6.2737609849-17.1059938703,16.0721092099,0,8.3885169144,5.9212807485,13.9808555483,16.7535494879,13.9808555483s20.5836124287-3.1486226629,28.2671867973-7.7070945634l.0235201948.000017927Z"/>
        <path class="cls-2" d="M1049.7630865388,302.4095780301h-53.4092711266v-21.640963503c-10.8321970315,15.3437002503-27.9382626097,25.1185462075-51.3179816109,25.1185462075-38.3944950639,0-68.4239754813-33.8595433582-68.4239754813-86.9163342484,0-60.0354764939,40.4857845795-91.0988326081,88.6785920145-91.0988326081,11.8660816919,0,21.2885011936,1.7388003157,28.6196311797,4.1825073233V55.9469468697h55.8529333166v246.4626311604h.0000717079ZM993.8866330274,251.0915964191v-78.5513016748c-4.8873960881-1.7622936201-11.8660816918-2.8196626213-19.9021721508-2.8196626213-27.9382626097,0-41.5431177268,18.515825181-41.5431177268,48.1928612159,0,26.5518977129,10.1273082666,45.0207362852,32.8256586978,45.0207362852,12.2185977822,0,21.640945576-4.1825073233,28.6196311797-11.842633205Z"/>
        <path class="cls-2" d="M1201.0148621625,179.518980348h-6.6262412213c-21.640945576,0-37.7130547859,5.5923386339-46.7830299052,16.7770338287v106.1135638533h-55.8529333167v-171.0599566301h54.1141598914v28.6431513745c6.2737968389-18.5158341445,19.9021721508-30.0529826852,41.5431177268-30.0529826852,6.2737968389,0,10.479752649.7049156553,15.0147760626,2.1147559295l-1.3863290428,47.4644522562-.0235201948-.000017927Z"/>
        <path class="cls-2" d="M1303.3688698785,305.9106809293c-59.0015559795,0-91.0988774256-38.7469573733-91.0988774256-89.0310722508s32.0971780302-89.0075789465,91.0988774256-89.0075789465,91.0988774256,38.7469663368,91.0988774256,89.0075789465-32.120698225,89.0310722508-91.0988774256,89.0310722508ZM1303.3688698785,169.0626941128c-27.20985365,0-35.245872401,23.7322171646-35.245872401,47.8168966387s8.036018751,47.8403989065,35.245872401,47.8403989065,35.245872401-23.7322171646,35.245872401-47.8403989065-8.0124985562-47.8168966387-35.245872401-47.8168966387Z"/>
        <path class="cls-2" d="M1424.6146135717,302.4095780301v-171.0599566301h53.761715509v22.3458881218c10.8321970315-18.4688385723,28.9956674649-25.7999775219,47.8403630525-25.7999775219,45.3731806676,0,62.4792462459,40.8382199984,62.4792462459,86.2114006661v88.326165559h-55.8530050246v-89.3835345602c0-28.2906890651-8.7175307369-41.1906733444-26.8808577545-41.1906733444-11.5137090173,0-20.2310963384,5.9448009433-25.4710802248,13.2759488565v117.2747747073h-55.8530050246l-.023376779-.000035854Z"/>
        <path class="cls-1" d="M1744.5061859033,305.9106809293c-1.7622936201.3524443824-3.5010670453.7049246188-6.6497614161.7049246188-75.4261095719,0-118.6846239449-54.4666222008-118.6846239449-120.446881711s43.2583709572-120.4468906745,118.6846239449-120.4468906745,118.7081441397,54.4431288965,118.7081441397,120.4468906745c0,42.5770203142-18.1633270176,80.2666086862-50.9655372285,101.5551098798l55.8530050246,37.0081660211-26.8808577545,40.8382289619-90.0649927652-59.7065164523v.0469686817ZM1799.3253062674,186.1687059101c0-44.0103449291-20.9595052981-75.0737100069-61.4687383644-75.0737100069s-61.4218413907,31.0633650778-61.4218413907,75.0737100069c0,44.0103538926,20.959505298,75.0502167026,61.4218413907,75.0502167026s61.4687383644-31.0633650778,61.4687383644-75.0502167026Z"/>
        <g>
          <path class="cls-1" d="M230.3905264322,8.52950139v7.0491744802c0,3.9005428538-3.1486226629,7.0491744802-7.0491744802,7.0491744802h-108.8627555251c-60.8108810257,0-97.5370803365,31.9562562991-97.5370803365,84.1906381218,0,40.015810931,23.6617260473,64.0769881372,76.7420102418,84.0731514323,33.8595343947,12.6650153819,43.3759181503,18.2808562837,44.4567983828,28.9486091483.681422351,6.8377078507-1.6213069036,25.588501929-39.193410827,25.588501929H7.0491744802c-3.900543134,0-7.0491744802-3.1486226629-7.0491744802-7.0491744802V8.52950139C0,3.8300514564,3.8300514564,0,8.52950139,0h213.3315124479c4.7229519213,0,8.5294946673,3.8300514564,8.5295125943,8.52950139Z"/>
          <path class="cls-1" d="M141.1714718927,77.1884569729h106.019572709c3.9005518173,0,7.0491744802,3.1486316264,7.0491744802,7.0491744802v238.5440565223c0,4.7229339943-3.8300450139,8.5295125943-8.5294946673,8.5295125943H32.379207485c-4.7229474395,0-8.52950139-3.8300629408-8.52950139-8.5295125943v-10.0098148545c0-3.9005518173,3.1486316264-7.0491744802,7.0491744802-7.0491744802h112.4108315878c94.5999265439,0,93.8715175843-68.2595133875,93.8715175843-86.0939162174,0-46.5245587402-44.1513316456-68.1420199753-90.2764235407-86.5168674033-31.8387696096-12.6650153819-39.1699085592-18.7742963461-39.1699085592-33.483578781,0-16.3070870707,13.4639221816-22.4163769983,33.4600765132-22.4163769983l-.0235022678-.0235022678Z"/>
        </g>
      </g>
    </g>
  </g>
</svg>